<svg xmlns="http://www.w3.org/2000/svg" width="1371.05" height="324.031" viewBox="0 0 1371.05 324.031"><defs><style>.a{fill:#f4f4f4;stroke:rgba(0,0,0,0);stroke-miterlimit:10;}</style></defs><path class="a" d="M70.132-227.969v-219h3.841v-.468h55.891v-23.988h13.083V-512.67h70.144v41.245h65.578v-67.208h72.366V-495h16.5v-52.088h72.365V-495h91.522v48.035h66.806v-78.866H639.6v-25.118h15.575V-551h69.256v81.03H744.98v23h97.807v-78.866h15.576v-.041h69.256v28.041h63.62v50.866h7.433v-3.469h59.39v-23.987h13.9v-41.245h52.115V-536.2h8.721l-.006,20.534H1146.5v41.245h69.684v-67.208h76.9V-498h17.536v-52.087h76.9v97.659l52.668.651-.552,210.559h-.4v13.253Z" transform="translate(-69.632 551.5)"/></svg>