<svg id="Layer_1" data-name="Layer 1" xmlns="http://www.w3.org/2000/svg" viewBox="0 0 148.04 66.29"><defs><style>.cls-1{fill:#7b868c;}.cls-2{fill:#6abf4b;}.cls-3{fill:#7d858b;}</style></defs><title>LogoVU</title><path class="cls-1" d="M0,51.42H3.48L6.39,62,9.48,51.42H13L8.32,66.13H4.42Z"/><path class="cls-1" d="M15.87,66.13V51.42h3.3V66.13Z"/><path class="cls-1" d="M22.34,56.42V55.18c0-2.53,1.33-3.83,4-3.88l.85,0a16.33,16.33,0,0,1,5.08.64v2.57c-1.36-.13-2.53-.2-3.48-.2h-1.5a2.91,2.91,0,0,0-1.27.2q-.36.21-.36,1V56a1.24,1.24,0,0,0,.22.89,1.8,1.8,0,0,0,1.19.32h2.13a3.39,3.39,0,0,1,2.27.7,4.15,4.15,0,0,1,1.34,3.36v.84c0,1.89-.59,3.13-1.78,3.74a5.18,5.18,0,0,1-2.3.46c-1.58,0-2.74,0-3.5-.12a12.66,12.66,0,0,1-2.4-.52V63.07A51.44,51.44,0,0,0,28,63.3a2.35,2.35,0,0,0,1.13-.23.87.87,0,0,0,.4-.84v-.58a1,1,0,0,0-1.21-1.17H26.22A4.13,4.13,0,0,1,24.07,60a2.87,2.87,0,0,1-1.16-1.13,4.31,4.31,0,0,1-.46-1.22A8.82,8.82,0,0,1,22.34,56.42Z"/><path class="cls-1" d="M35.91,61.49a24.91,24.91,0,0,1-.14-2.72,17.42,17.42,0,0,1,.16-2.48,11.18,11.18,0,0,1,.43-1.93A4.54,4.54,0,0,1,37.07,53a4.46,4.46,0,0,1,.91-.89,3.73,3.73,0,0,1,1.12-.5,8.38,8.38,0,0,1,2.28-.3c.81,0,1.42,0,1.81.06a8,8,0,0,1,1.27.24,3.51,3.51,0,0,1,1.12.5,4.43,4.43,0,0,1,.9.89,4.36,4.36,0,0,1,.7,1.34,15,15,0,0,1,.56,4.52A11.41,11.41,0,0,1,46.8,64a3.77,3.77,0,0,1-1.55,1.57,7.58,7.58,0,0,1-3.49.6,7.82,7.82,0,0,1-3.48-.56,3.49,3.49,0,0,1-1.57-1.51A7.37,7.37,0,0,1,35.91,61.49Zm3.53-6a6.5,6.5,0,0,0-.28,1.32,17.11,17.11,0,0,0-.1,1.86c0,.69,0,1.23,0,1.61s.06.73.1,1.06a2.88,2.88,0,0,0,.22.79,2.05,2.05,0,0,0,.33.54,1.1,1.1,0,0,0,.49.35,4.12,4.12,0,0,0,1.47.23A4,4,0,0,0,43.06,63a1.62,1.62,0,0,0,.82-.66,3.2,3.2,0,0,0,.45-1.32,15.13,15.13,0,0,0,.12-2.13,19.5,19.5,0,0,0-.09-2.1,7.2,7.2,0,0,0-.26-1.31,1.49,1.49,0,0,0-.52-.77,1.87,1.87,0,0,0-.74-.35,5.14,5.14,0,0,0-1.07-.09,7.06,7.06,0,0,0-1.06.07,2.08,2.08,0,0,0-.74.32A1.44,1.44,0,0,0,39.44,55.46Z"/><path class="cls-1" d="M50.8,66.13V51.42h6.49a4.33,4.33,0,0,1,3.11,1.06,4.78,4.78,0,0,1,1.13,3.58,6.15,6.15,0,0,1-.62,3.14,2.66,2.66,0,0,1-.75.82,6.19,6.19,0,0,1-.9.42l2.67,5.69H58.19L56,60.72l-1.91-.28v5.69Zm3.31-8.22h2.8a1.16,1.16,0,0,0,1-.38,2.65,2.65,0,0,0,.26-1.41,2.57,2.57,0,0,0-.3-1.44,1.15,1.15,0,0,0-1-.41h-2.8Z"/><path class="cls-2" d="M70.65,66.23h-.28a6.49,6.49,0,0,1-3.13-.5,5.32,5.32,0,0,1-.83-.72,3,3,0,0,1-.7-1.15,13.16,13.16,0,0,1-.56-4.16V51.42H67V59.7a11.48,11.48,0,0,0,.13,2.11c.08.41.16.74.22,1a1.8,1.8,0,0,0,.27.61c.12.16.23.31.33.43a1.13,1.13,0,0,0,.42.3,4.3,4.3,0,0,0,.47.18,4,4,0,0,0,.55.1c.35,0,.72,0,1.13,0l1,0a3.64,3.64,0,0,0,.73-.13,2,2,0,0,0,.66-.29,2.69,2.69,0,0,0,.55-.53,2.65,2.65,0,0,0,.42-.86,9.76,9.76,0,0,0,.36-2.91V51.42h1.87V59.7c0,2.62-.46,4.39-1.39,5.28a5.49,5.49,0,0,1-.86.73,3.06,3.06,0,0,1-1,.36A11.25,11.25,0,0,1,70.65,66.23Z"/><path class="cls-2" d="M86.15,51.42q3.55,0,3.55,4.46a6.21,6.21,0,0,1-.23,2,8.2,8.2,0,0,1-.39.93,1.88,1.88,0,0,1-.39.54l-.4.34a1.81,1.81,0,0,1-.44.23,4.45,4.45,0,0,1-.64.18l3,6h-2l-2.92-5.89L81.68,60v6.17H79.84V51.42Zm-4.47,7h4.39c.73,0,1.21-.19,1.42-.58a3.54,3.54,0,0,0,.34-1.7,7,7,0,0,0-.14-1.64,1.59,1.59,0,0,0-.42-.82,1.62,1.62,0,0,0-1.2-.46H81.68Z"/><path class="cls-2" d="M99.43,51.42a4.64,4.64,0,0,1,1.86.34,2.83,2.83,0,0,1,1.21.93,4.21,4.21,0,0,1,.85,2.59c0,1.79-.64,2.86-1.91,3.21a2.32,2.32,0,0,1,1.42,1.08,4.14,4.14,0,0,1,.61,2.4,4.68,4.68,0,0,1-.85,2.91,3.69,3.69,0,0,1-3.17,1.25H93.66V51.42Zm-3.9,6.15h3.86A2.12,2.12,0,0,0,101,57a2.35,2.35,0,0,0,.54-1.67,1.86,1.86,0,0,0-1.37-2.07,2.9,2.9,0,0,0-.74-.08H95.53Zm0,6.79h3.88c1.47,0,2.21-.82,2.21-2.45a3.11,3.11,0,0,0-.55-1.87,1.93,1.93,0,0,0-1.66-.74H95.53Z"/><path class="cls-2" d="M105.92,66.13l5.28-14.71h2l5.07,14.71h-2.11l-1.21-3.88h-5.57l-1.26,3.88Zm4-5.63h4.42l-2.17-6.43Z"/><path class="cls-2" d="M121.67,66.13V51.42h1.89l7.3,11.27V51.42h1.84V66.13h-1.84l-7.32-11.25V66.13Z"/><path class="cls-2" d="M136.54,58.57a15.77,15.77,0,0,1,.29-3.12,7.84,7.84,0,0,1,.75-2.21A3.24,3.24,0,0,1,138.83,52a5,5,0,0,1,1.56-.56,11.27,11.27,0,0,1,1.75-.12q1,0,1.59.06a7.1,7.1,0,0,1,1.22.24,3.42,3.42,0,0,1,1.07.5,4.47,4.47,0,0,1,1.49,2.23,16.13,16.13,0,0,1,.53,4.52,12.12,12.12,0,0,1-.71,4.79,4.7,4.7,0,0,1-.79,1.31,2.9,2.9,0,0,1-1.16.78,8.52,8.52,0,0,1-3.07.46,6.68,6.68,0,0,1-3.8-.78A4,4,0,0,1,137,63.26,17.41,17.41,0,0,1,136.54,58.57Zm2-2.47a8.6,8.6,0,0,0-.13,1.24q0,.69,0,1.65c0,.63,0,1.21.06,1.72a11.67,11.67,0,0,0,.18,1.38,3.33,3.33,0,0,0,.35,1,3.12,3.12,0,0,0,.52.68,1.68,1.68,0,0,0,.72.41,6.22,6.22,0,0,0,1.82.24,12.06,12.06,0,0,0,1.57-.08,3.36,3.36,0,0,0,1-.31,2,2,0,0,0,.74-.61,3.66,3.66,0,0,0,.49-1,12.62,12.62,0,0,0,.36-3.54,18,18,0,0,0-.13-2.54c-.09-.5-.16-.89-.22-1.17a2.33,2.33,0,0,0-.28-.74c-.12-.2-.23-.38-.34-.53a1.16,1.16,0,0,0-.44-.37,4,4,0,0,0-.49-.23,2.33,2.33,0,0,0-.59-.12,11.53,11.53,0,0,0-1.21-.06h-.91a6.07,6.07,0,0,0-.66.05,2.33,2.33,0,0,0-.59.12c-.14.05-.3.13-.49.22a1.06,1.06,0,0,0-.44.36c-.11.15-.23.33-.36.53a2.93,2.93,0,0,0-.29.74C138.69,55.42,138.62,55.74,138.55,56.1Z"/><path class="cls-1" d="M85.65,44.05V38.42a4.59,4.59,0,0,1,.47-9.15h.32a4.59,4.59,0,0,1,.09,9.14v6l-.09,0a.79.79,0,0,1-.32.08.46.46,0,0,1-.47-.47M82.44,33.82a3.65,3.65,0,0,0,3.21,3.66V35.24l-1.55-.92a.46.46,0,0,1-.23-.51.47.47,0,0,1,.45-.34.53.53,0,0,1,.24.06l1.09.63V32.39a.44.44,0,0,1,.44-.46.44.44,0,0,1,.44.46v.2l.76-.57a.47.47,0,0,1,.28-.11.47.47,0,0,1,.44.34.4.4,0,0,1-.16.47l-1.32,1v1.49l1.24-.93a.44.44,0,0,1,.25-.08.48.48,0,0,1,.44.32.47.47,0,0,1-.15.53l-1.78,1.33v1.07a3.66,3.66,0,0,0,3.26-3.66,3.72,3.72,0,0,0-3.67-3.67,3.68,3.68,0,0,0-3.68,3.67"/><path class="cls-1" d="M86.12,29.43h.31a4.43,4.43,0,0,1-.06,8.83v6a.53.53,0,0,1-.25.07.29.29,0,0,1-.31-.31V38.27a4.42,4.42,0,0,1,.31-8.84m.25,8.23a3.84,3.84,0,1,0-4.08-3.84,3.81,3.81,0,0,0,3.52,3.84V35.15l-1.63-1a.3.3,0,0,1,.14-.56.33.33,0,0,1,.16.05l1.33.77v-2a.28.28,0,1,1,.56,0v.52l1-.77a.27.27,0,0,1,.17-.07.3.3,0,0,1,.18.53l-1.38,1.07v1.89l1.49-1.12a.24.24,0,0,1,.16,0,.31.31,0,0,1,.19.56l-1.84,1.38v1.33m-.25-8.55a4.75,4.75,0,0,0-4.77,4.71,4.82,4.82,0,0,0,1.28,3.27,4.7,4.7,0,0,0,2.86,1.47v5.49a.62.62,0,0,0,.63.63.87.87,0,0,0,.39-.1l.18-.08V38.56a4.75,4.75,0,0,0-.24-9.44h-.33m.57,8.19v-.81l1.72-1.29h0a.61.61,0,0,0,.19-.69.63.63,0,0,0-.59-.43.67.67,0,0,0-.34.1h0l-1,.74V33.83l1.25-1a.57.57,0,0,0,.22-.65.63.63,0,0,0-.59-.46.59.59,0,0,0-.37.14l-.52.39a.59.59,0,0,0-.59-.51.6.6,0,0,0-.6.62v1.5l-.85-.49A.62.62,0,1,0,84,34.46l1.48.87v2a3.52,3.52,0,0,1,.63-7,3.56,3.56,0,0,1,3.51,3.51,3.51,3.51,0,0,1-2.94,3.48"/><path class="cls-1" d="M41.1,44.05V38.42a4.59,4.59,0,0,1,.47-9.15h.32A4.59,4.59,0,0,1,42,38.42v6l-.09,0a.83.83,0,0,1-.32.08.46.46,0,0,1-.47-.47M37.89,33.82a3.65,3.65,0,0,0,3.21,3.66V35.24l-1.56-.92a.45.45,0,0,1,.22-.85.54.54,0,0,1,.25.06l1.09.63V32.39a.44.44,0,1,1,.88,0v.2l.76-.57a.43.43,0,0,1,.28-.11.48.48,0,0,1,.44.34.42.42,0,0,1-.16.47l-1.32,1v1.49l1.23-.93a.49.49,0,0,1,.25-.08.48.48,0,0,1,.45.32.47.47,0,0,1-.15.53L42,36.41v1.07a3.66,3.66,0,0,0,3.26-3.66,3.72,3.72,0,0,0-3.67-3.67,3.68,3.68,0,0,0-3.68,3.67"/><path class="cls-1" d="M41.57,29.43h.31a4.43,4.43,0,0,1-.06,8.83v6a.56.56,0,0,1-.25.07.29.29,0,0,1-.31-.31V38.27a4.42,4.42,0,0,1,.31-8.84m.25,8.23a3.84,3.84,0,1,0-4.09-3.84,3.82,3.82,0,0,0,3.53,3.84V35.15l-1.64-1a.3.3,0,0,1,.14-.56.37.37,0,0,1,.17.05l1.33.77v-2a.28.28,0,1,1,.56,0v.52l1-.77a.27.27,0,0,1,.18-.07c.24,0,.43.36.18.53l-1.38,1.07v1.89l1.48-1.12a.27.27,0,0,1,.16,0,.32.32,0,0,1,.2.56l-1.84,1.38v1.33m-.26-8.55a4.75,4.75,0,0,0-4.76,4.71,4.81,4.81,0,0,0,1.27,3.27,4.75,4.75,0,0,0,2.87,1.47v5.49a.62.62,0,0,0,.63.63.8.8,0,0,0,.38-.1l.19-.08V38.56a4.75,4.75,0,0,0-.24-9.44h-.34m.58,8.19v-.81l1.71-1.29h0a.61.61,0,0,0,.2-.69.64.64,0,0,0-.6-.43.67.67,0,0,0-.33.1h0l-1,.74V33.83l1.25-1a.58.58,0,0,0,.22-.65.63.63,0,0,0-.59-.46.59.59,0,0,0-.37.14l-.52.39a.59.59,0,0,0-.59-.51.6.6,0,0,0-.6.62v1.5l-.85-.49a.68.68,0,0,0-.33-.09.61.61,0,0,0-.59.46.6.6,0,0,0,.29.69l1.48.87v2a3.52,3.52,0,0,1,.63-7,3.56,3.56,0,0,1,3.51,3.51,3.51,3.51,0,0,1-2.94,3.48"/><path class="cls-1" d="M129.89,45h-6.6a.67.67,0,0,1-.66-.66V32.6H111.79v7a.67.67,0,0,1-.66.66h-4.38a.66.66,0,0,1-.65-.66V31.94a.66.66,0,0,1,.65-.66h3.72V24H95l.16,20.31a.67.67,0,0,1-.66.67H77.59a.66.66,0,0,1-.66-.66V32.93H72.34a.67.67,0,0,1-.66-.66V6.78L57.41,1.6V34.54H60.8a.66.66,0,0,1,.66.66v9.16a.66.66,0,0,1-.66.66h-4a.66.66,0,0,1-.66-.66v-8.5H50.45v8.5a.66.66,0,0,1-.65.66H32.88a.67.67,0,0,1-.66-.66v-9h-8v9a.67.67,0,0,1-.66.66H19.35a.66.66,0,0,1,0-1.32h3.53v-9a.65.65,0,0,1,.66-.66h9.34a.65.65,0,0,1,.66.66v9h15.6V35.2a.66.66,0,0,1,.66-.66h6.29V.66a.64.64,0,0,1,.28-.54A.67.67,0,0,1,57,0L72.56,5.69a.66.66,0,0,1,.44.62v25.3h4.59a.66.66,0,0,1,.66.66V43.7H93.82l-.15-20.31a.67.67,0,0,1,.19-.47.63.63,0,0,1,.47-.2h16.8a.67.67,0,0,1,.66.66v7.9h11.5a.66.66,0,0,1,.66.66V43.7h5.94a.66.66,0,0,1,0,1.32ZM57.41,43.7h2.73V35.86H57.41Zm50-4.78h3.06V32.6h-3.06Z"/><path class="cls-1" d="M72.34,13H56.75a.66.66,0,0,1-.66-.66v-3a.65.65,0,0,1,.66-.66H72.34a.66.66,0,0,1,.66.66v3A.67.67,0,0,1,72.34,13ZM57.41,11.64H71.68V9.94H57.41Z"/><path class="cls-3" d="M72.34,19H56.75a.66.66,0,0,1-.66-.66v-3a.65.65,0,0,1,.66-.66H72.34a.66.66,0,0,1,.66.66v3A.67.67,0,0,1,72.34,19ZM57.41,17.72H71.68V16H57.41Z"/><path class="cls-1" d="M72.34,25.12H56.75a.66.66,0,0,1-.66-.66v-3a.65.65,0,0,1,.66-.66H72.34a.66.66,0,0,1,.66.66v3A.67.67,0,0,1,72.34,25.12ZM57.41,23.8H71.68V22.1H57.41Z"/><path class="cls-1" d="M101.41,30.82H98a.64.64,0,0,1-.64-.64V26.74a.64.64,0,0,1,.64-.63h3.44a.64.64,0,0,1,.64.63v3.44A.64.64,0,0,1,101.41,30.82ZM98.6,29.55h2.17V27.38H98.6Z"/><path class="cls-1" d="M120,38.93H116.6a.64.64,0,0,1-.64-.63V34.86a.64.64,0,0,1,.64-.64H120a.63.63,0,0,1,.63.64V38.3A.63.63,0,0,1,120,38.93Zm-2.81-1.27h2.17V35.49h-2.17Z"/></svg>