<svg xmlns="http://www.w3.org/2000/svg" viewBox="0 0 200 40">
  <defs>
    <style>
      .text-primary { fill: #6abf4b; font-family: 'Red Hat Display', sans-serif; font-weight: 700; }
      .text-secondary { fill: #2151c6; font-family: 'Red Hat Display', sans-serif; font-weight: 700; }
      .icon { fill: #6abf4b; }
    </style>
  </defs>
  
  <!-- Icono simplificado de edificios -->
  <g class="icon">
    <rect x="2" y="20" width="8" height="16" rx="1"/>
    <rect x="12" y="15" width="8" height="21" rx="1"/>
    <rect x="22" y="10" width="8" height="26" rx="1"/>
    <rect x="32" y="18" width="8" height="18" rx="1"/>
    
    <!-- Ventanas pequeñas -->
    <rect x="4" y="22" width="2" height="2" fill="white"/>
    <rect x="6.5" y="22" width="2" height="2" fill="white"/>
    <rect x="4" y="25" width="2" height="2" fill="white"/>
    <rect x="6.5" y="25" width="2" height="2" fill="white"/>
    
    <rect x="14" y="17" width="2" height="2" fill="white"/>
    <rect x="16.5" y="17" width="2" height="2" fill="white"/>
    <rect x="14" y="20" width="2" height="2" fill="white"/>
    <rect x="16.5" y="20" width="2" height="2" fill="white"/>
    
    <rect x="24" y="12" width="2" height="2" fill="white"/>
    <rect x="26.5" y="12" width="2" height="2" fill="white"/>
    <rect x="24" y="15" width="2" height="2" fill="white"/>
    <rect x="26.5" y="15" width="2" height="2" fill="white"/>
  </g>
  
  <!-- Texto VISOR -->
  <text x="50" y="18" class="text-primary" font-size="14">VISOR</text>
  <!-- Texto URBANO -->
  <text x="50" y="32" class="text-secondary" font-size="14">URBANO</text>
</svg>
