<svg xmlns="http://www.w3.org/2000/svg" xmlns:xlink="http://www.w3.org/1999/xlink" width="110" height="34.255" viewBox="0 0 110 34.255"><defs><style>.a{fill:none;}.b{clip-path:url(#a);}.c{fill:#181d72;}</style><clipPath id="a"><rect class="a" width="110" height="34.255"/></clipPath></defs><g class="b"><path class="c" d="M4.246,89.131H6.723a5.213,5.213,0,0,0,3.116-.784A3.059,3.059,0,0,0,11.1,85.778a3.4,3.4,0,0,0-1.276-2.715,5.375,5.375,0,0,0-3.17-.784H0v.474H1.549V94.669H0v.474H5.958v-.474H4.246Zm0-6.378H5.867a2.18,2.18,0,0,1,1.913.747,3.808,3.808,0,0,1,.437,2.2c0,1.567-.455,2.223-.729,2.423a2.9,2.9,0,0,1-1.567.474H4.246Zm10.368-.583c-.31.036-.674.091-1.695.146-.747.036-1.367.036-1.858.036v.492h1.312V94.669H11.06v.474h4.646v-.474H14.595V91.353c.018-1.038.036-2.2,1.075-2.915a1.764,1.764,0,0,1,1.039-.328c1,0,1.093.82,1.075,1.749v4.81h-1v.474h4.464v-.474h-1.2V89.786a2.434,2.434,0,0,0-.492-1.8,2.434,2.434,0,0,0-1.913-.674,3.716,3.716,0,0,0-3.025,1.549ZM21.584,88h1.239v6.669H21.584v.474h4.683v-.474H25.1V87.363c-.856.055-1.33.091-1.786.127-.474.018-.911.036-1.731.036Zm.82-3.826a1.312,1.312,0,1,0,1.312-1.312A1.306,1.306,0,0,0,22.4,84.174m7.768-2a13.388,13.388,0,0,1-1.968.182c-.656.018-1.257.018-1.6.018v.51h1.275V94.669H26.6v.474h4.774v-.474h-1.2ZM38.7,89.7a1.875,1.875,0,0,0-1.221-2.059,4.839,4.839,0,0,0-1.822-.328c-1.767,0-3.188.82-3.188,1.986a.972.972,0,0,0,1.02,1,1.012,1.012,0,0,0,1.038-1.021.831.831,0,0,0-.091-.364c-.055-.146-.164-.255-.218-.4a.417.417,0,0,1-.055-.2c0-.164.273-.528,1.093-.528,1.221,0,1.275.619,1.275,1.385v1.439a7.494,7.494,0,0,0-3.644.984A2.365,2.365,0,0,0,31.83,93.5c0,.564.273,1.84,2.15,1.84a3.239,3.239,0,0,0,2.551-1.257,1.839,1.839,0,0,0,1.676,1.257,2.44,2.44,0,0,0,1.786-.91l-.292-.4a.978.978,0,0,1-.547.273c-.437,0-.456-.529-.456-.947Zm-2.168,2.824A1.679,1.679,0,0,1,36.02,94a1.341,1.341,0,0,1-.8.291,1.275,1.275,0,0,1-1.239-1.4c0-1.621,1.585-1.713,2.551-1.768Zm7.124-5.156c-1.348.055-2.405.164-3.517.164V88h1.239v6.669H40.138v.474h4.682v-.474H43.655V91.281a6.877,6.877,0,0,1,.073-1.476,2.235,2.235,0,0,1,1.913-1.658c1.111,0,1.111.984,1.111,2v4.519h-1.02v.474h4.482v-.474h-1.2V89.8c0-.8,0-1.931-1.476-2.35a3.649,3.649,0,0,0-1.039-.146,3.687,3.687,0,0,0-1.385.273,3.365,3.365,0,0,0-1.457,1.129Zm9.606-2.9h-.51a5.619,5.619,0,0,1-3.006,3.244V88h1.312l-.036,5.211c0,.8.018,2.15,1.858,2.15a2.5,2.5,0,0,0,2.587-2.187l-.51-.109c-.219.729-.51,1.33-1.057,1.33-.62,0-.638-.674-.638-1.112V88h1.585v-.474H53.261Zm5.467-2.3c-.31.036-.675.091-1.695.146-.747.036-1.367.036-1.859.036v.492h1.312V94.669H55.174v.474H59.82v-.474H58.709V91.353c.018-1.038.036-2.2,1.075-2.915a1.764,1.764,0,0,1,1.039-.328c1,0,1.093.82,1.075,1.749v4.81h-1v.474h4.464v-.474h-1.2V89.786a2.1,2.1,0,0,0-2.405-2.478,3.715,3.715,0,0,0-3.025,1.549Zm9.948,5.193a33.6,33.6,0,0,1-3.59.164V88h1.239v6.669H65.086v.474h5.047v-.474H68.621V91.208a4.317,4.317,0,0,1,.729-2.515s.583-.747.838-.747c.127,0,.255.091.255.182,0,.055-.055.11-.092.182a1.051,1.051,0,0,0-.237.674,1.1,1.1,0,0,0,1.166,1.075A1.17,1.17,0,0,0,72.5,88.821a1.485,1.485,0,0,0-1.6-1.512,2.111,2.111,0,0,0-1.694.8,5.415,5.415,0,0,0-.565.82Zm12.591,3.808a3.823,3.823,0,1,0-.219,1.7,4.087,4.087,0,0,0,.219-1.7m-2.479.019c.018,1.786.018,3.79-1.786,3.79a1.648,1.648,0,0,1-1.512-.911c-.146-.255-.328-.638-.328-2.806,0-1.6.036-3.5,1.822-3.5a1.611,1.611,0,0,1,1.568,1c.109.237.218.492.236,2.423m5.995-3.827a18.934,18.934,0,0,1-3.535.164v.492h1.185V99.972H81.248v.51h4.974v-.51H84.746V94.05a2.982,2.982,0,0,0,2.46,1.312,3.206,3.206,0,0,0,2.66-1.385,3.984,3.984,0,0,0,.8-2.515c0-2.969-2.023-4.154-3.571-4.154a2.845,2.845,0,0,0-2.351,1.33Zm3.371,3.808c.036,2.205-.2,3.59-1.421,3.59a2.169,2.169,0,0,1-1.713-1.275,4.717,4.717,0,0,1-.383-2.132c0-2.041.674-2.7,1.093-3.025a1.576,1.576,0,0,1,.929-.346c.856,0,1.148.747,1.276,1.239a8.774,8.774,0,0,1,.219,1.949M90.978,88h1.239v6.669H90.978v.474h4.683v-.474H94.495V87.363c-.857.055-1.331.091-1.786.127-.474.018-.911.036-1.731.036Zm.82-3.826a1.312,1.312,0,1,0,1.312-1.312A1.306,1.306,0,0,0,91.8,84.174m11.752,6.669a4.046,4.046,0,0,0-.984-2.406,3.689,3.689,0,0,0-2.715-1.129,3.891,3.891,0,0,0-4.026,4.008A3.958,3.958,0,0,0,100,95.362a3.694,3.694,0,0,0,3.462-2.314L103,92.829a3.336,3.336,0,0,1-2.77,1.968c-1.822,0-1.877-1.822-1.895-2.515-.018-.492,0-.966,0-1.439Zm-5.156-1.513c.072-.729.182-1.6,1.457-1.6,1.184,0,1.24.893,1.294,1.53v1.057h-2.77Zm11.078.219V87.217h-.51c-.036.4-.055.583-.383.583a.726.726,0,0,1-.419-.146,3.076,3.076,0,0,0-1.44-.346,2.32,2.32,0,0,0-2.441,2.46c0,1.786,1.294,2.2,2.46,2.587.747.219,2.059.383,2.059,1.348,0,.583-.6,1.166-1.549,1.166a2.5,2.5,0,0,1-1.695-.674,2.918,2.918,0,0,1-.838-1.822h-.529v2.769h.529c-.018-.128-.036-.492.291-.492a1.649,1.649,0,0,1,.583.273,3.238,3.238,0,0,0,1.6.438A2.692,2.692,0,0,0,110,92.61c0-1.676-1.4-2.077-2.278-2.332l-.547-.146a4.288,4.288,0,0,1-1.275-.492,1,1,0,0,1-.346-.747,1.187,1.187,0,0,1,1.293-1.075,2.379,2.379,0,0,1,1.349.438,2.032,2.032,0,0,1,.765,1.294Z" transform="translate(0 -66.227)"/><path class="c" d="M.188.11V.584H1.737V12.5H.188v.474H5.873c1.913-.018,4.209-.018,5.193-1.858a3.288,3.288,0,0,0,.365-1.549,3.16,3.16,0,0,0-2.606-3.1,10.689,10.689,0,0,0-1.367-.219A9.29,9.29,0,0,0,8.7,6.014,2.757,2.757,0,0,0,10.829,3.3,2.8,2.8,0,0,0,9.353.73,6.671,6.671,0,0,0,6.128.11ZM4.434,6.542H6.128a2.185,2.185,0,0,1,1.822.711,3.711,3.711,0,0,1,.51,2.314,4.051,4.051,0,0,1-.383,2.059,1.9,1.9,0,0,1-1.822.875H4.434Zm0-5.922H5.855c1.494,0,2.259.364,2.259,2.77,0,2.132-.765,2.642-2.186,2.642H4.434ZM15.129,0a13.386,13.386,0,0,1-1.968.182C12.505.2,11.9.2,11.558.2v.51h1.276V12.5H11.558v.474h4.774V12.5h-1.2Zm10.04,9A4.088,4.088,0,0,0,20.9,5.139a4.114,4.114,0,0,0-4.373,3.99,4.071,4.071,0,0,0,4.428,4.045A4.069,4.069,0,0,0,24.95,10.7,4.11,4.11,0,0,0,25.169,9M22.69,9.02c.018,1.786.018,3.79-1.786,3.79a1.647,1.647,0,0,1-1.512-.911c-.146-.255-.328-.638-.328-2.806,0-1.6.036-3.5,1.822-3.5a1.611,1.611,0,0,1,1.567,1c.109.237.219.492.237,2.423M34.474,9A4.087,4.087,0,0,0,30.21,5.139a4.114,4.114,0,0,0-4.373,3.99,4.071,4.071,0,0,0,4.428,4.045,4.07,4.07,0,0,0,3.99-2.478A4.1,4.1,0,0,0,34.474,9M32,9.02c.018,1.786.018,3.79-1.786,3.79A1.647,1.647,0,0,1,28.7,11.9c-.146-.255-.328-.638-.328-2.806,0-1.6.036-3.5,1.822-3.5a1.611,1.611,0,0,1,1.567,1c.109.237.219.492.237,2.423m6.122-3.826a21.718,21.718,0,0,1-3.48.164v.474h1.2V12.5h-1.2v.474h4.592V12.5H38.1V8.638a3.257,3.257,0,0,1,.528-2,1.779,1.779,0,0,1,1.33-.656c.984,0,1.093.856,1.093,1.895V12.5h-.984v.474H44.35V12.5H43.256V8.947a3.072,3.072,0,0,1,.711-2.442,1.817,1.817,0,0,1,1.2-.546c1.039,0,1.039.893,1.039,1.822V12.5h-1v.474H49.6V12.5H48.468V7.727c-.055-.984-.073-2.588-2.478-2.588a2.959,2.959,0,0,0-2.733,1.567,2.445,2.445,0,0,0-2.515-1.585,3.191,3.191,0,0,0-2.624,1.4ZM52.749,0a18.769,18.769,0,0,1-1.968.2H49.2v.51h1.276V12.5H49.2v.474h3.535V11.826a3.255,3.255,0,0,0,2.678,1.348,3.209,3.209,0,0,0,2.751-1.33,4.007,4.007,0,0,0,.875-2.587c0-2.952-2.023-4.118-3.663-4.118a3.253,3.253,0,0,0-2.624,1.33Zm3.772,8.983c0,2.023-.055,3.608-1.513,3.608a2.206,2.206,0,0,1-1.8-1.075,4.586,4.586,0,0,1-.547-2.332,5.039,5.039,0,0,1,.474-2.223A2.384,2.384,0,0,1,55.008,5.7c1.13,0,1.312,1.038,1.385,1.4a12.779,12.779,0,0,1,.128,1.877m10.9-.31a4.045,4.045,0,0,0-.984-2.405,3.688,3.688,0,0,0-2.715-1.13,3.891,3.891,0,0,0-4.027,4.009,3.957,3.957,0,0,0,4.173,4.045,3.693,3.693,0,0,0,3.461-2.314l-.455-.219a3.337,3.337,0,0,1-2.77,1.968c-1.823,0-1.877-1.822-1.9-2.515-.018-.492,0-.965,0-1.439ZM62.26,7.162c.073-.729.182-1.6,1.458-1.6,1.184,0,1.239.893,1.294,1.53V8.146h-2.77Zm8.892-1.968a33.6,33.6,0,0,1-3.59.164v.474H68.8V12.5H67.562v.474H72.61V12.5H71.1V9.038a4.316,4.316,0,0,1,.729-2.515s.583-.747.838-.747c.127,0,.255.091.255.182,0,.055-.055.109-.091.182a1.048,1.048,0,0,0-.237.674,1.1,1.1,0,0,0,1.166,1.075,1.17,1.17,0,0,0,1.221-1.239,1.485,1.485,0,0,0-1.6-1.512,2.111,2.111,0,0,0-1.7.8,5.407,5.407,0,0,0-.564.82Zm5.794,7.088c-.6,0-1.13-.018-1.13-.6s.711-.965,1.275-1.184a3.789,3.789,0,0,0,1.859.419c1.84,0,3.389-1,3.389-2.952a2.448,2.448,0,0,0-.4-1.33c.055-.255.109-.346.2-.346s.109,0,.255.182a.661.661,0,0,0,.529.237.764.764,0,0,0,.784-.82.818.818,0,0,0-.856-.838,1.261,1.261,0,0,0-.729.255,1.556,1.556,0,0,0-.529.874,3.608,3.608,0,0,0-2.624-1.039c-1.658,0-3.517.929-3.517,2.915a2.694,2.694,0,0,0,1.239,2.2,2.426,2.426,0,0,0-1.858,2.314,1.734,1.734,0,0,0,.492,1.257,1.516,1.516,0,0,0,1,.528c-.51.182-1.476.51-1.476,1.531,0,1.13,1.348,2.314,3.972,2.314,2.5,0,4.355-1.239,4.355-3.444a2.447,2.447,0,0,0-.455-1.549c-.656-.947-1.33-.929-2.642-.929Zm.711-4.318c0-1.294,0-2.387,1.239-2.387a1.057,1.057,0,0,1,1.02.6A4.479,4.479,0,0,1,80.1,8.036c0,1.294,0,2.35-1.184,2.35-1.2,0-1.257-.984-1.257-2.423M80.991,14.5c.383,0,1.294-.018,1.294,1,0,1.13-1.294,2.114-3.462,2.114-2,0-2.7-1.039-2.7-1.859a1.682,1.682,0,0,1,.619-1.257Z" transform="translate(-0.152 -0.001)"/></g></svg>