<?xml version="1.0" encoding="UTF-8"?>
<svg version="1.1" xmlns="http://www.w3.org/2000/svg" width="2481" height="1079">
<path d="M0 0 C2.97196194 0.32134771 5.90102568 0.71418257 8.85498047 1.16162109 C9.78946959 1.29944189 10.7239587 1.43726269 11.68676567 1.57925987 C23.9169683 3.4033667 36.11835545 5.41147015 48.3203125 7.4140625 C50.88384153 7.83347839 53.44738967 8.25277756 56.01095581 8.67196655 C61.33419565 9.54292547 66.65718402 10.41539849 71.97998047 11.2890625 C78.12663085 12.29791788 84.27383214 13.30336427 90.42130864 14.30717242 C96.37455947 15.27938259 102.32735407 16.25435522 108.27996445 17.23048019 C110.80050324 17.64349294 113.32116578 18.05575114 115.84195328 18.46724319 C119.3431098 19.03909901 122.84373616 19.61409532 126.34423828 20.18994141 C127.38514618 20.35929703 128.42605408 20.52865265 129.49850464 20.70314026 C130.44832214 20.86004837 131.39813965 21.01695648 132.3767395 21.17861938 C133.61481448 21.38156081 133.61481448 21.38156081 134.87790108 21.58860207 C137 22 137 22 140 23 C137.05250904 35.80681401 133.85214692 48.5389435 130.5625 61.26171875 C130.03631981 63.30195097 129.5102816 65.34221982 128.984375 67.38252258 C127.88276921 71.65479422 126.77999774 75.92676253 125.67626953 80.19848633 C124.30116626 85.52055837 122.92811757 90.84315745 121.55581665 96.16595268 C118.86153185 106.61632748 116.16038721 117.06490116 113.45327759 127.51196098 C111.77100316 134.00828716 110.09914208 140.50720582 108.43399048 147.00794125 C107.3290146 151.31732662 106.21852051 155.62527816 105.10693359 159.93296242 C104.58054637 161.97810555 104.05658937 164.02387585 103.53515625 166.0702877 C102.81750754 168.88552251 102.09142325 171.69845038 101.36328125 174.51098633 C101.04699516 175.76499835 101.04699516 175.76499835 100.72431946 177.04434395 C99.22799343 182.77200657 99.22799343 182.77200657 97 185 C96.20754883 184.65855957 95.41509766 184.31711914 94.59863281 183.96533203 C63.16266423 170.47146286 31.02458061 157.16776741 -3 152 C-3.78246094 151.86980469 -4.56492187 151.73960937 -5.37109375 151.60546875 C-21.02607912 149.38595287 -39.0952199 149.96974624 -53.08203125 157.9140625 C-55 159 -55 159 -58 160 C-59.11935073 161.64630193 -59.11935073 161.64630193 -60 164 C-60.26039063 164.58136719 -60.52078125 165.16273438 -60.7890625 165.76171875 C-63.44548242 172.08002594 -63.91812069 176.9906044 -61.875 183.6875 C-58.23033147 190.1264144 -52.63511455 192.99500625 -46.0625 195.81640625 C-45.28600098 196.15499161 -44.50950195 196.49357697 -43.70947266 196.84242249 C-34.66264171 200.69800605 -25.36766739 203.82754663 -16.04055786 206.92666626 C-12.92625341 207.96201706 -9.81613322 209.00918507 -6.70678711 210.05932617 C0.62677508 212.53386989 7.96398395 214.99741852 15.31201172 217.42871094 C42.99597572 226.59432288 69.72291419 238.19648635 93 256 C93.9178125 256.69351562 94.835625 257.38703125 95.78125 258.1015625 C121.3061243 278.14609614 139.69602803 304.52874646 147.75 336.0625 C148.04825684 337.22990723 148.04825684 337.22990723 148.35253906 338.42089844 C151.52761106 351.60588865 152.37685136 364.56729819 152.3125 378.0625 C152.31034485 378.8767041 152.3081897 379.6909082 152.30596924 380.52978516 C152.10790078 427.23272393 135.33089618 468.14637815 102.57861328 501.453125 C98.6471983 505.30549823 94.36141348 508.65543292 90 512 C89.0409375 512.78632812 88.081875 513.57265625 87.09375 514.3828125 C49.30380893 544.82470947 1.258227 555.4919695 -46.3125 555.3125 C-47.318573 555.31067719 -48.324646 555.30885437 -49.36120605 555.30697632 C-66.07996009 555.25617201 -82.45125723 554.55485833 -99 552 C-100.61962646 551.75056641 -100.61962646 551.75056641 -102.27197266 551.49609375 C-141.22521279 545.23109012 -178.12798066 530.73792713 -214.66015625 516.34375 C-215.44425873 516.0358252 -216.22836121 515.72790039 -217.03622437 515.41064453 C-217.76427277 515.12237793 -218.49232117 514.83411133 -219.24243164 514.53710938 C-219.87443985 514.28747437 -220.50644806 514.03783936 -221.15760803 513.78063965 C-223.15142269 512.93584071 -225.06725794 511.97537901 -227 511 C-226.41641612 504.58512202 -225.30902092 498.59665734 -223.67431641 492.37329102 C-223.43824677 491.45433044 -223.20217712 490.53536987 -222.95895386 489.58856201 C-222.17905332 486.55878696 -221.39037789 483.53137138 -220.6015625 480.50390625 C-220.04589728 478.35307514 -219.49076267 476.20210689 -218.93612671 474.05101013 C-217.46956685 468.36935998 -215.99548242 462.68968785 -214.51989746 457.01037598 C-213.06188333 451.39291462 -211.61141244 445.77350712 -210.16015625 440.15429688 C-207.61069411 430.28710445 -205.04985629 420.42291224 -202.48280716 410.56028175 C-200.83069083 404.20882989 -199.18896874 397.85481166 -197.55653572 391.4982729 C-196.53941824 387.5412352 -195.51696791 383.58558779 -194.49345016 379.63020134 C-194.01714045 377.78429711 -193.54322708 375.93777271 -193.07182693 374.0906086 C-192.42834632 371.57037377 -191.77650231 369.05244875 -191.12255859 366.53491211 C-190.93556774 365.79357718 -190.74857689 365.05224224 -190.55591965 364.28844261 C-189.22803854 359.22803854 -189.22803854 359.22803854 -187 357 C-186.2107312 357.45886597 -186.2107312 357.45886597 -185.40551758 357.92700195 C-150.96507634 377.9010447 -116.40656661 394.6374754 -77 402 C-75.37578125 402.30357422 -75.37578125 402.30357422 -73.71875 402.61328125 C-67.77620043 403.23125647 -61.84582243 403.266898 -55.875 403.3125 C-54.01101563 403.35600586 -54.01101563 403.35600586 -52.109375 403.40039062 C-41.33242614 403.47351189 -30.09188356 401.96802261 -21.58984375 394.7421875 C-16.10810308 388.73516947 -15.3301308 381.99742621 -15.625 374.08203125 C-16.48871365 366.9833847 -19.80740626 362.23508502 -25.31640625 357.77734375 C-42.20024274 346.5951813 -63.08255677 341.12166413 -82.28610229 335.38690186 C-135.43618693 319.49340308 -191.27715501 294.67714441 -219.23681641 243.74707031 C-224.9038309 232.91193816 -229.24924842 221.91441649 -232 210 C-232.16226074 209.32727051 -232.32452148 208.65454102 -232.49169922 207.96142578 C-237.61413135 185.75364728 -237.02192736 159.15381735 -232 137 C-231.83371094 136.24944336 -231.66742188 135.49888672 -231.49609375 134.72558594 C-226.54033184 113.14966697 -216.53435263 92.73567206 -202 76 C-201.32582031 75.20464844 -200.65164062 74.40929687 -199.95703125 73.58984375 C-175.14267179 45.06915009 -140.86145669 25.87761924 -104 18 C-102.86570557 17.75443359 -102.86570557 17.75443359 -101.70849609 17.50390625 C-73.84672997 11.75455865 -44.67493968 14.83766328 -16.98046875 20.1328125 C-13.26404801 20.83293288 -9.79742957 21.20526646 -6 21 C-5.85377197 20.39937744 -5.70754395 19.79875488 -5.55688477 19.17993164 C-4.89574368 16.47321322 -4.22919648 13.76785515 -3.5625 11.0625 C-3.33240234 10.11697266 -3.10230469 9.17144531 -2.86523438 8.19726562 C-2.64287109 7.29814453 -2.42050781 6.39902344 -2.19140625 5.47265625 C-1.98717041 4.64000244 -1.78293457 3.80734863 -1.57250977 2.94946289 C-1 1 -1 1 0 0 Z " fill="#1F54A2" transform="translate(392,257)"/>
<path d="M0 0 C48.18 0 96.36 0 146 0 C144.82163927 6.48098403 143.67874815 12.72453347 141.97900391 19.04492188 C141.78611471 19.77607554 141.59322552 20.50722921 141.3944912 21.26053905 C140.75922785 23.66436861 140.11793915 26.06654504 139.4765625 28.46875 C139.01762431 30.20024725 138.5590565 31.9318427 138.10083008 33.66352844 C136.8692859 38.31321477 135.63243101 42.96147263 134.39441681 47.60943985 C133.10436802 52.45592043 131.81885346 57.30360366 130.53271484 62.15112305 C128.14835761 71.13473744 125.75928675 80.11709125 123.36839867 89.09896946 C121.32045115 96.7933941 119.27644009 104.48885868 117.23375893 112.18468285 C114.9191488 120.90461024 112.60110421 129.62362175 110.28185272 138.34231567 C109.62455123 140.81418766 108.96787762 143.28622573 108.31134033 145.75830078 C107.28713133 149.6140977 106.26070162 153.46929658 105.23248291 157.32402611 C104.85739708 158.73154065 104.48305261 160.139253 104.10949707 161.54717445 C103.60318348 163.45492193 103.09391429 165.36188428 102.58447266 167.26879883 C102.30076813 168.33431473 102.0170636 169.39983063 101.72476196 170.49763489 C101 173 101 173 100 175 C49.84 175 -0.32 175 -52 175 C-52 190.18 -52 205.36 -52 221 C3.77 221 59.54 221 117 221 C116.34464152 226.24286783 115.68218822 230.74340747 114.38037109 235.76489258 C114.21871271 236.39418671 114.05705433 237.02348083 113.89049721 237.67184448 C113.35612826 239.74730588 112.8147784 241.82087847 112.2734375 243.89453125 C111.88902355 245.38242361 111.50508331 246.87043843 111.12158203 248.35856628 C110.30349124 251.52941168 109.48241745 254.6994628 108.65887451 257.86889648 C107.36775943 262.83784565 106.08278243 267.80836716 104.79931641 272.77929688 C104.58478506 273.61015745 104.37025372 274.44101803 104.14922142 275.2970562 C103.7139064 276.98304439 103.27861325 278.66903824 102.84334183 280.35503769 C102.18520717 282.90340936 101.5264173 285.45161097 100.86752319 287.99978638 C98.03052657 298.97614658 95.22091395 309.95915263 92.4375 320.94921875 C92.17367964 321.99041839 92.17367964 321.99041839 91.90452957 323.05265236 C90.40122144 328.98614623 88.89966843 334.92007972 87.40252686 340.85513306 C86.50719565 344.40389671 85.60925961 347.95199251 84.7109375 351.5 C84.44829102 352.54536423 84.18564453 353.59072845 83.91503906 354.66777039 C83.67543457 355.61271866 83.43583008 356.55766693 83.18896484 357.53125 C82.98201996 358.35173828 82.77507507 359.17222656 82.56185913 360.01757812 C82 362 82 362 81 364 C37.11 364 -6.78 364 -52 364 C-52 423.07 -52 482.14 -52 543 C-103.48 543 -154.96 543 -208 543 C-208 531.45 -208 519.9 -208 508 C-202.555 502.555 -202.555 502.555 -197 497 C-162.88996851 457.28284004 -147.71716651 409.01316354 -151.41357422 356.82641602 C-154.5175476 320.83681237 -168.67262703 286.91146619 -194 261 C-195.13929952 260.05999757 -196.28807381 259.13139629 -197.44458008 258.21264648 C-204.74361762 252.17804026 -209.25926615 246.77396666 -210.28125 237.15234375 C-210.54997948 233.0715111 -210.55818494 229.02564748 -210.5 224.9375 C-210.50061432 223.80874451 -210.50122864 222.67998901 -210.50186157 221.51702881 C-210.1547732 182.46842396 -196.73359466 143.95161445 -186.33920956 106.67901707 C-182.78133373 93.91642985 -179.37314758 81.12191575 -176.078125 68.2890625 C-175.85374063 67.41620731 -175.62935627 66.54335213 -175.39817238 65.64404678 C-174.3188355 61.44393462 -173.24177262 57.2432447 -172.16616821 53.04217529 C-170.41287026 46.19816505 -168.64499862 39.35799041 -166.86203766 32.52164841 C-166.35400895 30.57004105 -165.85001145 28.61738571 -165.34613037 26.66470337 C-165.04877991 25.5252829 -164.75142944 24.38586243 -164.44506836 23.21191406 C-164.18817734 22.2219342 -163.93128632 21.23195435 -163.66661072 20.2119751 C-163 18 -163 18 -162 17 C-159.97505378 16.90323586 -157.94667458 16.87813014 -155.91941833 16.87974548 C-155.27744619 16.87889106 -154.63547404 16.87803663 -153.9740482 16.87715632 C-151.80745946 16.87549979 -149.64094693 16.88102567 -147.47436523 16.88647461 C-145.92743939 16.88675647 -144.38051341 16.88659877 -142.83358765 16.8860321 C-138.62095968 16.88574408 -134.40835994 16.89164151 -130.19573855 16.89860606 C-125.79814212 16.90483888 -121.40054511 16.90544334 -117.00294495 16.90663147 C-108.66959487 16.909745 -100.33625785 16.91795868 -92.00291353 16.92798096 C-82.51818746 16.93914143 -73.03346078 16.94465238 -63.54872978 16.94967639 C-44.03247911 16.96014127 -24.5162406 16.97774113 -5 17 C-4.9175 16.236875 -4.835 15.47375 -4.75 14.6875 C-3.72445557 9.64523988 -1.75843754 4.83570325 0 0 Z " fill="#446CB3" transform="translate(719,262)"/>
<path d="M0 0 C5.90908554 0.81589884 9.42937287 2.68643558 13.875 6.6875 C16.2050222 11.47699008 15.47401256 17.18259632 13.84765625 22.13671875 C13.27108987 23.66076795 12.67450942 25.1773347 12.0625 26.6875 C11.72911621 27.54037598 11.39573242 28.39325195 11.05224609 29.27197266 C6.36270623 40.98686141 1.0563653 52.45990577 -4.18334961 63.9362793 C-4.55061661 64.74478836 -4.91788361 65.55329742 -5.29627991 66.38630676 C-5.98862092 67.90938202 -6.68491864 69.43066762 -7.38597107 70.94975281 C-9.33437693 75.24256982 -10.81734639 79.43449387 -12 84 C-5.74303757 84.33519442 -1.78745863 83.35422046 4 81 C4.99 81 5.98 81 7 81 C7.23976563 80.3296875 7.47953125 79.659375 7.7265625 78.96875 C9.00703798 75.98359244 10.52038505 73.31728379 12.1730957 70.52954102 C16.29148422 63.57521159 19.21513307 57.29453201 21.05078125 49.37890625 C22 47 22 47 23.81640625 45.98828125 C26.77475809 46.00415791 28.18936469 46.97137469 30.625 48.625 C31.40101563 49.13289062 32.17703125 49.64078125 32.9765625 50.1640625 C35.45126347 52.40944755 36.22448257 53.74282679 37 57 C36.93694171 64.32264375 33.96879656 69.61391401 30.5 75.9375 C29.96189697 76.94659424 29.42379395 77.95568848 28.86938477 78.99536133 C26.38890766 83.63894686 23.86222688 88.25569638 21.30859375 92.859375 C16.96037608 100.76158351 13.51211115 107.97947489 12 117 C18.39636016 117 22.10631805 112.83068349 27 109 C27.90105469 108.37222656 28.80210937 107.74445313 29.73046875 107.09765625 C37.22902819 101.36880221 39.02312101 95.12154551 41.59375 86.44140625 C46.16948522 71.27785675 58.68825508 57.60180235 72.2421875 49.69140625 C77.40099606 47.11200197 82.25930517 45.91250954 88 47 C90.5455141 48.1248748 92.65536187 49.46880775 95 51 C95.66 51 96.32 51 97 51 C97.33 49.35 97.66 47.7 98 46 C103.00953155 46.47709824 106.14145765 47.74167535 110 51 C112.50583463 54.99367394 113.33086744 57.69602278 112.31640625 62.234375 C111.17055498 66.92242622 109.28689637 70.8708037 106.9375 75.0625 C106.54336914 75.78928955 106.14923828 76.5160791 105.74316406 77.26489258 C103.74449207 80.93057748 101.68539554 84.55756017 99.58203125 88.1640625 C91.05468795 101.51801745 91.05468795 101.51801745 88.3828125 116.390625 C88.68832031 117.18726563 88.68832031 117.18726563 89 118 C99.42921585 112.56811675 104.93883111 106.55650325 109.5 95.6875 C109.96212891 94.63167725 110.42425781 93.57585449 110.90039062 92.48803711 C111.83617511 90.34741391 112.76402002 88.20330101 113.68359375 86.05566406 C114.88387556 83.26954999 116.11769305 80.50293522 117.375 77.7421875 C118.08336304 76.18230516 118.79169829 74.62241019 119.5 73.0625 C119.81388672 72.37309326 120.12777344 71.68368652 120.45117188 70.97338867 C123.39107671 64.38353087 126.1760538 57.70003607 126.6875 50.4375 C126.78611328 49.16712891 126.78611328 49.16712891 126.88671875 47.87109375 C126.92410156 47.25363281 126.96148438 46.63617187 127 46 C133.0689254 47.25563974 138.35096786 48.62850455 142.375 53.75 C144.22792015 60.42051255 142.67696039 65.96468631 140.125 72.125 C139.58502108 73.48140637 139.04594365 74.838172 138.5078125 76.1953125 C138.25032227 76.83500977 137.99283203 77.47470703 137.72753906 78.13378906 C136.71790164 80.72361068 135.84907249 83.35386146 135 86 C141.41363868 78.63494895 147.70100393 71.21207061 153.68798828 63.49511719 C159.62696412 55.86326572 165.82519782 48.44125425 172 41 C173.4501015 41.45005097 174.89751993 41.90875315 176.34375 42.37109375 C177.15005859 42.62560303 177.95636719 42.8801123 178.78710938 43.14233398 C182.35389816 44.5247401 184.31625491 46.63250982 186 50 C186.53712408 56.7707895 184.99801066 61.78785842 182.5625 68.0625 C182.03148682 69.47704468 182.03148682 69.47704468 181.48974609 70.92016602 C178.40586483 79.08753816 175.21335721 87.21682788 171.97094727 95.32250977 C169.4842265 101.57529854 167.08486819 107.69375215 166.375 114.4375 C166.25125 115.613125 166.1275 116.78875 166 118 C172.74880817 115.65258846 177.61709526 111.62150703 183 107 C183.639375 106.49210938 184.27875 105.98421875 184.9375 105.4609375 C187.13868792 103.56664598 188.86896397 101.9789162 189.265625 99.015625 C189.28109375 98.28859375 189.2965625 97.5615625 189.3125 96.8125 C189.653139 90.60874117 193.49268989 87.07171589 197.52148438 82.640625 C199.19431845 80.78437583 200.8250095 78.8955788 202.453125 77 C211.31791771 66.68208229 211.31791771 66.68208229 213 65 C212.13117188 64.82984375 211.26234375 64.6596875 210.3671875 64.484375 C196.42165242 61.55175689 196.42165242 61.55175689 192.125 55.25 C190.73671314 51.2393935 190.92165966 48.23037818 191 44 C191.8765625 44.08378906 192.753125 44.16757812 193.65625 44.25390625 C206.15554942 45.25740692 218.49257942 44.69085327 231 44 C231.81495363 45.5892255 232.62525635 47.18083656 233.43359375 48.7734375 C233.88532959 49.65950684 234.33706543 50.54557617 234.80249023 51.45849609 C237.10217993 56.33918309 237.54400449 59.4495872 235.75 64.5625 C232.73487732 69.97914145 228.64474431 74.732871 224.75390625 79.53515625 C222.01967649 82.92404705 219.50137275 86.43633828 217 90 C218.2065625 91.1446875 218.2065625 91.1446875 219.4375 92.3125 C222 95 222 95 223 98 C223.52319824 97.61255615 224.04639648 97.2251123 224.58544922 96.82592773 C226.13954726 95.6758268 227.69420019 94.52647547 229.24926758 93.37768555 C231.00550492 92.07998046 232.76054418 90.78065246 234.5144043 89.47973633 C238.87643916 86.25495063 243.2568606 83.13567958 247.8125 80.1875 C251.77768152 77.45289205 253.97299892 74.48395263 256.453125 70.39453125 C262.9911429 60.27381162 273.19317223 50.42581531 285 47 C292.3303275 45.93023413 296.90227799 47.93485199 303 52 C303.66 50.02 304.32 48.04 305 46 C309.95919178 46.45083562 313.39022975 48.72429589 317 52 C319.31122714 55.56314184 319.1290001 58.51902039 318.56201172 62.66577148 C317.45600597 67.25939486 315.07527776 71.26085863 312.8125 75.375 C312.10770508 76.69757813 312.10770508 76.69757813 311.38867188 78.046875 C308.99335773 82.50418536 306.48998774 86.86675178 303.84375 91.1796875 C301.36151339 95.27789846 299.43360209 99.28826205 297.6875 103.75 C297.43677734 104.37003906 297.18605469 104.99007812 296.92773438 105.62890625 C295.44906143 109.39496335 294.52265265 112.9909467 294 117 C301.98673338 117 308.09242172 109.01088991 313.54296875 103.6875 C314.95438724 102.27314309 316.36577336 100.85872482 317.76928711 99.43652344 C319.19134532 97.99610504 320.62134739 96.56395526 322.05273438 95.1328125 C326.70659296 90.44976595 331.23680677 85.73516573 335.45825195 80.65625 C337.15309432 78.83553573 338.97397992 77.43586136 341 76 C341.43338688 81.97454769 340.22224649 85.61569177 337.5 90.75 C337.1383374 91.44883301 336.7766748 92.14766602 336.40405273 92.86767578 C328.94603592 106.93044117 315.99967044 125.90782617 300 131 C295.35413719 131.76771498 292.04107921 131.4804981 287.75 129.5 C283.61403227 125.74002934 280.27953025 121.68349037 279.6875 116 C279.790625 115.34 279.89375 114.68 280 114 C279.34 114 278.68 114 278 114 C277.773125 114.556875 277.54625 115.11375 277.3125 115.6875 C275.61035232 118.6865221 273.52322238 120.64499245 271 123 C270.45988281 123.53367187 269.91976562 124.06734375 269.36328125 124.6171875 C265.43316505 128.30884722 262.62174703 130.10221358 257 130 C251.43292157 128.40940616 249.19868247 124.90661768 246.19921875 120.25390625 C243.87022619 115.87661405 243.75618656 111.66687837 243.4375 106.75 C243.31181641 104.85507812 243.31181641 104.85507812 243.18359375 102.921875 C243.12300781 101.95765625 243.06242187 100.9934375 243 100 C242.53102295 100.38333496 242.0620459 100.76666992 241.57885742 101.16162109 C239.44953377 102.90080144 237.31853763 104.63792032 235.1875 106.375 C234.44951172 106.97828125 233.71152344 107.5815625 232.95117188 108.203125 C232.23896484 108.78320312 231.52675781 109.36328125 230.79296875 109.9609375 C230.1383667 110.49509277 229.48376465 111.02924805 228.80932617 111.57958984 C227.26198226 112.79433102 225.63680796 113.90879469 224 115 C223.31800243 116.81260958 223.31800243 116.81260958 223.04296875 118.9375 C222.83341553 120.14321655 222.83341553 120.14321655 222.61962891 121.37329102 C222.47702637 122.24010498 222.33442383 123.10691895 222.1875 124 C219.05444477 141.12046123 214.0946402 162.53664658 199.140625 173.34375 C193.66507001 176.61972307 189.34489546 177.437579 183 177 C178.32962719 175.26005719 175.73837707 173.15827629 173 169 C169.85156535 161.12891336 172.97651799 152.39892752 176 145 C183.2137498 131.35030428 194.35048203 118.16217582 207.21875 109.5078125 C207.8065625 109.01023437 208.394375 108.51265625 209 108 C209 107.01 209 106.02 209 105 C207.02 104.34 205.04 103.68 203 103 C202.75894531 103.54398438 202.51789063 104.08796875 202.26953125 104.6484375 C196.54781417 115.24681806 184.73624526 127.35378788 173 131 C167.16170173 131.8190761 161.92377268 131.3343246 156.7578125 128.40625 C152.56726327 125.05381061 149.96972246 120.24041937 149 115 C148.30670065 106.26709469 149.72108655 98.41027583 152 90 C146.02719739 96.85882045 140.1291565 103.7431119 134.5625 110.9375 C132.71643672 113.29812301 130.86046587 115.6507155 129 118 C128.45633789 118.68964844 127.91267578 119.37929688 127.35253906 120.08984375 C125.6529103 122.22475506 123.92462762 124.3330415 122.1875 126.4375 C121.660354 127.1070874 121.13320801 127.7766748 120.59008789 128.46655273 C119.13855368 130.1947878 117.8232623 131.66970897 116 133 C112.47705385 133.1137846 110.79236297 132.52775467 107.8828125 130.58984375 C107.30273438 130.04457031 106.72265625 129.49929688 106.125 128.9375 C105.52945312 128.38964844 104.93390625 127.84179688 104.3203125 127.27734375 C103.88460938 126.85582031 103.44890625 126.43429687 103 126 C102.45472656 126.3609375 101.90945313 126.721875 101.34765625 127.09375 C95.88329959 130.45643102 91.4410661 132.31251913 85 131 C80.61964491 128.76849835 77.67922325 126.11452143 75 122 C74.297474 119.67721157 73.6266392 117.34440018 73 115 C72.21496094 115.83144531 71.42992187 116.66289063 70.62109375 117.51953125 C69.56044846 118.6177215 68.49921921 119.71534797 67.4375 120.8125 C66.92380859 121.35970703 66.41011719 121.90691406 65.88085938 122.47070312 C62.19437992 126.24877214 59.01676988 128.30192468 54 130 C49.90444491 130 48.20940861 129.14371179 44.8125 126.8125 C42.00421968 124.00421968 40.52337054 121.63916296 39 118 C35.58899077 119.87055345 32.63957892 122.06257123 29.625 124.5 C23.76352197 129.07504803 18.75849723 131.66334878 11.13671875 131.33984375 C6.79449797 130.64921631 4.16729705 128.54374244 1.55859375 125.09375 C-1.89009764 119.82737227 -3.14253304 115.88316195 -3.125 109.5625 C-3.12757813 108.63566406 -3.13015625 107.70882812 -3.1328125 106.75390625 C-3.00344052 104.07134019 -2.59782834 101.61431282 -2 99 C-3.98 99 -5.96 99 -8 99 C-7.7834375 100.03447266 -7.7834375 100.03447266 -7.5625 101.08984375 C-3.71468719 120.56939609 -7.6240527 140.45462333 -18.10546875 157.3984375 C-21.73244589 162.37898756 -26.73483391 167.77752857 -33 169 C-37.09172044 169.25191562 -40.53852504 169.15493678 -43.84375 166.54296875 C-50.27444571 159.30843607 -51.24706862 151.76416173 -50.73242188 142.36328125 C-50.67634766 141.45964844 -50.62027344 140.55601562 -50.5625 139.625 C-50.51029297 138.69816406 -50.45808594 137.77132812 -50.40429688 136.81640625 C-50.27544122 134.54386099 -50.14051689 132.27184901 -50 130 C-50.99 130.33 -51.98 130.66 -53 131 C-59.76342725 131.73280473 -65.47947372 131.20786781 -71 127 C-77.01877828 120.54703124 -77.32790241 114.51269788 -77.30078125 105.90625 C-76.81859044 99.64403169 -75.02225048 93.94036078 -73 88 C-73.67482422 88.85658203 -73.67482422 88.85658203 -74.36328125 89.73046875 C-78.32685961 94.72664267 -82.36569708 99.64513077 -86.5 104.5 C-89.74465345 108.31130346 -92.94825405 112.14295409 -96.0625 116.0625 C-97.00609375 117.23425781 -97.00609375 117.23425781 -97.96875 118.4296875 C-99.50463812 120.3731767 -100.99279717 122.33231757 -102.46875 124.3203125 C-103.33280504 125.44311508 -104.19738171 126.56551645 -105.0625 127.6875 C-105.83722656 128.72261719 -106.61195313 129.75773438 -107.41015625 130.82421875 C-110 133 -110 133 -113.59765625 133.046875 C-117.05188401 131.98403569 -118.25201058 131.38337821 -120.375 128.5625 C-120.85710937 127.94503906 -121.33921875 127.32757812 -121.8359375 126.69140625 C-125.03946864 122.036611 -124.84682298 117.4690651 -124 112 C-121.6209296 104.78769187 -118.39434446 97.78868893 -115 91 C-116.97887286 91.15394292 -116.97887286 91.15394292 -119 92 C-119.96885173 93.97894803 -119.96885173 93.97894803 -120.4375 96.4375 C-124.31520606 110.93764552 -133.02091941 122.36964715 -146 130 C-153.78187772 133.15816258 -162.45327335 133.25976653 -170.375 130.4375 C-177.30364323 127.24919751 -182.23906923 122.14593847 -185 115 C-185 114.01 -185 113.02 -185 112 C-188.26170604 114.7353212 -191.4634295 117.44967128 -194.4375 120.5 C-201.64569299 127.5323834 -208.75241436 131.94574279 -219 132.4375 C-226.24765698 132.15658306 -231.77593571 129.65623789 -236.8125 124.4375 C-244.82847091 114.22179753 -245.23287826 102.47429394 -244 90 C-241.87514684 76.11564018 -234.3895295 61.8960374 -223.4765625 52.92578125 C-221.03595869 51.17778122 -218.56271507 49.56199441 -216 48 C-214.5459375 47.071875 -214.5459375 47.071875 -213.0625 46.125 C-206.95427554 43.88116244 -200.60015762 42.86132319 -194.5 45.5625 C-190.8487269 47.7622424 -189.25421359 49.84541747 -188 54 C-187.78746362 57.01999374 -187.81876521 59.97942016 -188 63 C-188.59554688 62.690625 -189.19109375 62.38125 -189.8046875 62.0625 C-193.11112232 60.46223261 -195.27980785 60 -199 60 C-211.90607393 64.55508492 -218.9779004 78.11809361 -224.625 89.7109375 C-226.91349371 95.18511848 -228.28920707 100.17753765 -228.3125 106.125 C-228.33763672 107.61386719 -228.33763672 107.61386719 -228.36328125 109.1328125 C-227.94334548 112.44714425 -226.96085292 114.31873639 -225 117 C-221.96906976 118.51546512 -219.27634494 118.51572096 -216 118 C-207.78999507 115.13766835 -201.45015744 109.65128473 -195 104 C-194.28070312 103.45730469 -193.56140625 102.91460938 -192.8203125 102.35546875 C-187.41674644 97.92723516 -187.18345492 93.43357405 -186.50390625 86.6953125 C-185.11957726 76.54356657 -180.40008701 67.85780748 -174 60 C-173.47792969 59.35289062 -172.95585938 58.70578125 -172.41796875 58.0390625 C-166.00029989 50.88749963 -156.92380288 46.74449493 -147.45703125 45.7265625 C-139.38337002 45.41649575 -133.4433157 47.32112571 -127.18359375 52.50390625 C-121.13109994 58.79910658 -119.19364852 67.77381804 -117 76 C-111.02733306 74.0853173 -106.23559751 72.25496545 -103.125 66.578125 C-100.67509593 59.95881897 -99.37042976 53.03816547 -99 46 C-88.09158558 48.40354894 -88.09158558 48.40354894 -84.1875 53.25 C-81.82798443 58.71414131 -82.9206426 63.58481512 -84.98632812 68.91210938 C-85.25896484 69.58048828 -85.53160156 70.24886719 -85.8125 70.9375 C-86.07353516 71.60201172 -86.33457031 72.26652344 -86.60351562 72.95117188 C-87.12812218 74.28665178 -87.65689207 75.62050421 -88.18994141 76.95263672 C-89.50799898 80.28392991 -90.7507409 83.64238169 -92 87 C-86.88428635 81.4591984 -82.12889181 75.68746611 -77.50415039 69.73583984 C-69.8965841 59.9753362 -61.92744418 50.5010567 -54 41 C-49.42723575 42.13571923 -45.21823096 43.20377636 -41.9375 46.75 C-39.23470612 51.28371876 -39.50237855 54.9022919 -40.70703125 59.98046875 C-41.07183594 61.03878906 -41.43664063 62.09710937 -41.8125 63.1875 C-42.02116699 63.79553467 -42.22983398 64.40356934 -42.44482422 65.0300293 C-45.39673798 73.422354 -48.75898181 81.67176389 -52.07739258 89.92456055 C-55.77872998 99.18662295 -59.07676772 108.02909141 -60 118 C-52.71928348 115.36654935 -45.95608003 112.08312849 -42.48046875 104.828125 C-41.47631105 102.16162823 -40.58589935 99.45887774 -39.6796875 96.7578125 C-37.88633102 91.48362388 -35.60053846 86.48339179 -33.25 81.4375 C-32.79874756 80.46240479 -32.34749512 79.48730957 -31.88256836 78.48266602 C-30.26046541 74.98590587 -28.63100246 71.49261428 -27 68 C-24.2892381 62.19478409 -21.58366555 56.38720967 -18.88586426 50.57595825 C-17.71874598 48.06716518 -16.54461389 45.56174172 -15.37011719 43.05639648 C-8.85274028 29.07775339 -2.96872288 15.20819438 0 0 Z M82.828125 61.515625 C71.23987914 70.92488446 63.30462622 80.46202075 57 94 C56.08785359 95.79397217 55.17146635 97.58579711 54.25 99.375 C51.23711562 105.44920741 49.72493732 110.12343292 50 117 C59.96487388 114.99841626 66.26573586 103.65951897 72 96 C72.5455957 95.27603027 73.09119141 94.55206055 73.65332031 93.80615234 C86.16615192 79.17089119 86.16615192 79.17089119 91.6640625 62.14453125 C91.44492188 61.43683594 91.22578125 60.72914063 91 60 C87.55000227 58.40769335 85.77253875 59.34449163 82.828125 61.515625 Z M279.59375 69.265625 C268.34054632 81.2320599 256.30269167 99.04926636 256 116 C256.99 116.33 257.98 116.66 259 117 C274.39323503 108.39462523 291.0330599 81.79827262 298 66 C298.39711178 63.36267589 298.39711178 63.36267589 298 61 C297.34 60.34 296.68 59.68 296 59 C289.66292072 59 284.01882449 65.09915876 279.59375 69.265625 Z M-141.625 63.375 C-143.27773628 65.32823378 -144.00469508 66.40255102 -143.984375 68.98828125 C-143.51207429 73.67192992 -143.0011145 77.19089313 -140 81 C-136.5647952 83.29013653 -135.014669 83.17842973 -131 83 C-129.10449608 79.20899215 -129.55827738 74.82860173 -130.53125 70.80078125 C-131.88445558 66.82206268 -133.06438921 63.9678054 -137 62 C-139.97308574 61.67702888 -139.97308574 61.67702888 -141.625 63.375 Z M-161 74 C-166.95459656 82.2187695 -170.74270876 91.5922009 -170.35546875 101.86328125 C-169.56887312 106.59149893 -167.43919615 110.46154895 -164.1875 113.9375 C-159.63566511 116.14839123 -155.64015394 116.45739074 -150.875 114.875 C-144.24313833 112.03095163 -139.82407039 105.95293431 -136 100 C-136 99.34 -136 98.68 -136 98 C-136.72445313 97.82984375 -137.44890625 97.6596875 -138.1953125 97.484375 C-150.61483171 94.37121552 -150.61483171 94.37121552 -154.3984375 89.0234375 C-157.28836433 84.1623467 -158.89434269 79.52828655 -160 74 C-160.33 74 -160.66 74 -161 74 Z M153 87 C154 89 154 89 154 89 Z M-20 98 C-35.36373848 127.31460768 -35.36373848 127.31460768 -39.05859375 158.41015625 C-38.70925781 158.93480469 -38.35992188 159.45945312 -38 160 C-32.20478247 157.51278218 -29.56280585 152.76094475 -27.19287109 147.05761719 C-21.04482979 130.82917141 -18.46413712 115.32623326 -19 98 C-19.33 98 -19.66 98 -20 98 Z M203 134 C197.24929744 140.95581302 191.75533848 147.90897822 187.25 155.75 C186.90324219 156.34570801 186.55648438 156.94141602 186.19921875 157.55517578 C185.39596537 158.99993957 184.6878717 160.49687296 184 162 C184.33 162.66 184.66 163.32 185 164 C189.79430186 160.38700307 192.68421453 156.88907146 195.625 151.6875 C196.00962402 151.02468018 196.39424805 150.36186035 196.79052734 149.67895508 C197.87599844 147.79428336 198.94235191 145.90039558 200 144 C200.495 143.113125 200.99 142.22625 201.5 141.3125 C202.73697764 139.04412767 202.73697764 139.04412767 204 136 C203.67 135.34 203.34 134.68 203 134 Z " fill="#23A753" transform="translate(1795,587)"/>
<path d="M0 0 C8.25 0 16.5 0 25 0 C28.85636194 3.87557969 30.0997554 5.31861567 32.03344727 9.95666504 C33.99641915 14.10647387 36.80435802 17.76698785 39.421875 21.5234375 C40.629065 23.30542307 41.83343484 25.089322 43.03515625 26.875 C44.86990776 29.59172316 46.70490757 32.30827747 48.54052734 35.02441406 C59.76545767 51.63595891 70.87865013 68.3179752 82 85 C82.33 56.95 82.66 28.9 83 0 C91.91 0 100.82 0 110 0 C110 44.55 110 89.1 110 135 C85 135 85 135 78.546875 129.07421875 C77.06430054 126.98764038 77.06430054 126.98764038 76.09521484 125.09130859 C75.71371277 124.3757782 75.33221069 123.6602478 74.93914795 122.92303467 C74.54672913 122.18530823 74.1543103 121.44758179 73.75 120.6875 C72.8544837 119.17458548 71.94873475 117.66768859 71.03369141 116.16650391 C69.05613192 112.90973479 67.12190764 109.63177188 65.20605469 106.33837891 C60.003813 97.53145524 54.11123321 89.16626075 48.33068848 80.73355103 C45.20682892 76.16753142 42.11396894 71.58080264 39.0234375 66.9921875 C38.48796295 66.20071823 37.9524884 65.40924896 37.40078735 64.59379578 C36.89389374 63.8420961 36.38700012 63.09039642 35.86474609 62.31591797 C35.43003998 61.67234344 34.99533386 61.02876892 34.54745483 60.36569214 C32.31029668 56.94560688 30.16599484 53.46559175 28 50 C27.67 78.05 27.34 106.1 27 135 C18.09 135 9.18 135 0 135 C0 90.45 0 45.9 0 0 Z " fill="#212021" transform="translate(1249,424)"/>
<path d="M0 0 C8.58 0 17.16 0 26 0 C34.89922496 9.21908878 34.89922496 9.21908878 37.22973633 13.62011719 C38.01545517 15.05840881 38.01545517 15.05840881 38.81704712 16.52575684 C39.35179657 17.50725708 39.88654602 18.48875732 40.4375 19.5 C41.61444592 21.48943652 42.80172214 23.4727946 43.9987793 25.45019531 C46.46763329 29.5419371 48.89275353 33.65534435 51.29394531 37.78710938 C57.15681763 47.75520099 63.77363858 57.21894147 70.3125 66.75 C74.169375 72.4425 78.02625 78.135 82 84 C82.33 56.28 82.66 28.56 83 0 C91.91 0 100.82 0 110 0 C110 44.55 110 89.1 110 135 C86 135 86 135 81.3984375 130.86328125 C80.57746013 129.26055498 79.76293748 127.65329017 79.01501465 126.01519775 C76.84083112 121.69860018 73.92925841 117.79054603 71.2265625 113.79296875 C69.97308039 111.88965848 68.72314186 109.98401026 67.4765625 108.07617188 C66.84266602 107.10736084 66.20876953 106.1385498 65.55566406 105.14038086 C64.27208709 103.17719631 62.98855818 101.21398033 61.70507812 99.25073242 C52.94807977 85.82061707 52.94807977 85.82061707 43.7734375 72.67578125 C38.25771929 64.96190038 33.15164661 56.96163567 28 49 C27.67 77.38 27.34 105.76 27 135 C18.09 135 9.18 135 0 135 C0 90.45 0 45.9 0 0 Z " fill="#212021" transform="translate(1753,424)"/>
<path d="M0 0 C8.58 0 17.16 0 26 0 C35.13679232 9.57500778 35.13679232 9.57500778 37.53295898 14.07495117 C38.06927948 15.05257416 38.60559998 16.03019714 39.15817261 17.03744507 C39.97706467 18.53484726 39.97706467 18.53484726 40.8125 20.0625 C42.00977468 22.08179331 43.21700886 24.09521272 44.43383789 26.1027832 C46.86462493 30.13057504 49.25031257 34.17992797 51.60449219 38.25292969 C55.92293141 45.65531014 60.7062861 52.71024746 65.59164429 59.74630737 C67.30737252 62.22098497 69.00169496 64.70984252 70.69406128 67.20053101 C71.74398852 68.74565365 72.79747589 70.2883556 73.85131836 71.83081055 C76.59086525 75.87149435 79.29204916 79.93807374 82 84 C82.33 56.28 82.66 28.56 83 0 C91.91 0 100.82 0 110 0 C110 44.55 110 89.1 110 135 C86 135 86 135 81.35546875 130.796875 C80.5360801 129.19839132 79.72262273 127.59550753 78.97943115 125.96020508 C76.9337538 121.8660458 74.17693626 118.17259043 71.61328125 114.390625 C70.40989157 112.5648151 69.21010076 110.73662877 68.01367188 108.90625 C67.40193115 107.97167969 66.79019043 107.03710938 66.15991211 106.07421875 C65.24544312 104.67623047 65.24544312 104.67623047 64.3125 103.25 C52.39487401 85.0355594 40.21059044 67.02515732 28 49 C27.67 77.38 27.34 105.76 27 135 C18.09 135 9.18 135 0 135 C0 90.45 0 45.9 0 0 Z " fill="#212021" transform="translate(2021,424)"/>
<path d="M0 0 C14.34802684 11.90626926 22.76769484 26.73971231 25.59375 45.15234375 C27.40939483 66.38188013 23.58973474 85.76899409 10.40625 102.96484375 C-1.03872009 116.13333725 -17.27101013 124.99772239 -34.76806641 126.33251953 C-56.23085665 127.47289631 -74.15831543 122.98347854 -90.8359375 108.6640625 C-98.30909262 101.36126806 -103.85291065 92.9632182 -107.40625 83.15234375 C-107.798125 82.09144531 -108.19 81.03054688 -108.59375 79.9375 C-114.69400061 60.76830973 -112.57479278 40.04625294 -104.34375 21.90234375 C-96.1400461 6.49624456 -81.94798135 -5.26237963 -65.44140625 -10.8515625 C-43.0270529 -17.21613197 -18.7010458 -14.42882413 0 0 Z M-76.578125 28.58203125 C-84.13431006 39.20589828 -85.48293373 51.4817612 -84.40625 64.15234375 C-82.23121236 76.06264023 -76.7043249 86.62031857 -66.74609375 93.71875 C-55.8541477 100.3921126 -43.55018582 102.20919645 -31.0546875 99.3984375 C-20.38427137 95.65056407 -12.31038853 88.7708991 -6.40625 79.15234375 C-0.03056432 64.76669853 0.23745214 50.79353291 -5.1796875 36.046875 C-9.01168298 27.24031657 -16.62169927 19.09577346 -25.40625 15.15234375 C-44.91380054 7.51085102 -63.27504656 13.1316055 -76.578125 28.58203125 Z " fill="#212021" transform="translate(2395.40625,434.84765625)"/>
<path d="M0 0 C66.91103792 0 66.91103792 0 81.375 7.6875 C82.36294556 8.20014404 82.36294556 8.20014404 83.37084961 8.72314453 C97.66563877 16.45469696 107.00764269 29.3637644 111.8605957 44.72387695 C113.84340095 52.17081238 114.51035333 59.1193027 114.4375 66.8125 C114.42920166 67.95033936 114.42090332 69.08817871 114.41235352 70.26049805 C114.05351473 88.18583604 108.31462306 103.43265326 95.7265625 116.49609375 C69.62565584 140.46555102 33.28265709 135 0 135 C0 90.45 0 45.9 0 0 Z M27 25 C27 53.05 27 81.1 27 110 C54.35071684 110.30100037 54.35071684 110.30100037 77 97 C86.63892832 85.10918232 87.92218941 72.79943224 87 58 C85.61561629 48.83725697 80.99779481 40.14896957 73.875 34.1875 C59.02903891 23.54370078 45.62122255 25 27 25 Z " fill="#212021" transform="translate(2155,424)"/>
<path d="M0 0 C72.68181818 0 72.68181818 0 87 14 C95.596082 24.83666478 98.79215972 36.17853237 97.78125 49.98828125 C96.10238811 61.4013135 90.78935937 69.64041655 82 77 C77.45657016 80 77.45657016 80 75 80 C79.5690234 88.21319916 84.35145708 96.26785604 89.3125 104.25 C89.86276855 105.13558594 90.41303711 106.02117187 90.97998047 106.93359375 C92.65251373 109.62289862 94.32622205 112.31146968 96 115 C98.11089979 118.39171928 100.21472672 121.78764863 102.3125 125.1875 C103.02369995 126.32783691 103.02369995 126.32783691 103.74926758 127.49121094 C107 132.77189801 107 132.77189801 107 135 C96.77 135 86.54 135 76 135 C68.6875 122.1875 68.6875 122.1875 66.30151367 118.00512695 C63.05376769 112.31641235 59.7970396 106.63401649 56.48828125 100.98046875 C55.72221558 99.67009644 55.72221558 99.67009644 54.94067383 98.33325195 C53.99763348 96.72412243 53.05099127 95.11709708 52.1003418 93.51245117 C49 88.2195226 49 88.2195226 49 86 C41.74 86 34.48 86 27 86 C27 102.17 27 118.34 27 135 C18.09 135 9.18 135 0 135 C0 90.45 0 45.9 0 0 Z M27 25 C27 37.54 27 50.08 27 63 C30.939375 63.061875 34.87875 63.12375 38.9375 63.1875 C40.16073975 63.21481201 41.38397949 63.24212402 42.64428711 63.27026367 C50.6148407 63.33042612 57.81523072 62.62476402 64.375 57.75 C68.41853162 53.51391925 69.79438854 49.8505031 70.4375 44.0625 C70.20216715 38.78285856 68.13326948 34.36697035 64.609375 30.45703125 C59.47633452 25.85080282 54.23417507 24.7406269 47.5078125 24.8046875 C45.88576904 24.81218018 45.88576904 24.81218018 44.23095703 24.81982422 C42.1985083 24.84713623 42.1985083 24.84713623 40.125 24.875 C35.79375 24.91625 31.4625 24.9575 27 25 Z " fill="#212021" transform="translate(1632,424)"/>
<path d="M0 0 C6.51178057 6.20462111 10.72781837 12.17688164 11.02929688 21.34936523 C11.15581916 29.78263375 10.00303474 36.29491457 6.78125 44.08984375 C5.5607428 46.57891934 5.5607428 46.57891934 5.6875 48.75 C6.27015625 48.16992188 6.8528125 47.58984375 7.453125 46.9921875 C14.43750222 40.33726203 22.47544532 33.59437279 32.5625 33.1875 C37.75129438 33.57289958 41.43184834 35.91289889 45.6875 38.75 C46.6775 35.78 46.6775 35.78 47.6875 32.75 C53.17624602 33.39573483 56.98311343 35.82569258 60.625 39.9375 C62.78132456 45.64541795 61.4713853 49.93217991 59.14453125 55.328125 C55.77060699 62.35238084 51.93168592 69.1156482 48.0625 75.875 C40.03408379 89.48936415 40.03408379 89.48936415 37.6875 104.75 C48.31731334 99.84607186 56.21541869 90.38268676 64.375 82.1875 C65.72174805 80.84655273 65.72174805 80.84655273 67.09570312 79.47851562 C71.6942587 74.87322224 76.14294912 70.22071222 80.32348633 65.23071289 C81.6875 63.75 81.6875 63.75 83.6875 62.75 C84.08330326 68.43050981 82.92536794 72.36399799 80.3125 77.3125 C79.95381836 78.00504883 79.59513672 78.69759766 79.22558594 79.41113281 C71.39419929 94.11427605 59.18709179 112.25013607 42.6875 117.75 C38.05227214 118.28856933 34.60843654 118.20178019 30.375 116.125 C25.64251674 111.94280549 23.5703843 107.6794339 21.6875 101.75 C21.10742188 102.42546875 20.52734375 103.1009375 19.9296875 103.796875 C10.41052919 114.66693696 10.41052919 114.66693696 3.25 116.75 C-1.28948216 116.75 -3.84612842 115.62139735 -7.3125 112.75 C-13.78471711 104.70345981 -14.36706153 95.7393099 -13.3125 85.75 C-12.08800476 79.19020406 -9.85203039 72.90435742 -7.3125 66.75 C-13.62217458 73.72850458 -13.62217458 73.72850458 -19.8125 80.8125 C-36.72564973 100.18645443 -65.07833616 126.94755973 -92.26074219 128.88916016 C-94.54983585 128.99246963 -96.83380653 129.03412023 -99.125 129.0625 C-99.89392578 129.09150391 -100.66285156 129.12050781 -101.45507812 129.15039062 C-108.67035248 129.22954553 -113.75006947 127.02771603 -119.125 122.25 C-124.0653425 116.60389429 -125.55015241 113.12633783 -125.48046875 105.65625 C-125.27602584 103.33606071 -124.60164803 101.68372204 -123.3125 99.75 C-122.6525 99.75 -121.9925 99.75 -121.3125 99.75 C-121.14234375 100.34167969 -120.9721875 100.93335938 -120.796875 101.54296875 C-118.93275697 107.62118339 -117.09081082 111.78485332 -111.75 115.5625 C-101.99731019 118.93161102 -93.40561918 116.12903188 -84.40722656 111.8203125 C-77.43266721 108.25662157 -70.84238828 104.06210077 -64.3125 99.75 C-63.26449219 99.06421875 -62.21648437 98.3784375 -61.13671875 97.671875 C-47.43255468 88.04294645 -35.4392686 75.02160495 -25.3125 61.75 C-24.508125 60.75097656 -23.70375 59.75195312 -22.875 58.72265625 C-12.43679851 45.6818898 0.03794122 29.47948577 -1.6875 11.9375 C-3.39005092 8.59788089 -3.67452643 8.14508844 -6.9375 6.8125 C-32.23137626 0.44900898 -62.57690379 12.43194709 -84.13671875 25.1328125 C-94.3319462 31.38127416 -106.80741853 39.23701402 -111.3125 50.75 C-112.01157414 53.48572585 -112.01157414 53.48572585 -112.3125 55.75 C-117.27679611 54.50892597 -119.45121828 52.98893588 -122.3125 48.75 C-123.94363351 45.48773299 -123.83752244 42.27515065 -123.3125 38.75 C-118.40532962 26.23170822 -105.40158282 18.24102479 -94.3125 11.75 C-92.65347656 10.74839844 -92.65347656 10.74839844 -90.9609375 9.7265625 C-75.6226178 0.96675464 -57.81172415 -5.65396125 -40.3125 -8.25 C-39.4771875 -8.38921875 -38.641875 -8.5284375 -37.78125 -8.671875 C-23.94640018 -10.55844543 -10.79500058 -9.2075005 0 0 Z M31.75 48.5 C31.10160156 49.01046875 30.45320313 49.5209375 29.78515625 50.046875 C29.09292969 50.60890625 28.40070313 51.1709375 27.6875 51.75 C26.86765625 52.37519531 26.0478125 53.00039063 25.203125 53.64453125 C11.385234 65.20950524 0.40985881 84.75432005 -1.3125 102.75 C-0.3225 103.08 0.6675 103.41 1.6875 103.75 C16.57259079 94.84644685 28.81702733 73.59582759 37.5625 59.0625 C38.51769531 57.47888672 38.51769531 57.47888672 39.4921875 55.86328125 C40.94852206 52.07014842 40.56449168 49.66690103 39.6875 45.75 C35.40761146 45.75 34.88806211 45.98955031 31.75 48.5 Z M2.6875 50.75 C2.6875 53.75 2.6875 53.75 2.6875 53.75 Z " fill="#23A753" transform="translate(1403.3125,600.25)"/>
<path d="M0 0 C1.39120471 0.00015906 2.78241534 0.00585033 4.17358398 0.01586914 C4.90463852 0.01728409 5.63569305 0.01869904 6.38890076 0.02015686 C8.73253406 0.02577131 11.07607313 0.03832617 13.41967773 0.05102539 C15.00496282 0.05603853 16.59024939 0.06060176 18.17553711 0.06469727 C22.06945383 0.07574542 25.96329979 0.09301967 29.85717773 0.11352539 C35.18189804 13.48633745 40.09338298 26.98954937 44.90652466 40.55395508 C46.86400588 46.07014483 48.82871591 51.58375755 50.7929821 57.09753418 C51.46771439 58.99178663 52.14214569 60.88614605 52.81654358 62.78051758 C57.48887151 75.90184782 62.20045854 89.00899755 66.91967773 102.11352539 C67.30257965 103.17764648 67.68548157 104.24176758 68.07998657 105.33813477 C69.16264058 108.34682506 70.24607331 111.35523357 71.32983398 114.36352539 C71.64458679 115.2381543 71.9593396 116.1127832 72.28363037 117.01391602 C72.57997375 117.83569336 72.87631714 118.6574707 73.18164062 119.50415039 C73.46081329 120.27952148 73.73998596 121.05489258 74.02761841 121.85375977 C74.84952288 124.09267314 75.71256324 126.31288484 76.57763672 128.53540039 C77.85717773 132.11352539 77.85717773 132.11352539 77.85717773 135.11352539 C68.28717773 135.11352539 58.71717773 135.11352539 48.85717773 135.11352539 C47.53717773 131.21540039 46.21717773 127.31727539 44.85717773 123.30102539 C44.43952148 122.07536865 44.02186523 120.84971191 43.59155273 119.58691406 C43.26670898 118.61987549 42.94186523 117.65283691 42.60717773 116.65649414 C42.10444336 115.17185669 42.10444336 115.17185669 41.59155273 113.65722656 C40.85717773 111.11352539 40.85717773 111.11352539 40.85717773 108.11352539 C22.70717773 108.11352539 4.55717773 108.11352539 -14.14282227 108.11352539 C-15.13282227 111.74352539 -16.12282227 115.37352539 -17.14282227 119.11352539 C-17.99414932 121.8348194 -18.85656669 124.53850888 -19.76782227 127.23852539 C-19.98438477 127.89594727 -20.20094727 128.55336914 -20.42407227 129.23071289 C-22.0159298 133.98663292 -22.0159298 133.98663292 -23.14282227 135.11352539 C-25.21544303 135.20119651 -27.29102521 135.22048412 -29.36547852 135.21118164 C-30.62553711 135.20795898 -31.8855957 135.20473633 -33.18383789 135.20141602 C-34.52433335 135.19305942 -35.86482814 135.18459446 -37.20532227 135.17602539 C-38.54972168 135.17101199 -39.89412286 135.16644881 -41.23852539 135.16235352 C-44.54000167 135.15052027 -47.8413903 135.1340351 -51.14282227 135.11352539 C-50.47028148 129.76706805 -48.83990105 125.00280479 -47.02954102 119.96118164 C-46.7079451 119.05360107 -46.38634918 118.14602051 -46.05500793 117.2109375 C-44.9853066 114.19742453 -43.9080116 111.18669009 -42.83032227 108.17602539 C-42.07359581 106.05102093 -41.31708974 103.92593798 -40.56079102 101.80078125 C-33.85252121 82.98231911 -27.0321722 64.20417939 -20.18457031 45.43603516 C-19.78803757 44.3491893 -19.39150482 43.26234344 -18.98295593 42.14256287 C-18.20171037 40.00192366 -17.42007193 37.86142779 -16.63801575 35.72108459 C-14.60185592 30.14199537 -12.58228067 24.55745975 -10.58422852 18.96459961 C-10.16959351 17.80536484 -9.7549585 16.64613007 -9.32775879 15.45176697 C-8.53171962 13.22329875 -7.73808572 10.99396951 -6.94714355 8.76368713 C-6.59341675 7.7736821 -6.23968994 6.78367706 -5.87524414 5.76367188 C-5.40822083 4.44930397 -5.40822083 4.44930397 -4.9317627 3.10838318 C-3.67588679 -0.06713392 -3.64201505 0.13155729 0 0 Z M12.85717773 29.11352539 C4.86282023 51.54077293 4.86282023 51.54077293 -2.89282227 74.05102539 C-3.13210449 74.75146973 -3.37138672 75.45191406 -3.61791992 76.17358398 C-4.54707038 78.96389649 -5.14282227 81.14738644 -5.14282227 84.11352539 C7.06717773 84.11352539 19.27717773 84.11352539 31.85717773 84.11352539 C29.85197035 76.76109832 27.7627051 69.5981613 25.28295898 62.41430664 C24.95426315 61.45324509 24.62556732 60.49218353 24.28691101 59.5019989 C23.25102354 56.47556987 22.21044079 53.45078075 21.16967773 50.42602539 C20.46038022 48.35647123 19.75139307 46.28681067 19.04272461 44.21704102 C17.31778971 39.18130203 15.58901193 34.14689554 13.85717773 29.11352539 C13.52717773 29.11352539 13.19717773 29.11352539 12.85717773 29.11352539 Z " fill="#212021" transform="translate(1929.142822265625,423.886474609375)"/>
<path d="M0 0 C1.39120471 0.00015906 2.78241534 0.00585033 4.17358398 0.01586914 C4.90463852 0.01728409 5.63569305 0.01869904 6.38890076 0.02015686 C8.73253406 0.02577131 11.07607313 0.03832617 13.41967773 0.05102539 C15.00496282 0.05603853 16.59024939 0.06060176 18.17553711 0.06469727 C22.06945383 0.07574542 25.96329979 0.09301967 29.85717773 0.11352539 C33.18833774 7.92106781 36.26221818 15.77400004 39.08764648 23.77758789 C39.47595642 24.8687793 39.86426636 25.9599707 40.26434326 27.08422852 C41.09598709 29.42221419 41.92620272 31.76070831 42.75509644 34.09967041 C44.73868582 39.69683139 46.73080122 45.29095693 48.72224617 50.88532639 C49.40645642 52.80777913 50.09027235 54.73037179 50.77403259 56.65298462 C55.41318603 69.69387706 60.09996998 82.71753876 64.79467773 95.73852539 C65.54037299 97.8070445 66.28606007 99.87556655 67.03173828 101.9440918 C67.38472488 102.92308441 67.73771149 103.90207703 68.10139465 104.91073608 C68.77725502 106.78619943 69.45256034 108.66186292 70.12724304 110.53775024 C71.56325731 114.53019992 73.00384997 118.52059538 74.46704102 122.50317383 C74.7058046 123.15780609 74.94456818 123.81243835 75.19056702 124.48690796 C75.80617615 126.17398772 76.42630528 127.85941635 77.046875 129.54467773 C77.85717773 132.11352539 77.85717773 132.11352539 77.85717773 135.11352539 C68.61717773 135.11352539 59.37717773 135.11352539 49.85717773 135.11352539 C45.20200532 123.47559436 45.20200532 123.47559436 43.10717773 117.67602539 C42.67920898 116.50168945 42.25124023 115.32735352 41.81030273 114.11743164 C40.85717773 111.11352539 40.85717773 111.11352539 40.85717773 108.11352539 C22.70717773 108.11352539 4.55717773 108.11352539 -14.14282227 108.11352539 C-14.80282227 111.08352539 -15.46282227 114.05352539 -16.14282227 117.11352539 C-16.5976704 118.64552268 -17.07945157 120.17050965 -17.61547852 121.67602539 C-17.87522461 122.40950195 -18.1349707 123.14297852 -18.40258789 123.89868164 C-18.66749023 124.62958008 -18.93239258 125.36047852 -19.20532227 126.11352539 C-19.4740918 126.87536133 -19.74286133 127.63719727 -20.01977539 128.42211914 C-22.0043969 133.97510003 -22.0043969 133.97510003 -23.14282227 135.11352539 C-25.21544303 135.20119651 -27.29102521 135.22048412 -29.36547852 135.21118164 C-30.62553711 135.20795898 -31.8855957 135.20473633 -33.18383789 135.20141602 C-34.52433335 135.19305942 -35.86482814 135.18459446 -37.20532227 135.17602539 C-38.54972168 135.17101199 -39.89412286 135.16644881 -41.23852539 135.16235352 C-44.54000167 135.15052027 -47.8413903 135.1340351 -51.14282227 135.11352539 C-49.81160905 128.51694791 -47.96042967 122.3664441 -45.64282227 116.05493164 C-45.29493149 115.09344208 -44.94704071 114.13195251 -44.58860779 113.1413269 C-43.44508967 109.98435843 -42.29392934 106.83023375 -41.14282227 103.67602539 C-40.33763298 101.45691724 -39.53303667 99.23759385 -38.72900391 97.01806641 C-37.05167971 92.38922327 -35.37178461 87.76132495 -33.69018555 83.1340332 C-30.01064646 73.0019996 -26.36489902 62.857816 -22.71777344 52.71408081 C-21.61983117 49.66089282 -20.52116311 46.60796735 -19.42211914 43.55517578 C-19.07404205 42.58827316 -18.72596497 41.62137054 -18.36734009 40.62516785 C-17.6803086 38.71734571 -16.99295763 36.80963859 -16.30526733 34.90205383 C-14.41171726 29.64770154 -12.52693484 24.39035227 -10.65112305 19.12963867 C-10.23838638 17.97512711 -9.82564972 16.82061554 -9.40040588 15.63111877 C-8.59841549 13.3874217 -7.79864634 11.14292916 -7.00132751 8.89756775 C-6.46240623 7.39197044 -6.46240623 7.39197044 -5.91259766 5.85595703 C-5.59448624 4.9630043 -5.27637482 4.07005157 -4.94862366 3.15003967 C-3.68014028 -0.05581792 -3.66965408 0.13255567 0 0 Z M12.85717773 28.11352539 C12.45402344 29.3282251 12.05086914 30.5429248 11.63549805 31.79443359 C10.12372053 36.34801567 8.60988391 40.90091106 7.09545898 45.45361328 C6.44321382 47.41534375 5.79150974 49.37725421 5.14038086 51.33935547 C4.19848315 54.17732793 3.25494628 57.01474703 2.31030273 59.85180664 C2.0067688 60.76398956 1.70323486 61.67617249 1.39050293 62.61599731 C-0.4698551 68.17992614 -2.40534084 73.70429717 -4.52270508 79.17675781 C-5.29528854 81.25077555 -5.29528854 81.25077555 -5.14282227 84.11352539 C7.06717773 84.11352539 19.27717773 84.11352539 31.85717773 84.11352539 C30.26956078 76.81331136 30.26956078 76.81331136 28.16137695 69.77734375 C27.6811055 68.36690041 27.6811055 68.36690041 27.19113159 66.92796326 C26.85147369 65.9463472 26.5118158 64.96473114 26.16186523 63.95336914 C25.80955841 62.92288956 25.45725159 61.89240997 25.0942688 60.83070374 C23.97807433 57.56924707 22.85524016 54.31012267 21.73217773 51.05102539 C20.9700176 48.82786937 20.2082944 46.6045635 19.44702148 44.38110352 C17.58878996 38.95683425 15.72511508 33.53445944 13.85717773 28.11352539 C13.52717773 28.11352539 13.19717773 28.11352539 12.85717773 28.11352539 Z " fill="#212021" transform="translate(1156.142822265625,423.886474609375)"/>
<path d="M0 0 C7.96920319 6.48974114 13.0796095 13.85477916 15 24 C11.0639449 25.00574701 7.12593326 26.00361005 3.1875 27 C2.06794922 27.28617187 0.94839844 27.57234375 -0.20507812 27.8671875 C-1.27822266 28.13789063 -2.35136719 28.40859375 -3.45703125 28.6875 C-4.44678955 28.93886719 -5.43654785 29.19023437 -6.45629883 29.44921875 C-9 30 -9 30 -12 30 C-12.495 28.783125 -12.99 27.56625 -13.5 26.3125 C-15.88539015 21.5076427 -19.18276367 19.19221888 -24 17 C-31.25028685 14.74242565 -38.35166716 15.39386657 -45.0859375 18.80859375 C-49.42016319 21.50642811 -50.74883172 23.96183778 -51.9375 28.875 C-52.27312097 33.21351501 -51.18572929 36.21140256 -49 40 C-42.563399 47.04003234 -31.5234486 48.40284898 -22.625 50.4375 C-8.80664156 53.61597759 7.53699346 57.41672521 15.81640625 69.96484375 C21.41177888 79.58593003 21.70080272 91.76867776 18.875 102.5 C15.09659541 112.85107118 7.91696095 120.51969388 -1.6875 125.75 C-17.64115673 133.05205134 -38.38896731 133.58987019 -55 128 C-67.63151745 122.88788694 -78.35442586 115.86384394 -84 103 C-84.39492983 101.01124623 -84.74348687 99.01129613 -85 97 C-81.25512292 95.79590683 -77.50342524 94.61464949 -73.75 93.4375 C-72.68652344 93.09525391 -71.62304688 92.75300781 -70.52734375 92.40039062 C-68.99013672 91.92182617 -68.99013672 91.92182617 -67.421875 91.43359375 C-66.47924805 91.13509521 -65.53662109 90.83659668 -64.56542969 90.52905273 C-61.90542236 89.98049584 -60.50298782 89.99943836 -58 91 C-56.796875 92.671875 -56.796875 92.671875 -55.75 94.75 C-51.97619914 101.22932578 -46.08582483 104.06750232 -39 106 C-36.22381344 106.31850387 -33.48038623 106.38120986 -30.6875 106.375 C-29.56081909 106.37258301 -29.56081909 106.37258301 -28.41137695 106.37011719 C-21.2131072 106.21114273 -16.08405884 104.54434855 -10.5 99.9375 C-7.87755722 96.55017808 -7.64183904 93.20257377 -7.734375 88.9921875 C-8.18608926 85.60433056 -9.45565832 84.23405611 -12 82 C-20.16316628 77.41368024 -29.40278479 75.80326037 -38.43164062 73.73242188 C-52.52337972 70.38016821 -66.67351263 65.6621731 -75 53 C-80.47046136 43.18035196 -80.37549824 31.30886049 -78.33984375 20.4921875 C-75.46976666 10.77616896 -70.02053147 3.55589993 -61.37890625 -1.72265625 C-42.56055453 -11.82709141 -17.88878055 -12.62413173 0 0 Z " fill="#212021" transform="translate(1078,430)"/>
<path d="M0 0 C25.74 0 51.48 0 78 0 C78 8.25 78 16.5 78 25 C61.17 25 44.34 25 27 25 C27 34.57 27 44.14 27 54 C42.51 54 58.02 54 74 54 C74 62.25 74 70.5 74 79 C58.49 79 42.98 79 27 79 C27 89.23 27 99.46 27 110 C44.49 110 61.98 110 80 110 C80 118.25 80 126.5 80 135 C53.6 135 27.2 135 0 135 C0 90.45 0 45.9 0 0 Z " fill="#212021" transform="translate(1532,424)"/>
<path d="M0 0 C26.4 0 52.8 0 80 0 C80 8.25 80 16.5 80 25 C62.51 25 45.02 25 27 25 C27 35.56 27 46.12 27 57 C42.51 57 58.02 57 74 57 C74 65.25 74 73.5 74 82 C58.49 82 42.98 82 27 82 C27 99.49 27 116.98 27 135 C18.09 135 9.18 135 0 135 C0 90.45 0 45.9 0 0 Z " fill="#212021" transform="translate(1432,424)"/>
<path d="M0 0 C8 0 8 0 10.0390625 1.66796875 C10.56242188 2.49941406 11.08578125 3.33085937 11.625 4.1875 C12.28371094 5.19167969 12.94242188 6.19585937 13.62109375 7.23046875 C14.17385986 8.110979 14.17385986 8.110979 14.73779297 9.00927734 C16.17593434 11.27747943 17.66397525 13.50794108 19.16015625 15.73828125 C21.55130471 19.30313163 23.93443944 22.87302546 26.30859375 26.44921875 C29.94097567 31.91370199 33.57866053 37.37409218 37.25 42.8125 C37.79873779 43.63685547 38.34747559 44.46121094 38.9128418 45.31054688 C39.67528198 46.43493164 39.67528198 46.43493164 40.453125 47.58203125 C40.89817383 48.24436768 41.34322266 48.9067041 41.80175781 49.58911133 C42.19717773 50.05470459 42.59259766 50.52029785 43 51 C43.66 51 44.32 51 45 51 C46.55096442 48.92669306 47.96808625 46.85728694 49.3671875 44.68359375 C49.80521698 44.01549179 50.24324646 43.34738983 50.69454956 42.65904236 C53.64571905 38.14173403 56.54020378 33.5884034 59.43341064 29.03384399 C61.46557863 25.84333779 63.51558382 22.66451032 65.56884766 19.48754883 C66.61955197 17.85017105 67.66036057 16.20640689 68.69189453 14.55688477 C70.20896494 12.13616395 71.76031849 9.74087085 73.3203125 7.34765625 C73.99877731 6.23705589 73.99877731 6.23705589 74.69094849 5.10401917 C75.13856537 4.43168747 75.58618225 3.75935577 76.04736328 3.06665039 C76.42579376 2.47235733 76.80422424 1.87806427 77.19412231 1.26576233 C79 0 79 0 87 0 C87 28.71 87 57.42 87 87 C84.69 87 82.38 87 80 87 C79.67 63.9 79.34 40.8 79 17 C72.73 26.24 66.46 35.48 60 45 C46.42808954 64.91288502 46.42808954 64.91288502 43.72412109 65.46313477 C41 65 41 65 38.73291016 62.33178711 C37.94260183 61.09539858 37.17089547 59.84700233 36.4140625 58.58984375 C35.53747897 57.20512613 34.66017121 55.82086676 33.78222656 54.43701172 C33.32803345 53.7085907 32.87384033 52.98016968 32.40588379 52.22967529 C30.08119193 48.54280727 27.64123414 44.93414733 25.2109375 41.31640625 C24.33325023 40.00111353 23.45615009 38.68542885 22.57958984 37.36938477 C21.5220752 35.78311279 20.46456055 34.19684082 19.375 32.5625 C14.239375 24.8590625 14.239375 24.8590625 9 17 C8.67 40.1 8.34 63.2 8 87 C5.36 87 2.72 87 0 87 C0 58.29 0 29.58 0 0 Z " fill="#212021" transform="translate(995,307)"/>
<path d="M0 0 C8 0 8 0 10.80078125 2.71875 C11.66549399 3.96047951 12.50128844 5.2226762 13.3125 6.5 C13.77487061 7.17780518 14.23724121 7.85561035 14.71362305 8.55395508 C15.68379965 9.98089785 16.64240193 11.41577205 17.58984375 12.85791016 C19.34380912 15.52226129 21.15991844 18.14029675 22.97851562 20.76074219 C24.34856694 22.73959376 25.7064321 24.72638794 27.0625 26.71484375 C31.30764435 32.92495784 35.63785576 39.07566011 39.95703125 45.234375 C45.97680556 53.81909662 51.98724997 62.4103571 58 71 C58.33 47.57 58.66 24.14 59 0 C61.64 0 64.28 0 67 0 C67 28.71 67 57.42 67 87 C59 87 59 87 56.375 84.52734375 C55.55598639 83.34927784 54.7662441 82.15055093 54 80.9375 C53.55052002 80.2777417 53.10104004 79.6179834 52.63793945 78.93823242 C51.6303377 77.45719748 50.63397276 75.96847614 49.64697266 74.47363281 C47.23493274 70.85092477 44.72822606 67.29626411 42.23071289 63.73217773 C40.16807805 60.78474673 38.11764975 57.82916734 36.0703125 54.87109375 C31.72209912 48.59275332 27.34238001 42.3367831 22.95581055 36.08520508 C18.27545306 29.40922837 13.64121538 22.70397777 9 16 C8.67 39.43 8.34 62.86 8 87 C5.36 87 2.72 87 0 87 C0 58.29 0 29.58 0 0 Z " fill="#212021" transform="translate(1231,307)"/>
<path d="M0 0 C45.56431535 0 45.56431535 0 57.96484375 11.8828125 C66.70641384 21.30818405 70.69685898 33.36144201 70.2890625 46.20703125 C68.92371444 59.39924558 64.09296604 70.24328581 54 79 C36.63894655 90.31506409 22.5268388 87 0 87 C0 58.29 0 29.58 0 0 Z M8 8 C8 31.76 8 55.52 8 80 C32.8777689 80.85683787 32.8777689 80.85683787 52.74609375 69.37109375 C60.60265848 60.9267561 62.5011338 51.09072202 62.2734375 39.89453125 C61.61486762 30.5146146 57.72995222 22.56393822 51 16 C37.07956878 5.71961815 27.16104608 8 8 8 Z " fill="#212021" transform="translate(2093,307)"/>
<path d="M0 0 C44.35344828 0 44.35344828 0 56.9296875 11.8125 C66.28276111 21.76770281 69.53883101 33.49040059 69.24609375 46.921875 C68.31016526 58.62840911 63.87899079 69.19410286 55.2578125 77.33203125 C37.93340391 90.13051303 22.73299494 87 0 87 C0 58.29 0 29.58 0 0 Z M7 8 C7 31.76 7 55.52 7 80 C31.8777689 80.85683787 31.8777689 80.85683787 51.74609375 69.37109375 C59.60265848 60.9267561 61.5011338 51.09072202 61.2734375 39.89453125 C60.61486762 30.5146146 56.72995222 22.56393822 50 16 C36.07956878 5.71961815 26.16104608 8 7 8 Z " fill="#212021" transform="translate(2262,307)"/>
<path d="M0 0 C44.45188849 0 44.45188849 0 57.75 12.1875 C65.91648573 20.913863 69.40519645 31.62807658 69.3125 43.375 C69.30512817 44.4897168 69.30512817 44.4897168 69.29760742 45.62695312 C69.05916115 56.84737882 64.9307463 67.85490921 57 76 C39.91247909 90.28842225 22.91545463 87 0 87 C0 58.29 0 29.58 0 0 Z M7 8 C7 31.76 7 55.52 7 80 C31.80698686 80.65869147 31.80698686 80.65869147 51.97265625 69.18359375 C58.75554031 62.05508502 61.59219277 53.90372563 62.09375 44.1484375 C61.77903066 33.57911286 58.64099234 24.90582766 51.3359375 17.2578125 C38.12209288 5.1300373 25.75018096 8 7 8 Z " fill="#212021" transform="translate(1885,307)"/>
<path d="M0 0 C2.64 0 5.28 0 8 0 C13.0335284 11.5739889 17.34120469 23.42857457 21.75 35.25 C22.90218697 38.33256278 24.05499767 41.41489176 25.20788574 44.49719238 C25.97358499 46.54590259 26.73831996 48.59497346 27.5020752 50.64440918 C29.51122094 56.0336698 31.53572154 61.41648771 33.58398438 66.79101562 C34.0018219 67.89177429 34.41965942 68.99253296 34.85015869 70.12664795 C35.65288031 72.23988173 36.45948259 74.35164657 37.27044678 76.46173096 C37.80801605 77.88011261 37.80801605 77.88011261 38.35644531 79.32714844 C38.67462219 80.15937927 38.99279907 80.99161011 39.32061768 81.84906006 C40 84 40 84 40 87 C37.36 87 34.72 87 32 87 C29.03 79.41 26.06 71.82 23 64 C10.46 64 -2.08 64 -15 64 C-17.59084491 71.19408517 -17.59084491 71.19408517 -20.17553711 78.39038086 C-20.6590564 79.72661499 -20.6590564 79.72661499 -21.15234375 81.08984375 C-21.48226318 82.00628662 -21.81218262 82.92272949 -22.15209961 83.86694336 C-23 86 -23 86 -24 87 C-26.67058851 87.14115161 -29.32432238 87.04247107 -32 87 C-29.97724549 79.96360937 -27.65838179 73.08499267 -25.12109375 66.21875 C-24.75238159 65.21425308 -24.38366943 64.20975616 -24.00378418 63.17481995 C-22.81829329 59.94866544 -21.62817757 56.72424349 -20.4375 53.5 C-19.62245678 51.28703552 -18.80743405 49.0740635 -17.99243164 46.86108398 C-2.70834349 5.41668698 -2.70834349 5.41668698 0 0 Z M4 13 C0.46277244 20.62392737 -2.49707963 28.42529742 -5.42871094 36.29589844 C-6.25897017 38.52407334 -7.09402655 40.75040855 -7.9296875 42.9765625 C-8.45861256 44.39052058 -8.98726857 45.80457934 -9.515625 47.21875 C-9.76556213 47.88531616 -10.01549927 48.55188232 -10.27301025 49.23864746 C-11.48570948 52.04499139 -11.48570948 52.04499139 -12 55 C-1.44 55 9.12 55 20 55 C18.16685394 48.88951315 16.34320139 42.95872677 14.08203125 37.0234375 C13.81992355 36.32731354 13.55781586 35.63118958 13.2877655 34.91397095 C12.46581155 32.73311513 11.63925722 30.55403879 10.8125 28.375 C10.24773854 26.87902262 9.68328305 25.38292968 9.11914062 23.88671875 C7.7496153 20.25647161 6.37596702 16.62781019 5 13 C4.67 13 4.34 13 4 13 Z " fill="#212021" transform="translate(2016,307)"/>
<path d="M0 0 C2.64 0 5.28 0 8 0 C12.35562455 10.12748739 16.21644071 20.42127319 20.0625 30.75 C21.05311935 33.40490923 22.04426223 36.05962259 23.03547668 38.71430969 C23.7046923 40.50675668 24.37362732 42.29930845 25.0422821 44.09196472 C27.22668701 49.94438197 29.43108722 55.78890078 31.6484375 61.62890625 C32.48082071 63.82667605 33.31284086 66.02458295 34.14474487 68.22253418 C34.67083576 69.60948448 35.19859206 70.99580428 35.72805786 72.38146973 C36.45721993 74.29039865 37.17995603 76.20177846 37.90234375 78.11328125 C38.30960693 79.18360596 38.71687012 80.25393066 39.13647461 81.35668945 C40 84 40 84 40 87 C37.36 87 34.72 87 32 87 C29.03 79.41 26.06 71.82 23 64 C10.46 64 -2.08 64 -15 64 C-17.59084491 71.19408517 -17.59084491 71.19408517 -20.17553711 78.39038086 C-20.6590564 79.72661499 -20.6590564 79.72661499 -21.15234375 81.08984375 C-21.48226318 82.00628662 -21.81218262 82.92272949 -22.15209961 83.86694336 C-23 86 -23 86 -24 87 C-26.67058851 87.14115161 -29.32432238 87.04247107 -32 87 C-29.80771733 79.28556318 -27.175324 71.77773948 -24.39453125 64.2578125 C-23.73018318 62.45242508 -23.73018318 62.45242508 -23.05241394 60.61056519 C-22.11720493 58.07006013 -21.17987472 55.5303512 -20.2409668 52.99121094 C-19.06171006 49.80162428 -17.88759785 46.61017383 -16.71498299 43.41814041 C-11.36207332 28.85379414 -5.87163257 14.36357666 0 0 Z M4 13 C0.46277244 20.62392737 -2.49707963 28.42529742 -5.42871094 36.29589844 C-6.25897017 38.52407334 -7.09402655 40.75040855 -7.9296875 42.9765625 C-8.45861256 44.39052058 -8.98726857 45.80457934 -9.515625 47.21875 C-9.76556213 47.88531616 -10.01549927 48.55188232 -10.27301025 49.23864746 C-11.48570948 52.04499139 -11.48570948 52.04499139 -12 55 C-1.44 55 9.12 55 20 55 C18.16685394 48.88951315 16.34320139 42.95872677 14.08203125 37.0234375 C13.81992355 36.32731354 13.55781586 35.63118958 13.2877655 34.91397095 C12.46581155 32.73311513 11.63925722 30.55403879 10.8125 28.375 C10.24773854 26.87902262 9.68328305 25.38292968 9.11914062 23.88671875 C7.7496153 20.25647161 6.37596702 16.62781019 5 13 C4.67 13 4.34 13 4 13 Z " fill="#212021" transform="translate(1669,307)"/>
<path d="M0 0 C15.84 0 31.68 0 48 0 C48 2.64 48 5.28 48 8 C34.8 8 21.6 8 8 8 C8 17.9 8 27.8 8 38 C20.21 38 32.42 38 45 38 C45 40.64 45 43.28 45 46 C32.79 46 20.58 46 8 46 C8 57.22 8 68.44 8 80 C21.53 80 35.06 80 49 80 C49 82.31 49 84.62 49 87 C32.83 87 16.66 87 0 87 C0 58.29 0 29.58 0 0 Z " fill="#212021" transform="translate(2370,307)"/>
<path d="M0 0 C1.96794506 1.72668257 3.84882405 3.50159064 5.625 5.42578125 C4.625 8.42578125 4.625 8.42578125 1.625 10.42578125 C-1.96123509 10.11901572 -3.99615942 8.31667012 -6.6875 6.05078125 C-15.04454002 -0.64582882 -23.7662183 -2.52996485 -34.375 -1.57421875 C-43.59304815 0.37507551 -51.3540788 4.17918451 -57.15625 11.75 C-63.35694694 21.43099008 -65.99012561 31.58296855 -63.90625 42.9921875 C-61.14433669 53.49732204 -55.777456 61.82589829 -46.375 67.42578125 C-37.75081163 71.8494517 -28.85337976 72.93316896 -19.38671875 70.73046875 C-13.91955982 68.93076775 -9.54480464 66.47447367 -5.12890625 62.79296875 C-3.25765859 61.33431244 -1.59858634 60.2635252 0.625 59.42578125 C3.375 60.80078125 3.375 60.80078125 5.625 62.42578125 C2.43268949 69.81417002 -4.37974603 74.28623596 -11.5625 77.36328125 C-22.97718987 81.8710905 -34.87979849 81.50373092 -46.375 77.42578125 C-59.10197349 71.51354031 -66.24397206 62.16830644 -71.375 49.42578125 C-75.13429318 37.6820064 -73.83728847 24.41656774 -68.375 13.42578125 C-62.12808909 2.64431065 -54.21420802 -4.50102402 -42.375 -8.57421875 C-27.01094998 -12.66451551 -12.46641405 -10.05104633 0 0 Z " fill="#212021" transform="translate(1461.375,315.57421875)"/>
<path d="M0 0 C2.31 0 4.62 0 7 0 C7.00586624 0.71695038 7.01173248 1.43390076 7.01777649 2.1725769 C7.07596634 8.96851976 7.14819087 15.76418847 7.23571491 22.55981255 C7.28021694 26.05254633 7.31951558 29.54516888 7.34643555 33.03808594 C7.37770696 37.06474265 7.43248565 41.09079534 7.48828125 45.1171875 C7.49467117 46.35612762 7.5010611 47.59506775 7.50764465 48.87155151 C7.66041273 57.98221862 8.56342384 67.14934209 14.44140625 74.52734375 C19.18624646 79.01056369 24.68037267 80.25019451 31.0625 80.5 C38.27233686 80.22481539 42.68863998 78.25999646 47.8125 73.25 C53.40320703 64.94380669 53.46420913 57.43252434 53.51171875 47.65625 C53.52859073 46.27761258 53.54674432 44.8989903 53.56611633 43.52038574 C53.61334975 39.91691829 53.64333039 36.31351226 53.66955566 32.70983887 C53.69949693 29.02258172 53.74598012 25.33553572 53.79101562 21.6484375 C53.87674474 14.43239707 53.94422379 7.21634077 54 0 C56.64 0 59.28 0 62 0 C62.0699099 7.76338062 62.12301727 15.52668569 62.15543652 23.29030323 C62.17100636 26.89636775 62.1920828 30.50221485 62.22631836 34.1081543 C62.25922567 37.59654017 62.27691805 41.08471864 62.28463173 44.57324791 C62.29276668 46.53334273 62.31613435 48.49335562 62.33988953 50.45332336 C62.34199873 61.813524 60.81354563 72.26921205 53 81 C45.42329948 87.53841193 37.73008379 89.54082261 27.8671875 89.30859375 C19.16760266 88.37226241 11.62787416 84.75089667 6 78 C1.83785082 71.26375358 -0.12908193 65.57362071 -0.11352539 57.67089844 C-0.11344986 56.38987244 -0.11337433 55.10884644 -0.11329651 53.78900146 C-0.10819026 52.39579225 -0.10297427 51.00258343 -0.09765625 49.609375 C-0.09579032 48.18019663 -0.09436724 46.75101762 -0.09336853 45.32183838 C-0.08955715 41.56699852 -0.07973867 37.81219757 -0.06866455 34.05737305 C-0.05842075 30.22314988 -0.05386455 26.38892041 -0.04882812 22.5546875 C-0.03811514 15.03644063 -0.02105531 7.51822577 0 0 Z " fill="#212021" transform="translate(1126,307)"/>
<path d="M0 0 C40.83430233 0 40.83430233 0 49.30859375 8.09765625 C55.47927766 15.03789427 56.3117318 21.73117732 56.2109375 30.7421875 C55.72329143 38.27361008 52.66839723 44.00369461 47 49 C40.93494344 52.85639434 35.64822835 54.13021922 28.484375 54.09765625 C27.35741211 54.09515869 26.23044922 54.09266113 25.06933594 54.09008789 C22.93126465 54.07643188 22.93126465 54.07643188 20.75 54.0625 C16.2125 54.041875 11.675 54.02125 7 54 C7 64.89 7 75.78 7 87 C4.69 87 2.38 87 0 87 C0 58.29 0 29.58 0 0 Z M7 8 C7 20.87 7 33.74 7 47 C12.383125 47.0928125 12.383125 47.0928125 17.875 47.1875 C18.98472168 47.21481201 20.09444336 47.24212402 21.23779297 47.27026367 C28.80382319 47.33263212 36.32433084 46.88014518 42.47265625 42.0625 C42.99730469 41.381875 43.52195312 40.70125 44.0625 40 C44.88427734 38.9790625 44.88427734 38.9790625 45.72265625 37.9375 C49.05252184 32.8866947 48.5418367 26.80969352 48 21 C46.40652718 16.11565938 43.28797463 12.75655512 39 10 C34.76271387 8.32882092 31.2690885 7.759712 26.7265625 7.8046875 C25.68580566 7.80968262 24.64504883 7.81467773 23.57275391 7.81982422 C22.26999512 7.83803223 20.96723633 7.85624023 19.625 7.875 C13.375625 7.936875 13.375625 7.936875 7 8 Z " fill="#212021" transform="translate(1556,307)"/>
<path d="M0 0 C3.82516278 0.27322591 6.09307176 1.05415084 9.4375 3 C12 6 12 6 12.15536499 7.96549988 C11.44588876 13.6295389 9.9268169 18.28708654 7.4765625 23.42578125 C7.12147614 24.1966658 6.76638977 24.96755035 6.40054321 25.76179504 C5.28105784 28.18137887 4.14264375 30.59127762 3 33 C2.2820278 34.52773864 1.56425096 36.0555691 0.84667969 37.58349609 C-1.65564634 42.89118934 -4.1843774 48.18620292 -6.72363281 53.47631836 C-11.53761434 63.51687779 -16.01273899 73.6015675 -20 84 C-28.30775134 81.72640061 -28.30775134 81.72640061 -30 79 C-31.1390134 73.77952191 -30.9473043 70.65247988 -28.875 65.75 C-28.48598511 64.8221167 -28.48598511 64.8221167 -28.08911133 63.87548828 C-24.66609511 55.91004972 -20.76877356 48.14967958 -16.97460938 40.35693359 C-13.44947293 33.09365847 -10.05451927 25.79634983 -6.875 18.375 C-6.52139404 17.55370605 -6.16778809 16.73241211 -5.8034668 15.88623047 C-3.59881975 10.67073935 -1.71208477 5.39668409 0 0 Z " fill="#23A753" transform="translate(1345,618)"/>
<path d="M0 0 C2.31 0 4.62 0 7 0 C7 26.4 7 52.8 7 80 C20.2 80 33.4 80 47 80 C47 82.31 47 84.62 47 87 C31.49 87 15.98 87 0 87 C0 58.29 0 29.58 0 0 Z " fill="#212021" transform="translate(1747,307)"/>
<path d="M0 0 C2.64 0 5.28 0 8 0 C8 28.71 8 57.42 8 87 C5.36 87 2.72 87 0 87 C0 58.29 0 29.58 0 0 Z " fill="#212021" transform="translate(1834,307)"/>
<path d="M0 0 C2.64 0 5.28 0 8 0 C8 28.71 8 57.42 8 87 C5.36 87 2.72 87 0 87 C0 58.29 0 29.58 0 0 Z " fill="#212021" transform="translate(1341,307)"/>
<path d="M0 0 C2.31 0 4.62 0 7 0 C7 28.71 7 57.42 7 87 C4.69 87 2.38 87 0 87 C0 58.29 0 29.58 0 0 Z " fill="#212021" transform="translate(1505,307)"/>
<path d="M0 0 C4.73265643 1.17543101 8.28021078 2.39772739 12.0625 5.5625 C14.71739438 10.27279647 15.07906065 13.71480498 14 19 C12.29034972 23.17805025 10.25571993 27.09277083 8 31 C7.01 31 6.02 31 5 31 C4.525625 29.948125 4.05125 28.89625 3.5625 27.8125 C0.91456708 23.07510729 -3.2145978 21.21887239 -8 19 C-7.59007812 18.13117187 -7.18015625 17.26234375 -6.7578125 16.3671875 C-6.21898437 15.21476563 -5.68015625 14.06234375 -5.125 12.875 C-4.59132813 11.73804688 -4.05765625 10.60109375 -3.5078125 9.4296875 C-2.141257 6.32130479 -1.01370472 3.23795004 0 0 Z " fill="#23A753" transform="translate(1829,609)"/>
</svg>
