<svg xmlns="http://www.w3.org/2000/svg" xmlns:xlink="http://www.w3.org/1999/xlink" width="100" height="44.81" viewBox="0 0 100 44.81"><defs><style>.a{fill:#fff;}.b{clip-path:url(#a);}</style><clipPath id="a"><rect class="a" width="100" height="44.81"/></clipPath></defs><g transform="translate(-789 -45)"><g transform="translate(789 45)"><path class="a" d="M6.4,51.452,4.316,58.6,2.351,51.452H0l2.985,9.935H5.619L8.78,51.452Z" transform="translate(0 -16.701)"/><rect class="a" width="2.229" height="9.935" transform="translate(10.719 34.751)"/><g transform="translate(0 0)"><g class="b"><path class="a" d="M22.34,54.787V53.95c0-1.709.9-2.587,2.7-2.621h.574a11.015,11.015,0,0,1,3.431.433V53.5c-.919-.088-1.709-.135-2.35-.135H25.683a1.969,1.969,0,0,0-.858.135q-.243.142-.243.675V54.5a.838.838,0,0,0,.149.6,1.212,1.212,0,0,0,.8.216h1.439a2.288,2.288,0,0,1,1.533.473,2.8,2.8,0,0,1,.905,2.269v.567a2.556,2.556,0,0,1-1.2,2.526,3.5,3.5,0,0,1-1.553.311,18.255,18.255,0,0,1-2.364-.08,8.578,8.578,0,0,1-1.621-.352V59.279a34.638,34.638,0,0,0,3.492.155,1.593,1.593,0,0,0,.763-.155.586.586,0,0,0,.27-.567V58.32a.675.675,0,0,0-.53-.795.657.657,0,0,0-.288.005H24.961a2.792,2.792,0,0,1-1.452-.325,1.937,1.937,0,0,1-.783-.763,2.923,2.923,0,0,1-.311-.824,6.008,6.008,0,0,1-.074-.831" transform="translate(-7.251 -16.659)"/><path class="a" d="M35.864,58.217a16.865,16.865,0,0,1-.095-1.838,11.762,11.762,0,0,1,.108-1.674,7.542,7.542,0,0,1,.29-1.3,3.076,3.076,0,0,1,.48-.919,3,3,0,0,1,.615-.6,2.531,2.531,0,0,1,.756-.338,5.651,5.651,0,0,1,1.54-.2,9.545,9.545,0,0,1,1.222.041,5.441,5.441,0,0,1,.858.162,2.376,2.376,0,0,1,.756.338,3,3,0,0,1,.608.6,2.942,2.942,0,0,1,.473.905,10.113,10.113,0,0,1,.378,3.053,7.7,7.7,0,0,1-.635,3.472,2.543,2.543,0,0,1-1.047,1.06,5.12,5.12,0,0,1-2.357.405A5.287,5.287,0,0,1,37.465,61a2.356,2.356,0,0,1-1.06-1.021,4.974,4.974,0,0,1-.54-1.762m2.384-4.052a4.415,4.415,0,0,0-.189.891,11.668,11.668,0,0,0-.068,1.257V57.4a5.733,5.733,0,0,0,.068.716,1.954,1.954,0,0,0,.149.534,1.385,1.385,0,0,0,.223.365.734.734,0,0,0,.331.236,2.775,2.775,0,0,0,.993.156,2.7,2.7,0,0,0,.939-.169,1.1,1.1,0,0,0,.554-.446,2.166,2.166,0,0,0,.3-.892,10.242,10.242,0,0,0,.081-1.439,13.075,13.075,0,0,0-.061-1.418,4.863,4.863,0,0,0-.176-.885,1.007,1.007,0,0,0-.351-.52,1.269,1.269,0,0,0-.5-.236,3.506,3.506,0,0,0-.723-.061,4.8,4.8,0,0,0-.716.048,1.4,1.4,0,0,0-.5.216.97.97,0,0,0-.358.54Z" transform="translate(-11.61 -16.664)"/><path class="a" d="M50.8,61.385V51.449h4.383a2.919,2.919,0,0,1,2.1.716,3.23,3.23,0,0,1,.763,2.417,4.159,4.159,0,0,1-.419,2.121,1.779,1.779,0,0,1-.507.553,4.182,4.182,0,0,1-.608.284l1.8,3.843H55.791l-1.479-3.654-1.29-.189v3.843Zm2.236-5.552h1.891a.785.785,0,0,0,.675-.257,1.792,1.792,0,0,0,.176-.952,1.727,1.727,0,0,0-.2-.973.778.778,0,0,0-.675-.278H53.009Z" transform="translate(-16.489 -16.698)"/><path class="a" d="M68.863,61.455h-.189a4.394,4.394,0,0,1-2.114-.338A3.594,3.594,0,0,1,66,60.631a2.026,2.026,0,0,1-.473-.776,8.894,8.894,0,0,1-.378-2.81V51.452H66.4v5.593a7.79,7.79,0,0,0,.088,1.424c.054.277.108.5.149.675a1.208,1.208,0,0,0,.182.412c.081.109.155.21.223.29a.758.758,0,0,0,.284.2,3.1,3.1,0,0,0,.317.122,2.676,2.676,0,0,0,.371.067h1.439a2.351,2.351,0,0,0,.493-.088,1.331,1.331,0,0,0,.446-.2,1.809,1.809,0,0,0,.371-.357,1.788,1.788,0,0,0,.284-.581,6.6,6.6,0,0,0,.243-1.966v-5.6h1.263v5.593c0,1.77-.311,2.964-.939,3.566a3.71,3.71,0,0,1-.581.492,2.078,2.078,0,0,1-.675.244,7.572,7.572,0,0,1-1.493.108" transform="translate(-21.146 -16.701)"/><path class="a" d="M84.1,51.452q2.4,0,2.4,3.012a4.185,4.185,0,0,1-.156,1.351,5.489,5.489,0,0,1-.263.628,1.263,1.263,0,0,1-.263.365l-.271.23a1.243,1.243,0,0,1-.3.155,2.974,2.974,0,0,1-.432.122l2.026,4.052H85.493l-1.972-3.978-2.438-.142v4.167H79.84V51.452Zm-3.02,4.728h2.966c.492,0,.817-.128.959-.392a2.394,2.394,0,0,0,.229-1.148,4.763,4.763,0,0,0-.094-1.108,1.074,1.074,0,0,0-.284-.554,1.092,1.092,0,0,0-.81-.311H81.083Z" transform="translate(-25.915 -16.701)"/><path class="a" d="M97.556,51.453a3.14,3.14,0,0,1,1.257.229,1.921,1.921,0,0,1,.817.629,2.844,2.844,0,0,1,.573,1.749q0,1.813-1.289,2.168a1.566,1.566,0,0,1,.959.729,2.794,2.794,0,0,1,.411,1.62,3.161,3.161,0,0,1-.573,1.966,2.491,2.491,0,0,1-2.141.844H93.66V51.453Zm-2.633,4.154h2.606a1.434,1.434,0,0,0,1.088-.385,1.592,1.592,0,0,0,.365-1.128,1.258,1.258,0,0,0-.925-1.4,1.984,1.984,0,0,0-.5-.054H94.923Zm0,4.586h2.621c.993,0,1.493-.554,1.493-1.655a2.1,2.1,0,0,0-.371-1.263,1.306,1.306,0,0,0-1.121-.5H94.923Z" transform="translate(-30.401 -16.7)"/><path class="a" d="M105.92,61.387l3.566-9.935h1.351l3.424,9.935h-1.425l-.817-2.621h-3.762l-.851,2.621Zm2.7-3.8h2.985l-1.466-4.343Z" transform="translate(-34.381 -16.701)"/><path class="a" d="M121.67,61.387V51.452h1.277l4.93,7.613V51.452h1.243v9.935h-1.243l-4.944-7.6v7.6Z" transform="translate(-39.493 -16.701)"/><path class="a" d="M136.536,56.25a10.656,10.656,0,0,1,.2-2.107,5.3,5.3,0,0,1,.507-1.493,2.184,2.184,0,0,1,.844-.838,3.37,3.37,0,0,1,1.054-.378,7.531,7.531,0,0,1,1.182-.081q.676,0,1.074.04a4.756,4.756,0,0,1,.824.163,2.286,2.286,0,0,1,.722.338,3.016,3.016,0,0,1,1.007,1.505,10.9,10.9,0,0,1,.358,3.054,8.183,8.183,0,0,1-.48,3.235,3.185,3.185,0,0,1-.534.884,1.954,1.954,0,0,1-.783.527,5.755,5.755,0,0,1-2.074.311,4.505,4.505,0,0,1-2.567-.527,2.7,2.7,0,0,1-1.02-1.466,11.758,11.758,0,0,1-.311-3.167m1.351-1.669a5.813,5.813,0,0,0-.088.838v1.115a10.353,10.353,0,0,0,.041,1.161,7.873,7.873,0,0,0,.122.932,2.258,2.258,0,0,0,.236.675,2.116,2.116,0,0,0,.351.459,1.137,1.137,0,0,0,.487.277,4.175,4.175,0,0,0,1.229.162,8.059,8.059,0,0,0,1.06-.054,2.287,2.287,0,0,0,.675-.209,1.347,1.347,0,0,0,.5-.413,2.463,2.463,0,0,0,.331-.675,8.53,8.53,0,0,0,.243-2.391,12.241,12.241,0,0,0-.088-1.716c-.061-.338-.108-.6-.149-.79a1.592,1.592,0,0,0-.189-.5c-.081-.134-.155-.257-.23-.357a.783.783,0,0,0-.3-.25,2.737,2.737,0,0,0-.331-.156,1.607,1.607,0,0,0-.4-.081,7.865,7.865,0,0,0-.818-.04h-.614a4.112,4.112,0,0,0-.446.033,1.607,1.607,0,0,0-.4.081c-.095.034-.2.088-.331.149a.711.711,0,0,0-.3.244c-.074.1-.155.223-.243.358a1.974,1.974,0,0,0-.2.5,5.781,5.781,0,0,0-.155.648Z" transform="translate(-44.315 -16.668)"/><path class="a" d="M84.329,39.285v-3.8a3.1,3.1,0,0,1,.317-6.18h.216a3.1,3.1,0,0,1,.061,6.173v4.052h-.061a.527.527,0,0,1-.216.054.311.311,0,0,1-.317-.3.045.045,0,0,1,0-.014m-2.168-6.889a2.465,2.465,0,0,0,2.168,2.473V33.334l-1.048-.621a.31.31,0,0,1-.155-.344.318.318,0,0,1,.3-.23.353.353,0,0,1,.161.041l.737.426v-1.2a.3.3,0,0,1,.283-.31h.014a.3.3,0,0,1,.3.3v.149l.513-.385a.3.3,0,0,1,.486.155.269.269,0,0,1-.108.317l-.891.675v1.006l.837-.628a.3.3,0,0,1,.169-.054.325.325,0,0,1,.3.216.318.318,0,0,1-.1.358l-1.2.9v.723a2.473,2.473,0,0,0,2.2-2.472,2.514,2.514,0,0,0-2.479-2.479,2.485,2.485,0,0,0-2.486,2.479" transform="translate(-26.48 -9.511)"/><path class="a" d="M84.562,29.362h.209a2.992,2.992,0,0,1-.041,5.963v4.052a.354.354,0,0,1-.169.048.2.2,0,0,1-.21-.182.2.2,0,0,1,0-.028V35.332a2.987,2.987,0,1,1,.21-5.97m.169,5.559a2.566,2.566,0,1,0-.379,0v-1.7l-1.1-.675a.2.2,0,0,1-.075-.277.2.2,0,0,1,.17-.1.222.222,0,0,1,.108.034l.9.52V31.375a.189.189,0,0,1,.379,0h0v.351l.675-.52a.181.181,0,0,1,.115-.048.2.2,0,0,1,.122.359l-.932.722v1.277l1.006-.757a.165.165,0,0,1,.108,0,.21.21,0,0,1,.128.378l-1.243.933v.9m-.169-5.775a3.207,3.207,0,0,0-3.222,3.181,3.257,3.257,0,0,0,.864,2.209,3.177,3.177,0,0,0,1.932.992v3.709a.418.418,0,0,0,.412.425h.014a.6.6,0,0,0,.263-.067l.122-.054v-4.06a3.208,3.208,0,0,0-.162-6.375h-.223m.385,5.531v-.547l1.162-.871a.412.412,0,0,0,.128-.466.426.426,0,0,0-.4-.29.449.449,0,0,0-.23.068l-.675.5v-.742l.844-.675a.386.386,0,0,0,.149-.439.425.425,0,0,0-.4-.311.4.4,0,0,0-.25.094l-.351.263a.4.4,0,0,0-.4-.344.405.405,0,0,0-.406.4v1.027l-.574-.33a.419.419,0,1,0-.42.724l.022.011,1,.588V34.7a2.377,2.377,0,0,1,.426-4.728,2.4,2.4,0,0,1,2.371,2.37,2.372,2.372,0,0,1-1.986,2.351" transform="translate(-26.396 -9.463)"/><path class="a" d="M39.779,39.285v-3.8A3.1,3.1,0,0,1,40.1,29.3h.216a3.1,3.1,0,0,1,.074,6.18v4.052h-.061a.56.56,0,0,1-.216.054.31.31,0,0,1-.317-.3.045.045,0,0,1,0-.014m-2.182-6.9a2.466,2.466,0,0,0,2.168,2.473V33.334l-1.054-.621a.3.3,0,0,1,.149-.574.368.368,0,0,1,.169.041l.736.426v-1.2a.3.3,0,1,1,.594,0v.135l.513-.385a.291.291,0,0,1,.189-.074.325.325,0,0,1,.3.23.284.284,0,0,1-.108.317l-.892.675v1.006l.831-.628a.335.335,0,0,1,.169-.054.325.325,0,0,1,.3.216.318.318,0,0,1-.1.358l-1.189.919v.723a2.473,2.473,0,0,0,2.2-2.473A2.513,2.513,0,0,0,40.11,29.9a2.485,2.485,0,0,0-2.486,2.479" transform="translate(-12.02 -9.511)"/><path class="a" d="M40.015,29.362h.209a2.992,2.992,0,0,1-.041,5.963v4.052a.38.38,0,0,1-.169.048.2.2,0,0,1-.209-.182.2.2,0,0,1,0-.028V35.332a2.987,2.987,0,1,1,.209-5.97m.169,5.559a2.573,2.573,0,1,0-.378,0v-1.7L38.7,32.55a.2.2,0,0,1,.095-.379.247.247,0,0,1,.115.034l.9.52V31.375a.189.189,0,1,1,.378,0v.351l.675-.52a.183.183,0,0,1,.122-.048c.162,0,.29.244.122.359l-.932.722v1.277l1-.757a.184.184,0,0,1,.108,0,.216.216,0,0,1,.135.378l-1.243.933v.9m-.176-5.775a3.208,3.208,0,0,0-3.215,3.181,3.249,3.249,0,0,0,.858,2.209,3.208,3.208,0,0,0,1.938.992v3.709a.418.418,0,0,0,.412.425H40a.542.542,0,0,0,.257-.067l.128-.054v-4.06a3.208,3.208,0,0,0-.162-6.375h-.23m.392,5.531v-.547l1.155-.871a.413.413,0,0,0,.135-.466.432.432,0,0,0-.405-.29.449.449,0,0,0-.223.068l-.675.5v-.742l.844-.675a.393.393,0,0,0,.149-.439.425.425,0,0,0-.4-.311.393.393,0,0,0-.25.094l-.351.263a.4.4,0,0,0-.4-.344.4.4,0,0,0-.405.4v1.027l-.574-.33a.46.46,0,0,0-.223-.061.412.412,0,0,0-.4.311.4.4,0,0,0,.2.465l1,.588v1.351a2.377,2.377,0,0,1,.426-4.728,2.4,2.4,0,0,1,2.371,2.371,2.37,2.37,0,0,1-1.986,2.35" transform="translate(-11.938 -9.463)"/><path class="a" d="M93.8,30.416H89.338a.453.453,0,0,1-.446-.446V22.041H81.571v4.727a.453.453,0,0,1-.446.446H78.167a.446.446,0,0,1-.439-.446V21.594a.447.447,0,0,1,.439-.446h2.513V16.232H70.231l.108,13.717a.453.453,0,0,1-.446.453H58.472a.446.446,0,0,1-.446-.446V22.264h-3.1a.453.453,0,0,1-.446-.446V4.6L44.842,1.1V23.351h2.29a.445.445,0,0,1,.446.446v6.187a.445.445,0,0,1-.446.445h-2.7a.446.446,0,0,1-.446-.445V24.243H40.141v5.741a.445.445,0,0,1-.439.445H28.274a.452.452,0,0,1-.446-.445V23.9h-5.4v6.079a.452.452,0,0,1-.446.445H19.136a.445.445,0,1,1,0-.891H21.52V23.459a.439.439,0,0,1,.432-.446h6.322a.438.438,0,0,1,.446.432v6.093H39.256V23.8a.446.446,0,0,1,.446-.446H43.95V.468A.43.43,0,0,1,44.139.1a.451.451,0,0,1,.426-.081L55.074,3.865a.447.447,0,0,1,.3.419V21.372h3.1a.446.446,0,0,1,.446.446v7.72H69.434l-.1-13.718a.451.451,0,0,1,.128-.318.426.426,0,0,1,.317-.134H81.125a.452.452,0,0,1,.446.445v5.336h7.767a.446.446,0,0,1,.446.446v7.943H93.8a.445.445,0,1,1,0,.891Zm-48.954-.878h1.844v-5.3H44.842Zm33.77-3.229h2.067V22.04H78.612Z" transform="translate(-6.067 0)"/><path class="a" d="M67.065,11.631H56.536a.446.446,0,0,1-.446-.446V9.158a.438.438,0,0,1,.432-.445H67.065a.445.445,0,0,1,.446.445v2.026a.453.453,0,0,1-.446.446m-10.084-.919H66.62V9.564H56.982Z" transform="translate(-18.206 -2.828)"/><path class="a" d="M67.065,17.631H56.536a.446.446,0,0,1-.446-.446V15.158a.438.438,0,0,1,.432-.445H67.065a.445.445,0,0,1,.446.445v2.026a.453.453,0,0,1-.446.446m-10.084-.865H66.62V15.6H56.982Z" transform="translate(-18.206 -4.775)"/><path class="a" d="M67.065,23.75H56.536a.446.446,0,0,1-.446-.446V21.278a.439.439,0,0,1,.432-.446H67.065a.446.446,0,0,1,.446.446V23.3a.453.453,0,0,1-.446.446m-10.084-.892H66.62V21.71H56.982Z" transform="translate(-18.206 -6.762)"/><path class="a" d="M100.1,29.323h-2.3a.432.432,0,0,1-.432-.432V26.568a.432.432,0,0,1,.432-.426h2.323a.433.433,0,0,1,.432.426v2.323a.432.432,0,0,1-.432.432h-.02m-1.9-.858h1.466V27H98.2Z" transform="translate(-31.602 -8.485)"/><path class="a" d="M118.689,37.433h-2.3a.432.432,0,0,1-.432-.426V34.685a.432.432,0,0,1,.432-.433h2.3a.425.425,0,0,1,.426.426v2.33a.425.425,0,0,1-.426.426m-1.9-.857h1.466V35.11h-1.466Z" transform="translate(-37.64 -11.118)"/></g></g></g></g></svg>