<svg xmlns="http://www.w3.org/2000/svg" xmlns:xlink="http://www.w3.org/1999/xlink" width="380" height="300" viewBox="0 0 380 300"><defs><style>.a{fill:#fff;}.b{fill:#6abf4b;}.c{clip-path:url(#a);}</style><clipPath id="a"><rect class="a" width="188" height="84.243"/></clipPath></defs><path class="b" d="M25,0H355a25,25,0,0,1,25,25V275a25,25,0,0,1-25,25H25A25,25,0,0,1,0,275V25A25,25,0,0,1,25,0Z"/><g transform="translate(96.333 97.951)"><path class="a" d="M12.037,51.452,8.114,64.885,4.42,51.452H0L5.612,70.131h4.952l5.943-18.678Z" transform="translate(0 13.881)"/><rect class="a" width="4.19" height="18.678" transform="translate(20.152 65.332)"/><g transform="translate(0 0)"><g class="c"><path class="a" d="M22.34,57.835V56.261c0-3.213,1.689-4.863,5.079-4.927H28.5a20.709,20.709,0,0,1,6.45.814V55.41c-1.727-.165-3.213-.254-4.419-.254h-1.9a3.7,3.7,0,0,0-1.613.254q-.457.267-.457,1.27V57.3a1.576,1.576,0,0,0,.279,1.13,2.279,2.279,0,0,0,1.511.406h2.7a4.3,4.3,0,0,1,2.882.889,5.269,5.269,0,0,1,1.7,4.266V65.06c0,2.4-.749,3.974-2.26,4.749a6.57,6.57,0,0,1-2.92.584,34.319,34.319,0,0,1-4.444-.151,16.127,16.127,0,0,1-3.047-.662v-3.3a65.122,65.122,0,0,0,6.565.292,3,3,0,0,0,1.435-.292,1.1,1.1,0,0,0,.508-1.065v-.738a1.268,1.268,0,0,0-1-1.495,1.235,1.235,0,0,0-.541.01H27.267a5.249,5.249,0,0,1-2.73-.611,3.641,3.641,0,0,1-1.473-1.435A5.5,5.5,0,0,1,22.48,59.4a11.293,11.293,0,0,1-.14-1.562" transform="translate(6.027 13.846)"/><path class="a" d="M35.948,64.269a31.708,31.708,0,0,1-.178-3.455,22.113,22.113,0,0,1,.2-3.148,14.18,14.18,0,0,1,.546-2.451,5.782,5.782,0,0,1,.9-1.727,5.635,5.635,0,0,1,1.155-1.13A4.758,4.758,0,0,1,40,51.723a10.624,10.624,0,0,1,2.9-.382,17.945,17.945,0,0,1,2.3.077,10.228,10.228,0,0,1,1.613.3,4.466,4.466,0,0,1,1.422.635,5.637,5.637,0,0,1,1.143,1.13,5.531,5.531,0,0,1,.889,1.7,19.012,19.012,0,0,1,.711,5.739,14.472,14.472,0,0,1-1.194,6.527,4.781,4.781,0,0,1-1.968,1.994,9.626,9.626,0,0,1-4.431.762,9.94,9.94,0,0,1-4.419-.711,4.429,4.429,0,0,1-1.994-1.919,9.35,9.35,0,0,1-1.016-3.313M40.43,56.65a8.3,8.3,0,0,0-.356,1.675,21.936,21.936,0,0,0-.127,2.363v2.044a10.777,10.777,0,0,0,.127,1.346,3.674,3.674,0,0,0,.279,1,2.6,2.6,0,0,0,.419.686,1.38,1.38,0,0,0,.622.443,5.216,5.216,0,0,0,1.867.293,5.074,5.074,0,0,0,1.765-.317,2.06,2.06,0,0,0,1.041-.838,4.071,4.071,0,0,0,.571-1.677,19.254,19.254,0,0,0,.152-2.7,24.583,24.583,0,0,0-.114-2.665,9.143,9.143,0,0,0-.33-1.663,1.892,1.892,0,0,0-.66-.978,2.385,2.385,0,0,0-.94-.444,6.591,6.591,0,0,0-1.359-.116,9.011,9.011,0,0,0-1.346.09,2.628,2.628,0,0,0-.94.406,1.825,1.825,0,0,0-.673,1.016Z" transform="translate(9.65 13.851)"/><path class="a" d="M50.8,70.133V51.454h8.241A5.487,5.487,0,0,1,62.99,52.8a6.072,6.072,0,0,1,1.435,4.545,7.818,7.818,0,0,1-.787,3.988,3.345,3.345,0,0,1-.952,1.04,7.865,7.865,0,0,1-1.143.535l3.39,7.225H60.184L57.4,63.263l-2.425-.356v7.225ZM55,59.7h3.555a1.475,1.475,0,0,0,1.27-.483,3.368,3.368,0,0,0,.33-1.79,3.247,3.247,0,0,0-.381-1.828,1.463,1.463,0,0,0-1.27-.522H54.952Z" transform="translate(13.704 13.879)"/><path class="a" d="M72.135,70.259h-.356a8.261,8.261,0,0,1-3.974-.635,6.757,6.757,0,0,1-1.054-.915,3.809,3.809,0,0,1-.889-1.459,16.721,16.721,0,0,1-.711-5.282V51.452H67.5V61.967a14.645,14.645,0,0,0,.165,2.678c.1.521.2.94.279,1.27a2.271,2.271,0,0,0,.343.775c.152.2.292.395.419.546a1.424,1.424,0,0,0,.533.382,5.84,5.84,0,0,0,.6.229,5.031,5.031,0,0,0,.7.126h2.7a4.421,4.421,0,0,0,.927-.165A2.5,2.5,0,0,0,75,67.438a3.4,3.4,0,0,0,.7-.672,3.361,3.361,0,0,0,.533-1.092,12.405,12.405,0,0,0,.457-3.7V51.452h2.374V61.967c0,3.327-.584,5.573-1.765,6.7a6.976,6.976,0,0,1-1.092.926,3.907,3.907,0,0,1-1.27.458,14.236,14.236,0,0,1-2.806.2" transform="translate(17.574 13.881)"/><path class="a" d="M87.854,51.452q4.506,0,4.508,5.663a7.867,7.867,0,0,1-.293,2.54,10.32,10.32,0,0,1-.5,1.181,2.373,2.373,0,0,1-.494.686l-.509.433a2.337,2.337,0,0,1-.559.291,5.591,5.591,0,0,1-.813.229l3.809,7.619h-2.54L86.76,62.613l-4.584-.267v7.834H79.84V51.452ZM82.176,60.34h5.576c.926,0,1.536-.24,1.8-.736a4.5,4.5,0,0,0,.43-2.159,8.955,8.955,0,0,0-.176-2.082,2.019,2.019,0,0,0-.535-1.041,2.053,2.053,0,0,0-1.522-.584H82.176Z" transform="translate(21.538 13.881)"/><path class="a" d="M100.985,51.453a5.9,5.9,0,0,1,2.363.43,3.612,3.612,0,0,1,1.536,1.182,5.347,5.347,0,0,1,1.078,3.289q0,3.409-2.424,4.076a2.944,2.944,0,0,1,1.8,1.371,5.253,5.253,0,0,1,.773,3.046,5.942,5.942,0,0,1-1.078,3.7,4.684,4.684,0,0,1-4.025,1.587H93.66V51.453Zm-4.951,7.809h4.9a2.7,2.7,0,0,0,2.046-.724,2.993,2.993,0,0,0,.686-2.121,2.364,2.364,0,0,0-1.74-2.63,3.73,3.73,0,0,0-.941-.1H96.034Zm0,8.622h4.927c1.867,0,2.806-1.041,2.806-3.111a3.955,3.955,0,0,0-.7-2.374,2.455,2.455,0,0,0-2.108-.941H96.034Z" transform="translate(25.267 13.881)"/><path class="a" d="M105.92,70.13l6.7-18.678h2.54L121.6,70.13h-2.679L117.386,65.2h-7.073l-1.6,4.927ZM111,62.982h5.612l-2.755-8.165Z" transform="translate(28.574 13.881)"/><path class="a" d="M121.67,70.13V51.452h2.4l9.269,14.312V51.452h2.336V70.13h-2.336l-9.295-14.285V70.13Z" transform="translate(32.823 13.881)"/><path class="a" d="M136.543,60.559a20.035,20.035,0,0,1,.368-3.962,9.96,9.96,0,0,1,.952-2.806,4.106,4.106,0,0,1,1.587-1.576,6.336,6.336,0,0,1,1.981-.71,14.158,14.158,0,0,1,2.222-.152q1.27,0,2.019.075a8.941,8.941,0,0,1,1.549.306,4.3,4.3,0,0,1,1.357.635,5.671,5.671,0,0,1,1.893,2.83,20.5,20.5,0,0,1,.673,5.741,15.384,15.384,0,0,1-.9,6.082,5.986,5.986,0,0,1-1,1.662,3.673,3.673,0,0,1-1.473.99,10.82,10.82,0,0,1-3.9.584,8.47,8.47,0,0,1-4.825-.99,5.075,5.075,0,0,1-1.917-2.755,22.107,22.107,0,0,1-.584-5.954m2.54-3.138A10.921,10.921,0,0,0,138.918,59v2.1a19.473,19.473,0,0,0,.076,2.183,14.8,14.8,0,0,0,.229,1.752,4.246,4.246,0,0,0,.444,1.27,3.977,3.977,0,0,0,.659.863,2.138,2.138,0,0,0,.916.521,7.849,7.849,0,0,0,2.311.3,15.153,15.153,0,0,0,1.994-.1,4.3,4.3,0,0,0,1.27-.392,2.532,2.532,0,0,0,.94-.776,4.631,4.631,0,0,0,.622-1.27,16.037,16.037,0,0,0,.457-4.495,23.015,23.015,0,0,0-.165-3.225c-.114-.635-.2-1.129-.279-1.486a2.992,2.992,0,0,0-.356-.94c-.152-.253-.292-.483-.432-.672a1.472,1.472,0,0,0-.559-.47,5.151,5.151,0,0,0-.622-.293,3.021,3.021,0,0,0-.749-.152,14.791,14.791,0,0,0-1.538-.075h-1.154a7.732,7.732,0,0,0-.838.062,3.021,3.021,0,0,0-.749.152c-.178.063-.381.165-.622.279a1.337,1.337,0,0,0-.559.458c-.14.189-.292.419-.457.673a3.71,3.71,0,0,0-.368.938,10.88,10.88,0,0,0-.292,1.219Z" transform="translate(36.831 13.854)"/><path class="a" d="M86.748,48.069V40.92a5.828,5.828,0,0,1,.6-11.618h.406a5.828,5.828,0,0,1,.114,11.606v7.619h-.114a.99.99,0,0,1-.406.1.584.584,0,0,1-.6-.571.085.085,0,0,1,0-.025M82.672,35.079a4.634,4.634,0,0,0,4.076,4.649V36.883l-1.969-1.168a.583.583,0,0,1-.291-.648.6.6,0,0,1,.571-.432.663.663,0,0,1,.3.076l1.385.8V33.264a.558.558,0,0,1,.532-.583h.025a.559.559,0,0,1,.56.559v.279l.965-.724a.558.558,0,0,1,.913.292.506.506,0,0,1-.2.6l-1.675,1.27v1.892l1.573-1.181a.558.558,0,0,1,.317-.1.611.611,0,0,1,.56.406.6.6,0,0,1-.192.673L87.865,38.33v1.359A4.649,4.649,0,0,0,92,35.041a4.726,4.726,0,0,0-4.66-4.66,4.672,4.672,0,0,0-4.673,4.66" transform="translate(22.008 7.905)"/><path class="a" d="M87.415,29.547h.394a5.624,5.624,0,0,1-.076,11.211v7.619a.665.665,0,0,1-.317.09.37.37,0,0,1-.395-.342.377.377,0,0,1,0-.053v-7.3a5.615,5.615,0,1,1,.395-11.223M87.732,40a4.825,4.825,0,1,0-.712,0V36.81l-2.068-1.27a.381.381,0,0,1-.141-.521.385.385,0,0,1,.319-.192.417.417,0,0,1,.2.065l1.688.978v-2.54a.356.356,0,0,1,.712,0v.663L89,33.013a.341.341,0,0,1,.216-.09.382.382,0,0,1,.229.674l-1.752,1.357v2.4l1.892-1.423a.31.31,0,0,1,.2,0,.394.394,0,0,1,.241.711L87.694,38.4v1.689m-.317-10.857A6.03,6.03,0,0,0,81.32,35.21a6.124,6.124,0,0,0,1.624,4.152,5.972,5.972,0,0,0,3.633,1.865V48.2a.786.786,0,0,0,.775.8h.025a1.127,1.127,0,0,0,.5-.126l.229-.1V41.138a6.031,6.031,0,0,0-.3-11.985h-.419m.724,10.4V38.523l2.184-1.638a.775.775,0,0,0,.241-.876.8.8,0,0,0-.749-.546.844.844,0,0,0-.433.128l-1.27.938v-1.4l1.587-1.27a.725.725,0,0,0,.281-.825.8.8,0,0,0-.749-.584.743.743,0,0,0-.47.176l-.66.5a.748.748,0,0,0-.749-.646.762.762,0,0,0-.763.761v1.93l-1.079-.621a.787.787,0,1,0-.79,1.361l.041.022L86.6,37.038v2.54a4.47,4.47,0,0,1,.8-8.888,4.519,4.519,0,0,1,4.457,4.456,4.459,4.459,0,0,1-3.733,4.42" transform="translate(21.938 7.865)"/><path class="a" d="M42.2,48.069V40.92a5.828,5.828,0,0,1,.6-11.618H43.2a5.828,5.828,0,0,1,.14,11.618v7.619h-.114a1.054,1.054,0,0,1-.406.1.583.583,0,0,1-.6-.571.084.084,0,0,1,0-.025m-4.1-12.964A4.636,4.636,0,0,0,42.2,39.728V36.883l-1.981-1.168a.572.572,0,0,1,.279-1.079.692.692,0,0,1,.317.076l1.384.8V33.264a.559.559,0,0,1,1.117,0v.254l.965-.724a.547.547,0,0,1,.356-.14.611.611,0,0,1,.559.432.533.533,0,0,1-.2.6l-1.676,1.27v1.892l1.562-1.181a.63.63,0,0,1,.317-.1.61.61,0,0,1,.571.406.6.6,0,0,1-.19.673l-2.235,1.727v1.36a4.649,4.649,0,0,0,4.139-4.649,4.724,4.724,0,0,0-4.66-4.66,4.672,4.672,0,0,0-4.673,4.66" transform="translate(9.99 7.905)"/><path class="a" d="M42.862,29.547h.394a5.624,5.624,0,0,1-.076,11.211v7.619a.715.715,0,0,1-.317.09.368.368,0,0,1-.394-.342.374.374,0,0,1,0-.053v-7.3a5.615,5.615,0,1,1,.394-11.223M43.18,40a4.838,4.838,0,1,0-.711,0V36.81l-2.082-1.27a.382.382,0,0,1,.178-.712.465.465,0,0,1,.216.065l1.689.978v-2.54a.356.356,0,1,1,.711,0v.66l1.27-.978a.345.345,0,0,1,.229-.09c.3,0,.546.458.229.674l-1.752,1.357v2.4l1.879-1.423a.346.346,0,0,1,.2,0,.407.407,0,0,1,.254.711L43.154,38.4v1.689m-.33-10.857A6.031,6.031,0,0,0,36.78,35.21a6.107,6.107,0,0,0,1.613,4.152,6.031,6.031,0,0,0,3.644,1.865V48.2a.786.786,0,0,0,.775.8h.025a1.02,1.02,0,0,0,.483-.126l.241-.1V41.138a6.031,6.031,0,0,0-.3-11.985h-.432m.736,10.4V38.523l2.171-1.638a.776.776,0,0,0,.254-.876.812.812,0,0,0-.762-.546.845.845,0,0,0-.419.128l-1.27.938v-1.4l1.587-1.27a.739.739,0,0,0,.279-.825.8.8,0,0,0-.749-.584.74.74,0,0,0-.47.176l-.66.5a.748.748,0,0,0-.749-.646.76.76,0,0,0-.762.761v1.93l-1.079-.621a.866.866,0,0,0-.419-.116.775.775,0,0,0-.749.585.761.761,0,0,0,.368.875L42.011,37v2.54a4.47,4.47,0,0,1,.8-8.888,4.521,4.521,0,0,1,4.457,4.457,4.456,4.456,0,0,1-3.733,4.419" transform="translate(9.922 7.865)"/><path class="a" d="M159.888,57.181h-8.38a.852.852,0,0,1-.838-.839V41.436H136.906v8.887a.851.851,0,0,1-.838.838h-5.562a.838.838,0,0,1-.825-.838V40.6a.84.84,0,0,1,.825-.838h4.724V30.516H115.586l.2,25.788a.853.853,0,0,1-.838.852H93.479a.839.839,0,0,1-.838-.838V41.855H86.813a.852.852,0,0,1-.838-.838V8.65L67.856,2.073V43.9h4.3a.837.837,0,0,1,.838.838V56.369a.837.837,0,0,1-.838.837H67.081a.838.838,0,0,1-.838-.837V45.576H59.018V56.369a.837.837,0,0,1-.825.837H36.708a.85.85,0,0,1-.838-.837V44.941H25.712V56.369a.849.849,0,0,1-.838.837H19.528a.837.837,0,1,1,0-1.675H24.01V44.1a.825.825,0,0,1,.813-.838H36.708a.824.824,0,0,1,.838.811V55.531H57.355V44.738a.838.838,0,0,1,.838-.838h7.987V.88a.809.809,0,0,1,.356-.686.847.847,0,0,1,.8-.152L87.093,7.265a.84.84,0,0,1,.559.789V40.178h5.828a.839.839,0,0,1,.838.839V55.531h19.77l-.19-25.789a.848.848,0,0,1,.241-.6.8.8,0,0,1,.6-.253h21.332a.85.85,0,0,1,.838.837V39.759h14.6a.839.839,0,0,1,.838.838V55.531h7.542a.837.837,0,1,1,0,1.675ZM67.856,55.531h3.466V45.576H67.856Zm63.489-6.071h3.885V41.435h-3.885Z" transform="translate(5.042 0.001)"/><path class="a" d="M76.724,14.2h-19.8a.838.838,0,0,1-.838-.839V9.55a.824.824,0,0,1,.813-.837.085.085,0,0,1,.025,0h19.8a.837.837,0,0,1,.838.837v3.809a.852.852,0,0,1-.838.839M57.766,12.472h18.12V10.313H57.766Z" transform="translate(15.131 2.351)"/><path class="a" d="M76.724,20.2h-19.8a.838.838,0,0,1-.838-.839V15.55a.824.824,0,0,1,.813-.837.085.085,0,0,1,.025,0h19.8a.837.837,0,0,1,.838.837v3.809a.852.852,0,0,1-.838.839M57.766,18.573h18.12V16.389H57.766Z" transform="translate(15.131 3.969)"/><path class="a" d="M76.724,26.319h-19.8a.838.838,0,0,1-.838-.839V21.67a.826.826,0,0,1,.813-.838H76.724a.838.838,0,0,1,.838.838v3.809a.852.852,0,0,1-.838.839M57.766,24.641h18.12V22.483H57.766Z" transform="translate(15.131 5.62)"/><path class="a" d="M102.5,32.123h-4.33a.812.812,0,0,1-.813-.811V26.943a.813.813,0,0,1,.813-.8h4.368a.814.814,0,0,1,.813.8v4.368a.813.813,0,0,1-.813.813H102.5M98.935,30.51h2.755V27.755H98.935Z" transform="translate(26.265 7.053)"/><path class="a" d="M121.09,40.233h-4.317a.812.812,0,0,1-.813-.8V35.066a.813.813,0,0,1,.813-.814h4.317a.8.8,0,0,1,.8.8v4.381a.8.8,0,0,1-.8.8m-3.568-1.611h2.755V35.866h-2.755Z" transform="translate(31.283 9.241)"/></g></g></g></svg>