<svg xmlns="http://www.w3.org/2000/svg" xmlns:xlink="http://www.w3.org/1999/xlink" width="711.839" height="548.811" viewBox="0 0 711.839 548.811"><defs><style>.a{fill:#dcdcdc;stroke:rgba(0,0,0,0);opacity:0.119;}.a,.h{stroke-miterlimit:10;}.b,.h{fill:none;}.c{fill:#9fa1a5;}.d{fill:#f2f2f2;}.e{fill:#ccc;}.f,.j{fill:#70ce68;}.f{opacity:0.3;isolation:isolate;}.g{clip-path:url(#a);}.h{stroke:#fff;stroke-width:4px;}.i{fill:url(#b);}.k{fill:#fff;}.l{fill:#3d4459;}.m{fill:#e8bb9c;}.n{fill:#406060;}.o{fill:#2f2e41;}.p{fill:#9dd884;}.q{fill:#3f3d56;}.r{clip-path:url(#c);}.s{fill:#aed9aa;}</style><clipPath id="a"><path class="b" d="M1037.654,395.932a17.621,17.621,0,0,1-17.33,15.029l-75.071.182a17.621,17.621,0,0,1-17.4-14.944l-39.763.1a8.255,8.255,0,0,0-8.236,8.275l.866,356.127a8.253,8.253,0,0,0,8.275,8.234l189.936-.46a8.255,8.255,0,0,0,8.234-8.275L1086.3,404.07a8.255,8.255,0,0,0-8.275-8.236h0Z" transform="translate(-879.853 -395.834)"/></clipPath><linearGradient id="b" x1="4.327" y1="-1.393" x2="4.327" y2="-0.388" gradientUnits="objectBoundingBox"><stop offset="0" stop-color="gray" stop-opacity="0.251"/><stop offset="0.535" stop-color="gray" stop-opacity="0.122"/><stop offset="1" stop-color="gray" stop-opacity="0.102"/></linearGradient><clipPath id="c"><rect class="b" width="149.163" height="320.381"/></clipPath></defs><g transform="translate(-19.661 -1073.19)"><path class="a" d="M350.044,626.142l1.9-6.093,56.385,5.294-.223,7.156A274.956,274.956,0,0,1,350.044,626.142Zm-47.054-14.9,4.263-24.908,40.6,2.907L335.029,622.4A271.969,271.969,0,0,1,302.99,611.239Zm114.588,9.171,2.7-25.987,47.141,3.262-1.1,23.742ZM496.77,599.9l35,2.506-.074,1.157a272.086,272.086,0,0,1-36.33,15.05ZM353.719,612.049l3.108-22.168,52.492,3.758-.788,21.608ZM251.021,582.4l41.818,2.9-2.645,20.174A273.83,273.83,0,0,1,251.021,582.4ZM497.8,586.171l3.435-45.688s11.705,1.554,29.249,13.309c17.474,11.708,25.08,35.595,25.08,35.595Zm-76.753-6.429.845-19.138,47.119,1.931-.919,20.579Zm-54.913-4.054.982-17.329,43.24,1.957-.573,18.329Zm-57.286-3.994,2.47-22.477,40.37,2.488-1.757,22.936Zm-61.591-4.416,8-20.676,44.1,1.714-2.8,22.5Zm-17.15-1.229A275.673,275.673,0,0,1,205.9,542.422l.227-.459L244.6,545.5l-8.449,20.979ZM504.073,457.3l18.429-5.6L605.32,549.64q-6.19,6.357-12.768,12.3ZM366.326,550.645l-.148-13.577,103.875,3.659-.614,13.261Zm-156.82-15.529,21.311-43.182,125.75,6.353-2.986,44.164Zm362.254-40.733,39.965-25.1,31.345,31.72a274.746,274.746,0,0,1-30.28,40.649ZM368.676,528.245l7.088-69.077,97.863,4.232-3.121,67.516ZM166.95,487.02l42.1.878-17.881,36.835A274.325,274.325,0,0,1,166.95,487.02Zm423.8-55.283,41.3-12.179,35.8,29a272.685,272.685,0,0,1-18.14,40.941Zm-58.386,17.684,46.553-14.194,28.03,27.708-40.394,25.509ZM235.75,481.947l13.931-28.229,108.729,4.7,1.6,25.492Zm-74.76-6.818a272.338,272.338,0,0,1-10.665-26.054l75.8,3.649-12.368,25.068Zm97.227-35.535,77.569-125.415,46.434,17.115,89.99,118.148ZM406.993,335.12l32.228-2.6,127.106,93.87L491.515,446.9Zm232.436,82.265,29.816-8.793,7.989,6.095a271.753,271.753,0,0,1-7.1,27.039ZM181.266,436.975l36.342-59.6,37.607,15.415-22.157,45.648Zm-35.475-2.081a272.266,272.266,0,0,1-7.007-30.755l4.051-6.982L170.51,408.5l-14.291,26.4Zm390.275-46.982,28.993-20.133,52.332,43.343-37.076,11.084Zm37.905-26.321,35.068-24.352,68.715,55.838-47.859,14.31Zm103.6,44.548,1.373-.4c-.075.431-.149.851-.226,1.281Zm-531.38-14.483,10.288-16.872,27.672,11.344L173.864,403ZM137.4,394.93l1.178.483-.908,1.49C137.578,396.244,137.488,395.589,137.4,394.93Zm-.863-7.23q-1.136-10.727-1.436-21.677l17.119,7.018-10.288,16.871Zm87.088-19.031,25.392-41.645,39.252,16.09-27.037,40.97Zm-63.792.615,10.288-16.872L197.8,363.753l-10.287,16.873ZM498.9,354.316l69.939-49.851,31.237,25.492-71.638,50.1ZM620.617,329.2l54.155-37.606A274.546,274.546,0,0,1,683,358.5q0,9.67-.661,19.178ZM135,359.1c0-.2,0-.4,0-.6q0-7.329.381-14.569l2.812-4.61,27.672,11.345-10.29,16.871Zm37.956-11.181,10.287-16.871,27.675,11.344-10.287,16.871Zm274.055-21.238,74.615-60.475,36.47,29.636-78.8,53.528Zm-305.986,8.149,10.289-16.871L178.988,329.3,168.7,346.176Zm45.572-9.285,10.29-16.872,27.672,11.345-10.29,16.872Zm67.692-7.17,18.8-30.835,40.974,16.795-20.15,30.284Zm-99.622-5.918,10.288-16.872,27.672,11.344L182.34,323.8Zm449.6,4.146L668,269l.071.056q1.892,5.481,3.554,11.056l-58.762,43.215Zm-184-7.158,69.589-69.053,19.756,16.058L432.979,317.7Zm-220.03-6.273L210.53,286.3,238.2,297.644l-10.288,16.873Zm377.629-7.223,63.912-48.157,19.449,14.848L597.877,311.6Zm-221.944-9.84,58.993-81.8,61.7,29.707L407.211,306.14Zm-187.617,3.972,10.29-16.871,27.672,11.345-10.29,16.871Zm-23.924-2.952,1.7.7-3.243,5.318C143.335,291.135,143.851,289.123,144.387,287.131Zm69.5-6.332,10.29-16.872,27.672,11.345-10.29,16.872Zm317.279-21.391,69.276-42.1,29.554,25.654-60.93,46.1ZM146.124,280.966c1.848-6.273,3.92-12.472,6.2-18.549l7.408,3.037L149.44,282.326Zm35.83-13.256,10.288-16.871,27.672,11.344-10.288,16.871Zm126.638-1,42.1-69.035,26.926,11.153-45.051,67.709ZM154.621,256.484q3.648-9.087,7.916-17.844l10.833,4.441-10.288,16.871Zm99.32-13.172,10.288-16.871L291.9,237.784l-10.288,16.871Zm243.174-10.544L583.6,147.326a275.776,275.776,0,0,1,38.055,38.379L520.6,251.143Zm110.458-19.875,12.765-7.9L647.3,223.164a272.872,272.872,0,0,1,13.613,27.378ZM222.01,230.223,232.3,213.35l27.672,11.344-10.287,16.872Zm45.573-9.284,10.288-16.872,27.674,11.344-10.287,16.871Zm201.552-1.786,39.271-41.882,15.367,7.75-38.99,41.747Zm-233.482-11.3,10.288-16.871,27.673,11.344-10.288,16.871Zm-57.175,2.482q5.425-8.424,11.431-16.4l19.972,8.186-10.288,16.872Zm270.8-.838L482.7,164.881l17.74,7.271L462.449,215.9Zm176.63-7.942,5.359-3.315q4.326,5.989,8.325,12.2Zm-344.682-2.987,10.288-16.871,27.672,11.344L308.9,209.908Zm139.613-2.91,33-45.991,20.686,8.26-34.9,46.87Zm-65-6.437,4.452-7.3,27.672,11.343-4.766,7.168ZM249.3,185.476,259.583,168.6l27.672,11.344-10.287,16.871ZM193.939,188.7q6.378-8.068,13.329-15.625l16.254,6.663-10.287,16.871ZM294.871,176.19l10.287-16.872,27.674,11.344-10.287,16.871Zm71.356-9.339,10.288-16.871,33.193,13.607-11.934,16.195Zm150.483-3.2,33.445-40.046q10.288,6.2,19.971,13.25l-36.767,38.2Zm-253.77-.554,10.288-16.871L300.9,157.573l-10.288,16.871Zm-50.994,5.017q7.423-7.682,15.421-14.768l9.8,4.017L226.88,174.239ZM490.1,152.747,524.373,109.9q10.231,4.757,20,10.322l-34.289,41.928Zm-105.651-10.44,10.288-16.871,33.19,13.607-11.934,16.195Zm-68.78-.227,10.288-16.871,27.672,11.344-10.288,16.871Zm-82.9,6.606q8.615-7.243,17.824-13.782l.216.089-10.288,16.871ZM459.7,141.071l30.279-44.408q12.465,3.851,24.408,8.837l-34.813,44.144ZM283.738,128.991l10.287-16.871L321.7,123.463l-10.287,16.871Zm45.574-9.284L339.6,102.834l27.672,11.344L356.984,131.05Zm70.579-2.725L419.574,84.7a274.531,274.531,0,0,1,44.474,5.331L433.91,130.926Zm-100.662-9.607A272.391,272.391,0,0,1,326.05,97.28l9.291,3.808L325.053,117.96Zm43.726-10.041,3.445-5.649q11.549-2.7,23.465-4.41l11.052,4.53-10.287,16.872Zm-7.172-2.941c1.443-.4,2.9-.79,4.354-1.166l-1.439,2.36Zm47.089-8.662c.613-.058,1.236-.115,1.85-.169l-.452.742Z" transform="translate(48 989)"/><g transform="translate(-436.487 744.097)"><path class="c" d="M1111.726,506.5h-2.658v-72.84A42.158,42.158,0,0,0,1066.91,391.5H912.591a42.159,42.159,0,0,0-42.159,42.157h0v399.6a42.158,42.158,0,0,0,42.159,42.157H1066.91a42.158,42.158,0,0,0,42.159-42.157h0V558.344h2.658Z"/><path class="d" d="M1094.972,430.348V829.369a31.483,31.483,0,0,1-31.477,31.488H908.429a31.482,31.482,0,0,1-31.477-31.488V430.348a31.481,31.481,0,0,1,31.477-31.478h18.813a14.955,14.955,0,0,0,13.849,20.6H1029.5a14.956,14.956,0,0,0,13.851-20.6h20.143A31.481,31.481,0,0,1,1094.972,430.348Z" transform="translate(5.118 5.786)"/><rect class="e" width="131.008" height="4.868" transform="translate(946.347 803.989)"/><rect class="e" width="131.008" height="4.868" transform="translate(946.347 819.404)"/><rect class="e" width="131.008" height="4.868" transform="translate(946.347 834.82)"/><rect class="e" width="29.682" height="29.682" transform="translate(904.804 806.998)"/><g transform="translate(887.248 399.236)"><path class="f" d="M927.852,421.683l-39.763.084c-4.561.011-8.246,3.263-8.236,7.265l.866,312.633c.011,4,3.716,7.24,8.275,7.229l189.936-.405c4.559-.009,8.247-3.261,8.234-7.265l-.866-312.633c-.011-4-3.714-7.238-8.275-7.229h0l-40.368.087" transform="translate(-879.853 -375.796)"/><g class="g"><g transform="translate(-90.462 24.332)"><path class="h" d="M863.529,409.466l295.584,242.079L1163,453.427,829.173,441.6l52.715,50.553,334.342,25.693L867.986,605.609l315.36,102.365-1.182,38.787L856.75,727.417l9.853,97.821,142.9-12.75L1070.745,434.5" transform="translate(-829.173 -409.466)"/></g></g></g><g transform="translate(944.008 475.994)"><path class="i" d="M1005.327,492.6c-3.586,25.869-56.8,79.969-56.8,79.969s-40.233-67.051-36.648-92.921a47.171,47.171,0,0,1,93.479,12.73Z" transform="translate(-911.652 -438.837)"/><path class="j" d="M1001.055,491.6c-3.363,24.265-53.279,75.009-53.279,75.009s-37.737-62.892-34.374-87.157a44.245,44.245,0,1,1,87.684,11.925l-.03.223Z" transform="translate(-910.446 -437.015)"/></g><circle class="k" cx="17.668" cy="17.668" r="17.668" transform="translate(975.197 503.157)"/></g><g transform="translate(254 1148)"><path class="l" d="M568.259,495.792l31.558-.29a10.258,10.258,0,0,0,12.72-9.958h0a10.258,10.258,0,0,0-5.812-9.244l-7.2-3.462-23.4-15.99-16.855,4.719-3.228,14.526A16.587,16.587,0,0,0,568.259,495.792Z" transform="translate(-448.714 -22)"/><path class="l" d="M653.205,495.613l31.558-.289a10.256,10.256,0,0,0,12.719-9.959h0a10.257,10.257,0,0,0-5.811-9.244l-7.2-3.462-23.4-15.99-16.854,4.719L641,475.915A16.585,16.585,0,0,0,653.205,495.613Z" transform="translate(-618.605 -22)"/><path class="m" d="M518.555,139.16l3.59,27.63,2.17,16.77,1.62,12.45,47.58,48.38,13.94,8.97a10.814,10.814,0,1,0,9.4-19.31l-15.29-5.31-32.22-41.85-1.47-8.18L528.655,114c-1.96-3.28-3.28,8.68-6,6-.81.9-6.28-9.96-7-9C508.935,119.93,517.085,127.82,518.555,139.16Z" transform="translate(-397.681 -22)"/><ellipse class="m" cx="24.944" cy="24.944" rx="24.944" ry="24.944" transform="translate(69.439 14.167)"/><path class="m" d="M616.327,96.842l4.045,24.27,47.191,2.7V94.573c-9.736-4.186-7.545-10.3,0-17.282l-30.337-8.764c-1.135,10.046-2.923,19.39-11.284,21.657a16.757,16.757,0,0,0-9.206,6.1Z" transform="translate(-564.416 -22)"/><path class="n" d="M580.124,466,618,467.685l17.112-156.929L661.495,466l37.889,1.348-10-197.245-93.709-22.247C584.587,275.472,579.263,436.253,580.124,466Z" transform="translate(-559.944 -22)"/><path class="o" d="M635.936,51.883c9.062,6.293,20.923-2.421,17.672-12.964-2.69-8.723-9.472-17.242-25.761-16.91-33.034.675-37.3,33.744-26.4,46.873,0,0,1.46-20.58,4.831-17.209s8.764,1.348,8.764,1.348-2.7-12.809,10.112-7.416A58.591,58.591,0,0,1,635.936,51.883Z" transform="translate(-530.767 -22)"/><path class="p" d="M589.993,253.249c27.015,21.9,58.962,29.815,97.08,20.225-9.685-48.792-7.821-100.663,0-154.122a18.762,18.762,0,0,0-10.536-16.863l-17.1-8.343c-15.182,21.563-29.153,16.063-42.472-4.045L598.088,97a13.3,13.3,0,0,0-8.728,12.545C591.934,163.792,593.517,215.376,589.993,253.249Z" transform="translate(-556.959 -22)"/><path class="p" d="M558.35,191.9l8.41-1.73,2.94-.61,23.56-4.85,10.93-2.25L585.7,128.5a45.729,45.729,0,0,0-24.65-26.94v.15Z" transform="translate(-443.066 -22)"/><path class="m" d="M700.165,246.507l7.872,22.373a11.418,11.418,0,0,1-9.894,15.174h0a11.419,11.419,0,0,1-12.26-10.509l-.005-.076-1.892-26.961,2.022-74.159,20.9,2.023Z" transform="translate(-673.199 -22)"/><path class="p" d="M674.305,171,718.8,183.81l.674-88.316h0a34.025,34.025,0,0,0-30.863,24.744Z" transform="translate(-674.305 -22)"/></g><path class="q" d="M2.43,403.693H653.112c1.337,0,2.424-.371,2.432-.836s-1.071-.842-2.405-.844H2.43c-1.335,0-2.424.372-2.43.836s1.069.842,2.4.844Z" transform="translate(19.661 1217.765)"/><g transform="translate(-1070.52 950.899)"><g transform="translate(1163.181 348.72)"><g class="r"><path class="s" d="M0,138.933C0,97.743,33.391,0,74.582,0s74.582,97.742,74.582,138.932A74.582,74.582,0,0,1,0,138.933" transform="translate(0 0)"/><path class="q" d="M121.227,359.493a.613.613,0,0,1-.613-.613V101.747a.613.613,0,1,1,1.227,0V358.88a.613.613,0,0,1-.613.613" transform="translate(-46.645 -39.112)"/><path class="q" d="M102.61,163.69a.611.611,0,0,1-.434-.18l-29.52-29.519a.613.613,0,0,1,.862-.873l.006.006,29.519,29.519a.613.613,0,0,1-.434,1.047" transform="translate(-28.028 -51.413)"/><path class="q" d="M121.227,234.46a.613.613,0,0,1-.434-1.047l49.435-49.435a.613.613,0,1,1,.873.861l-.006.006L121.661,234.28a.612.612,0,0,1-.434.18" transform="translate(-46.645 -71.08)"/></g></g></g></g></svg>