<svg xmlns="http://www.w3.org/2000/svg" width="38" height="38" viewBox="0 0 38 38"><defs><style>.a{fill:none;}.b{fill:#6abf4b;}</style></defs><g transform="translate(-271 -1730)"><rect class="a" width="38" height="38" transform="translate(271 1730)"/><g transform="translate(50.1 1694.05)"><path class="b" d="M249.1,66.75H231a1.11,1.11,0,0,1-1.1-1.1V52.85a1.11,1.11,0,0,1,1.1-1.1h18.1a1.11,1.11,0,0,1,1.1,1.1v12.8A1.11,1.11,0,0,1,249.1,66.75Zm-17-2.3h15.8V53.95H232.1Z"/><path class="b" d="M247.1,53.95a1.11,1.11,0,0,1-1.1-1.1v-1.7a5.9,5.9,0,1,0-11.8,0v1.7a1.1,1.1,0,1,1-2.2,0v-1.7a8.2,8.2,0,1,1,16.4,0v1.7A1.482,1.482,0,0,1,247.1,53.95Z"/><path class="b" d="M240,62.15a1.11,1.11,0,0,1-1.1-1.1v-3.5a1.1,1.1,0,0,1,2.2,0v3.5A1.049,1.049,0,0,1,240,62.15Z"/></g></g></svg>