<svg xmlns="http://www.w3.org/2000/svg" width="19" height="24" viewBox="0 0 19 24"><defs><style>.a{fill:#6abf4b;stroke:#6abf4b;}</style></defs><path class="a" d="M17.507,28H29.785a2.87,2.87,0,0,0,2.861-2.872V11.447a1.782,1.782,0,0,0-.466-1.129L27.35,5.468A1.769,1.769,0,0,0,26.225,5H17.507a2.87,2.87,0,0,0-2.861,2.872V25.128A2.87,2.87,0,0,0,17.507,28ZM27.121,6.389l4.142,4.157H27.944a.824.824,0,0,1-.822-.825V6.389ZM15.457,7.872a2.057,2.057,0,0,1,2.051-2.059h8.718a.54.54,0,0,1,.086.009v3.9a1.638,1.638,0,0,0,1.633,1.639h3.883a.515.515,0,0,1,.009.086V25.128a2.057,2.057,0,0,1-2.051,2.059H17.507a2.057,2.057,0,0,1-2.051-2.059V7.872Z" transform="translate(-14.146 -4.5)"/></svg>