<svg xmlns="http://www.w3.org/2000/svg" width="38" height="38" viewBox="0 0 38 38"><defs><style>.a{fill:none;}.b{fill:#6abf4b;}</style></defs><g transform="translate(-271 -1730)"><rect class="a" width="38" height="38" transform="translate(271 1730)"/><g transform="translate(153.585 1592.724)"><path class="b" d="M148.927,169.494a1.485,1.485,0,0,1-1-.4l-.073-.063-2.784-4.661a.938.938,0,0,0-.594-.209H125.446a2.85,2.85,0,0,1-2.846-2.846V148.046a2.85,2.85,0,0,1,2.846-2.846h22.125a2.85,2.85,0,0,1,2.846,2.846v19.967a1.471,1.471,0,0,1-.886,1.355A1.571,1.571,0,0,1,148.927,169.494Zm-.052-1.324a.17.17,0,0,0,.125,0,.168.168,0,0,0,.1-.156V148.046a1.535,1.535,0,0,0-1.533-1.533H125.446a1.535,1.535,0,0,0-1.533,1.533V161.33a1.535,1.535,0,0,0,1.533,1.533h19.039a2.278,2.278,0,0,1,1.543.6l.073.063Z"/><path class="b" d="M187.989,191.714H171.557a.654.654,0,0,1-.657-.657h0a.654.654,0,0,1,.657-.657h16.432a.654.654,0,0,1,.657.657h0A.654.654,0,0,1,187.989,191.714Z" transform="translate(-43.264 -40.487)"/><path class="b" d="M187.989,233.014H171.557a.654.654,0,0,1-.657-.657h0a.654.654,0,0,1,.657-.657h16.432a.654.654,0,0,1,.657.657h0A.654.654,0,0,1,187.989,233.014Z" transform="translate(-43.264 -77.481)"/><path class="b" d="M182.943,274.314H171.557a.654.654,0,0,1-.657-.657h0a.654.654,0,0,1,.657-.657h11.386a.654.654,0,0,1,.657.657h0A.654.654,0,0,1,182.943,274.314Z" transform="translate(-43.264 -114.475)"/></g></g></svg>