<svg xmlns="http://www.w3.org/2000/svg" width="16" height="11.626" viewBox="0 0 16 11.626"><defs><style>.a{fill:#9b9b9b;}</style></defs><path class="a" d="M39.08,48.13a.8.8,0,0,1,0-.583c3.134-7.362,12.756-7.362,15.891,0a.8.8,0,0,1,0,.583C51.836,55.492,42.214,55.492,39.08,48.13Zm1.458-.292c2.989,5.759,9.913,5.9,12.975,0C50.524,42.08,43.6,41.934,40.538,47.838Zm6.487,2.916a2.916,2.916,0,1,1,2.916-2.916A2.924,2.924,0,0,1,47.025,50.754Zm0-4.374a1.458,1.458,0,0,0,0,2.916A1.458,1.458,0,0,0,47.025,46.38Z" transform="translate(-39.025 -42.025)"/></svg>