<svg xmlns="http://www.w3.org/2000/svg" xmlns:xlink="http://www.w3.org/1999/xlink" width="32" height="32" viewBox="0 0 32 32"><defs><style>.a{fill:#6abf4b;}.b{fill:none;}.c{clip-path:url(#a);}</style><clipPath id="a"><rect class="a" width="20" height="25"/></clipPath></defs><g transform="translate(6 3)"><rect class="b" width="32" height="32" transform="translate(-6 -3)"/><g class="c"><path class="a" d="M19.167,26.792H.833A.834.834,0,0,1,0,25.958V11.583a.834.834,0,0,1,.833-.833H19.167a.833.833,0,0,1,.833.833V25.958a.833.833,0,0,1-.833.833m-17.5-1.667H18.333V12.417H1.667Z" transform="translate(0 -1.792)"/><path class="a" d="M15.333,10.625H6.583a.834.834,0,0,1-.833-.833V5.208a5.208,5.208,0,0,1,10.417,0V9.792a.833.833,0,0,1-.833.833M7.417,8.958H14.5V5.208a3.542,3.542,0,1,0-7.083,0Z" transform="translate(-0.958)"/><path class="a" d="M11.425,21.34a2.867,2.867,0,1,1,.017,0Zm0-4.083a1.208,1.208,0,1,0,1.208,1.208v-.033a1.208,1.208,0,0,0-1.208-1.175" transform="translate(-1.425 -2.598)"/><path class="a" d="M11.833,25.082A.834.834,0,0,1,11,24.248V21.323a.833.833,0,1,1,1.667,0v2.925a.834.834,0,0,1-.833.833" transform="translate(-1.833 -3.415)"/></g></g></svg>