<svg xmlns="http://www.w3.org/2000/svg" xmlns:xlink="http://www.w3.org/1999/xlink" width="32" height="32" viewBox="0 0 32 32"><defs><style>.a{fill:#6abf4b;stroke:#6abf4b;stroke-width:0.5px;}.b{fill:none;}.c{clip-path:url(#a);}</style><clipPath id="a"><rect class="a" width="23.134" height="16"/></clipPath></defs><g transform="translate(4 8)"><rect class="b" width="32" height="32" transform="translate(-4 -8)"/><g class="c" transform="translate(0 0)"><path class="a" d="M23.1,2.073A2.08,2.08,0,0,0,21.028,0H2.072A2.08,2.08,0,0,0,0,2.073V13.929A2.08,2.08,0,0,0,2.072,16H21.062a2.08,2.08,0,0,0,2.072-2.072V2.073ZM2.072,1.36H21.062c.1,0,.17.034.272.034l-9.376,7a.771.771,0,0,1-.849,0l-9.308-7c.068,0,.17-.034.272-.034M21.741,13.895a.718.718,0,0,1-.713.714H2.072a.718.718,0,0,1-.713-.714V2.786l8.968,6.692a2.036,2.036,0,0,0,1.223.408,1.964,1.964,0,0,0,1.223-.408l8.968-6.692Z" transform="translate(0 -0.001)"/></g></g></svg>