<svg xmlns="http://www.w3.org/2000/svg" width="28" height="28" viewBox="0 0 28 28"><defs><style>.a{fill:#70ce68;}</style></defs><g transform="translate(30 30) rotate(180)"><path class="a" d="M16,2A14,14,0,1,0,30,16,14.041,14.041,0,0,0,16,2Zm0,26.3A12.206,12.206,0,0,1,3.8,16,12.121,12.121,0,0,1,16,3.8a12.25,12.25,0,1,1,0,24.5Z"/><path class="a" d="M15.3,19.4c.2.2.4.2.6.3H16a.713.713,0,0,0,.6-.3h0l2.6-2.6a.919.919,0,1,0-1.3-1.3l-1.1,1.1V8.8a.9.9,0,1,0-1.8,0v7.9l-1-1.2a.919.919,0,1,0-1.3,1.3Z"/><path class="a" d="M20.4,21.4H11.6a.9.9,0,1,0,0,1.8h8.8a.9.9,0,0,0,0-1.8Z"/></g></svg>