<svg xmlns="http://www.w3.org/2000/svg" xmlns:xlink="http://www.w3.org/1999/xlink" width="32" height="32" viewBox="0 0 32 32"><defs><style>.a{fill:#9b9b9b;}.b{fill:none;}.c{clip-path:url(#a);}</style><clipPath id="a"><rect class="a" width="28" height="28" transform="translate(0 0)"/></clipPath></defs><g transform="translate(6 6)"><rect class="b" width="32" height="32" transform="translate(-6 -6)"/><g class="c" transform="translate(-4 -4)"><path class="a" d="M14,28A14,14,0,1,0,0,14,14.016,14.016,0,0,0,14,28M6.006,23.6c.25-3.1,2.5-4.264,7.994-4.264S21.744,20.5,21.994,23.6a12.469,12.469,0,0,1-15.987,0M9.538,13.37A4.462,4.462,0,1,1,14,17.833,4.467,4.467,0,0,1,9.538,13.37M14,1.5a12.49,12.49,0,0,1,9.3,20.84c-.735-2.878-3.2-3.921-5.606-4.3a5.964,5.964,0,1,0-7.381,0c-2.405.375-4.871,1.417-5.606,4.3A12.49,12.49,0,0,1,14,1.5" transform="translate(0 0)"/></g></g></svg>