<svg xmlns="http://www.w3.org/2000/svg" xmlns:xlink="http://www.w3.org/1999/xlink" width="32" height="32" viewBox="0 0 32 32"><defs><style>.a{fill:#9b9b9b;}.b{fill:none;}.c{clip-path:url(#a);}</style><clipPath id="a"><rect class="a" width="18.655" height="28"/></clipPath></defs><g transform="translate(7 2)"><rect class="b" width="32" height="32" transform="translate(-7 -2)"/><g class="c" transform="translate(0 0)"><path class="a" d="M16.71,0H1.981A1.994,1.994,0,0,0,0,1.981V26.019A1.994,1.994,0,0,0,1.981,28H16.673a1.994,1.994,0,0,0,1.981-1.981V1.981A1.939,1.939,0,0,0,16.71,0M17.2,26.056a.5.5,0,0,1-.486.486H1.981a.5.5,0,0,1-.486-.486V1.981A.5.5,0,0,1,1.981,1.5H16.673a.5.5,0,0,1,.486.486V26.056Zm-7.85-4.9a2.392,2.392,0,1,0,2.393,2.393,2.409,2.409,0,0,0-2.393-2.393m0,3.289a.9.9,0,1,1,.9-.9.909.909,0,0,1-.9.9M7.1,3.364a.75.75,0,0,1,.748-.748h2.991a.748.748,0,0,1,0,1.5H7.85A.75.75,0,0,1,7.1,3.364" transform="translate(0 0)"/></g></g></svg>