<svg xmlns="http://www.w3.org/2000/svg" width="38" height="38" viewBox="0 0 38 38"><defs><style>.a{fill:none;}.b{fill:#70ce68;stroke:#70ce68;stroke-width:0.5px;}</style></defs><g transform="translate(-271 -672)"><rect class="a" width="38" height="38" transform="translate(271 672)"/><path class="b" d="M25.2,5.162a7.359,7.359,0,1,1-10.407.005A7.386,7.386,0,0,1,25.2,5.162Zm2.18,26.208a16.185,16.185,0,0,0,5.5-4.657l-.743-3.123a3.469,3.469,0,0,0-.888-1.922A5.108,5.108,0,0,0,29.212,20.4l-4.689-1.346a9.882,9.882,0,0,1-9.055,0L10.778,20.4a5.108,5.108,0,0,0-2.035,1.271A3.544,3.544,0,0,0,7.85,23.6l-.738,3.112A16.092,16.092,0,0,0,27.376,31.37Zm-15.257.953a17.241,17.241,0,0,1-6.008-5.158.547.547,0,0,1-.1-.458l.781-3.284a4.563,4.563,0,0,1,1.163-2.482,6.119,6.119,0,0,1,2.466-1.556l4.964-1.427a.531.531,0,0,1,.4.043,8.817,8.817,0,0,0,8.42,0,.523.523,0,0,1,.4-.043l4.964,1.427a6.119,6.119,0,0,1,2.466,1.556A4.563,4.563,0,0,1,33.2,23.423l.781,3.284a.55.55,0,0,1-.092.441,17.165,17.165,0,0,1-21.771,5.174Zm12.318-26.4a6.285,6.285,0,1,0,0,8.894A6.312,6.312,0,0,0,24.437,5.921Z" transform="translate(270.005 671.981)"/></g></svg>