<svg xmlns="http://www.w3.org/2000/svg" xmlns:xlink="http://www.w3.org/1999/xlink" width="26" height="21.555" viewBox="0 0 26 21.555"><defs><style>.a{fill:#3b8435;}.b{clip-path:url(#a);}</style><clipPath id="a"><rect class="a" width="26" height="21.555"/></clipPath></defs><g transform="translate(0 0)"><g class="b" transform="translate(0 0)"><path class="a" d="M26,10.893a.656.656,0,0,0-.365-.591L22.678,8.83l2.938-1.416a.657.657,0,0,0,0-1.18L13.314.07a.657.657,0,0,0-.588,0L.407,6.231a.657.657,0,0,0,0,1.18L3.344,8.827.387,10.3a.657.657,0,0,0,0,1.18l2.938,1.416L.368,14.367a.657.657,0,0,0,0,1.18L12.735,21.49a.657.657,0,0,0,.572,0l12.322-5.941a.657.657,0,0,0,0-1.179L22.672,12.9l2.937-1.416A.657.657,0,0,0,26,10.893m-12.979-9.5L23.864,6.806,13.021,12.03,2.178,6.806Zm8.172,12.227,2.658,1.314-10.83,5.238L2.178,14.948l2.658-1.314,7.886,3.8a.659.659,0,0,0,.572,0Zm-.28-1.314h0l-7.893,3.8L5.135,12.293,2.178,10.877,4.836,9.563l7.886,3.8a.657.657,0,0,0,.572,0l7.886-3.8,2.658,1.314Z" transform="translate(0 0)"/></g></g></svg>