<svg xmlns="http://www.w3.org/2000/svg" xmlns:xlink="http://www.w3.org/1999/xlink" width="32" height="32" viewBox="0 0 32 32"><defs><style>.a{fill:#3b8435;}.b{fill:none;}.c{clip-path:url(#a);}</style><clipPath id="a"><rect class="a" width="26" height="26"/></clipPath></defs><rect class="b" width="32" height="32"/><g transform="translate(3 3)"><g class="c"><path class="a" d="M15.812,17a.812.812,0,1,1-.812.812A.813.813,0,0,1,15.812,17" transform="translate(-2.812 -3.188)"/><path class="a" d="M15.812,14.313A.813.813,0,0,1,15,13.5V7.813a.813.813,0,0,1,1.625,0V13.5a.813.813,0,0,1-.813.813" transform="translate(-2.812 -1.313)"/><path class="a" d="M5.383,26a.812.812,0,0,1-.8-.928l.847-5.926C2.017,17.162,0,13.99,0,10.563,0,4.738,5.832,0,13,0S26,4.738,26,10.563,20.168,21.125,13,21.125c-.436,0-.883-.022-1.39-.069L5.9,25.812a.81.81,0,0,1-.52.188M13,1.625c-6.273,0-11.375,4.01-11.375,8.938,0,2.979,1.892,5.755,5.063,7.426a.811.811,0,0,1,.425.834L6.486,23.21l4.346-3.621a.8.8,0,0,1,.608-.184,14.117,14.117,0,0,0,1.56.1c6.272,0,11.375-4.01,11.375-8.937S19.272,1.625,13,1.625"/></g></g></svg>