<svg xmlns="http://www.w3.org/2000/svg" width="24" height="24" viewBox="0 0 24 24"><defs><style>.a{fill:none;}.b{fill:#fff;stroke:#fff;stroke-width:0.5px;}</style></defs><g transform="translate(-49 -145)"><g transform="translate(49 145)"><path class="a" d="M0,0H24V24H0Z"/><path class="b" d="M108.7-4.813h0c0-.012,0-.025,0-.037a.408.408,0,0,0,0-.045v0c0-.013-.007-.024-.011-.036a.422.422,0,0,0-.012-.041v0c-.005-.013-.013-.025-.02-.038a.375.375,0,0,0-.019-.035h0a.449.449,0,0,0-.03-.037c-.008-.009-.014-.018-.022-.027h0c-.008-.008-.018-.014-.026-.022a.451.451,0,0,0-.037-.03h0l-1.935-1.29V-9.071a.426.426,0,0,0-.426-.426H102.02l-3.084-2.056a.425.425,0,0,0-.472,0L95.38-9.5H91.253a.426.426,0,0,0-.426.426v2.609l-1.935,1.29,0,0a.392.392,0,0,0-.033.026c-.01.009-.022.016-.031.026h0c-.008.008-.013.017-.02.025a.419.419,0,0,0-.032.039h0c-.007.01-.012.022-.018.032a.439.439,0,0,0-.021.04v0c0,.011-.007.022-.01.034a.435.435,0,0,0-.013.043v0c0,.014,0,.029,0,.043a.3.3,0,0,0,0,.038h0V5.823h0v0a.419.419,0,0,0,.019.115s0,.009,0,.013,0,.006,0,.009a.417.417,0,0,0,.054.1l.012.015a.411.411,0,0,0,.076.075l.012.01a.422.422,0,0,0,.1.052l.024.007a.415.415,0,0,0,.118.019h19.149a.418.418,0,0,0,.119-.019l.024-.007a.42.42,0,0,0,.1-.052l.013-.01a.431.431,0,0,0,.075-.074l.013-.015a.427.427,0,0,0,.054-.1s0-.006,0-.009,0-.009,0-.013a.419.419,0,0,0,.019-.114V5.824h0V-4.813ZM106.288-2.98a.424.424,0,0,0,.174-.116l1.387-.925V4.972L101.5.211Zm1.219-1.836-.935.623V-5.439ZM98.7-10.687,100.486-9.5H96.914Zm4.978,8.425L100.636-.235H96.764l-5.085-3.39V-6.231h0V-8.645h14.043v5.021l-1.285.857M89.551-4.02,95.9.211,89.551,4.972Zm1.277-.172-.935-.623.935-.623ZM90.4,5.4,96.777.616h3.847L107,5.4Z" transform="translate(-86.956 14.529)"/></g></g></svg>