<svg xmlns="http://www.w3.org/2000/svg" xmlns:xlink="http://www.w3.org/1999/xlink" width="32" height="32" viewBox="0 0 32 32"><defs><style>.a{fill:#3b8435;}.b{fill:none;}.c{clip-path:url(#a);}</style><clipPath id="a"><rect class="a" width="26" height="26"/></clipPath></defs><rect class="b" width="32" height="32"/><g transform="translate(3 3)"><g class="c"><path class="a" d="M13,0A13,13,0,1,0,26,13,13,13,0,0,0,13,0m0,24.649A11.649,11.649,0,1,1,24.649,13,11.649,11.649,0,0,1,13,24.649"/><path class="a" d="M31.526,24.975h-5.2v-5.2a.675.675,0,1,0-1.351,0v5.2h-5.2a.675.675,0,1,0,0,1.351h5.2v5.2a.675.675,0,0,0,1.351,0v-5.2h5.2a.675.675,0,0,0,0-1.351" transform="translate(-12.651 -12.651)"/></g></g></svg>