<svg xmlns="http://www.w3.org/2000/svg" width="24" height="24" viewBox="0 0 24 24"><defs><style>.a{fill:none;}.b{fill:#fff;stroke:#fff;stroke-width:0.5px;}</style></defs><g transform="translate(-49 -145)"><g transform="translate(49 145)"><path class="a" d="M0,0H24V24H0Z"/><g transform="translate(-11.536 -2.55)"><path class="b" d="M31.28,10.25a.461.461,0,0,0-.131-.323L25.863,4.538a.462.462,0,0,0-.329-.138H17.584a2.3,2.3,0,0,0-2.3,2.3V23.117a2.3,2.3,0,0,0,2.3,2.3H28.976a2.3,2.3,0,0,0,2.3-2.3Zm-5.323-4.3,3.984,4.065H26.649a.691.691,0,0,1-.691-.691ZM28.976,24.5H17.584A1.382,1.382,0,0,1,16.2,23.117V6.7a1.382,1.382,0,0,1,1.382-1.382h7.452v4a1.613,1.613,0,0,0,1.613,1.613h3.71V23.117A1.382,1.382,0,0,1,28.976,24.5Z" transform="translate(0)"/><path class="b" d="M47.221,48.26h-6.21a.461.461,0,0,0,0,.922h6.21a.461.461,0,1,0,0-.922Z" transform="translate(-19.447 -33.754)"/><path class="b" d="M28.191,47.26a.691.691,0,1,0,0,1.382H28.2a.691.691,0,0,0,0-1.382Z" transform="translate(-9.404 -32.984)"/><path class="b" d="M47.223,61.26h-6.21a.461.461,0,0,0,0,.922h6.21a.461.461,0,1,0,0-.922Z" transform="translate(-19.45 -43.759)"/><path class="b" d="M28.194,60.26a.691.691,0,0,0,0,1.382h.012a.691.691,0,0,0,0-1.382Z" transform="translate(-9.407 -42.989)"/><path class="b" d="M47.221,74.26h-6.21a.461.461,0,1,0,0,.922h6.21a.461.461,0,1,0,0-.922Z" transform="translate(-19.447 -53.763)"/><path class="b" d="M28.191,73.26a.691.691,0,1,0,0,1.382H28.2a.691.691,0,1,0,0-1.382Z" transform="translate(-9.404 -52.994)"/></g></g></g></svg>