<svg xmlns="http://www.w3.org/2000/svg" width="24" height="24" viewBox="0 0 24 24"><defs><style>.a{fill:none;}.b{fill:#fff;}</style></defs><g transform="translate(-49 -145)"><g transform="translate(49 145)"><path class="a" d="M0,0H24V24H0Z"/><g transform="translate(-14.877 -6)"><path class="b" d="M18,9.27V26.86A3.136,3.136,0,0,0,21.132,30H32.4a2.992,2.992,0,0,0,2.984-3.011V12.265a1.819,1.819,0,0,0-.527-1.3L30.438,6.54a1.816,1.816,0,0,0-1.3-.54h-7.88A3.266,3.266,0,0,0,18,9.27ZM32.395,28.9H21.131A2.031,2.031,0,0,1,19.1,26.86V9.27A2.161,2.161,0,0,1,21.261,7.1h7.774v3.423a1.82,1.82,0,0,0,1.818,1.818h3.423V26.989A1.887,1.887,0,0,1,32.395,28.9Zm1.19-17.655H30.852a.715.715,0,0,1-.714-.715V7.794Z"/><path class="b" d="M29,49.759H40.31V39H29Zm1.1-1.1v-.833c.562-1.12,1.394-2.139,1.748-2.139.263,0,.377.1.635.331a2.172,2.172,0,0,0,1.609.69A2.675,2.675,0,0,0,36,45.452c.433-.511.84-.993,1.326-.993s.932,1.08,1.226,1.8a4.131,4.131,0,0,0,.654,1.2v1.2Zm9.1-8.552v4.865c-.4-.831-.963-1.614-1.874-1.614a2.993,2.993,0,0,0-2.17,1.382c-.377.444-.733.863-1.066.863a1.109,1.109,0,0,1-.865-.4,1.913,1.913,0,0,0-1.38-.62A2.548,2.548,0,0,0,30.1,45.75V40.1Z" transform="translate(-7.966 -23.897)"/><path class="b" d="M37.012,48.311a1.572,1.572,0,1,0-1.572-1.572A1.574,1.574,0,0,0,37.012,48.311Zm0-2.041a.469.469,0,1,1-.469.469A.47.47,0,0,1,37.012,46.27Z" transform="translate(-12.629 -28.362)"/></g></g></g></svg>