<svg xmlns="http://www.w3.org/2000/svg" width="24" height="24" viewBox="0 0 24 24"><defs><style>.a{fill:none;}.b{fill:#fff;stroke:#fff;stroke-width:0.5px;}</style></defs><g transform="translate(-49 -145)"><g transform="translate(49 145)"><path class="a" d="M0,0H24V24H0Z"/><g transform="translate(-108.154 35.864)"><path class="b" d="M117.632-18.479l-.065-.161a2.14,2.14,0,0,0,.164-.987.416.416,0,0,0-.135-.281l-1-.923a.434.434,0,0,0-.291-.111,2.138,2.138,0,0,0-.97.245l-.166-.05a2.139,2.139,0,0,0-.671-.744.419.419,0,0,0-.3-.07l-1.345.21a.419.419,0,0,0-.268.159,2.134,2.134,0,0,0-.414.912l-.142.1a2.145,2.145,0,0,0-1,.06.42.42,0,0,0-.244.194l-.674,1.183a.422.422,0,0,0-.042.309,2.133,2.133,0,0,0,.453.89l-.012.172a2.14,2.14,0,0,0-.576.819.418.418,0,0,0,0,.312l.5,1.265a.423.423,0,0,0,.214.226,2.153,2.153,0,0,0,.982.2l.126.117a2.146,2.146,0,0,0,.281.961.416.416,0,0,0,.243.195l1.3.4a.414.414,0,0,0,.122.018.419.419,0,0,0,.188-.045,2.139,2.139,0,0,0,.769-.642l.171-.026a2.146,2.146,0,0,0,.927.378.416.416,0,0,0,.3-.069l1.122-.772a.419.419,0,0,0,.173-.259,2.142,2.142,0,0,0-.023-1l.084-.15a2.138,2.138,0,0,0,.874-.488.42.42,0,0,0,.136-.281l.1-1.358a.416.416,0,0,0-.095-.3A2.139,2.139,0,0,0,117.632-18.479Zm-.028,2.021a1.285,1.285,0,0,1-.336.185.419.419,0,0,0-.461.2l-.323.565a.42.42,0,0,0,.061.5,1.269,1.269,0,0,1,.01.382l-.822.566a1.265,1.265,0,0,1-.353-.146.419.419,0,0,0-.444-.236l-.641.1a.419.419,0,0,0-.352.36,1.263,1.263,0,0,1-.294.246l-.955-.29a1.271,1.271,0,0,1-.106-.367.419.419,0,0,0-.092-.494l-.479-.441a.419.419,0,0,0-.5-.051,1.313,1.313,0,0,1-.375-.075l-.369-.928A1.283,1.283,0,0,1,111-16.7a.419.419,0,0,0,.328-.38l.046-.649a.42.42,0,0,0-.272-.422,1.3,1.3,0,0,1-.175-.34l.5-.867a1.265,1.265,0,0,1,.381-.021.419.419,0,0,0,.5.02l.537-.369A.42.42,0,0,0,113-20.2a1.3,1.3,0,0,1,.156-.349l.987-.153a1.277,1.277,0,0,1,.255.285.42.42,0,0,0,.3.405l.623.189a.42.42,0,0,0,.473-.172,1.282,1.282,0,0,1,.37-.095l.735.674a1.27,1.27,0,0,1-.064.378.419.419,0,0,0-.132.485l.241.605a.419.419,0,0,0,.428.263,1.268,1.268,0,0,1,.305.23Zm-2.591-2.2a1.678,1.678,0,0,0-2.289.625,1.678,1.678,0,0,0,.626,2.289,1.676,1.676,0,0,0,.828.221,1.683,1.683,0,0,0,.443-.06,1.678,1.678,0,0,0,1.178-2.06A1.679,1.679,0,0,0,115.014-18.657Zm-.1,1.873a.839.839,0,0,1-1.145.312.839.839,0,0,1-.312-1.145.839.839,0,0,1,1.145-.312.84.84,0,0,1,.393.508A.835.835,0,0,1,114.909-16.784Zm7.189-8.18a4.95,4.95,0,0,0,4.952-4.948,4.95,4.95,0,0,0-4.948-4.952,4.95,4.95,0,0,0-4.952,4.948v0A4.954,4.954,0,0,0,122.1-24.964Zm0-9.058a4.111,4.111,0,0,1,4.113,4.109A4.111,4.111,0,0,1,122.1-25.8a4.111,4.111,0,0,1-4.113-4.109v0A4.114,4.114,0,0,1,122.1-34.022Zm8.339,18.378a.419.419,0,0,1-.419.414h0a.42.42,0,0,1-.415-.424h0a8.01,8.01,0,0,0-2.068-5.2,7.2,7.2,0,0,0-5.424-1.857,8.44,8.44,0,0,0-3.821.722.42.42,0,0,1-.547-.229.42.42,0,0,1,.185-.526,9.314,9.314,0,0,1,4.184-.8,7.955,7.955,0,0,1,6.021,2.106,8.719,8.719,0,0,1,2.312,5.8Z"/></g></g></g></svg>