<svg xmlns="http://www.w3.org/2000/svg" width="32" height="32" viewBox="0 0 32 32"><defs><style>.a{fill:#fff;}.b{fill:none;}</style></defs><g transform="translate(-8 -8)"><g transform="translate(-207.993 -178.735)"><path class="a" d="M244.543,212.515l-7.4-6.869a10.029,10.029,0,0,0-15.215-12.972,10.034,10.034,0,0,0,7.094,17.129,9.934,9.934,0,0,0,5.973-1.984c.017.017.029.036.046.053l7.421,6.887a1.406,1.406,0,0,0,1.987-.074l.169-.182A1.406,1.406,0,0,0,244.543,212.515Zm-21.334-6.933a8.22,8.22,0,1,1,5.812,2.407A8.23,8.23,0,0,1,223.21,205.582Z" transform="translate(0)"/></g><rect class="b" width="32" height="32" transform="translate(8 8)"/></g></svg>