<svg xmlns="http://www.w3.org/2000/svg" xmlns:xlink="http://www.w3.org/1999/xlink" width="636.924" height="491.656" viewBox="0 0 636.924 491.656"><defs><style>.a{fill:#a8e6a3;}.b{fill:#b1e8ad;}.c{fill:none;}.d{clip-path:url(#a);}.e{fill:#c5e5c2;}.f{fill:#dbf0d9;}.g{fill:#d9f4d6;}.h{opacity:0.5;}.i{clip-path:url(#b);}.j{clip-path:url(#e);}.k{fill:#3d4459;}.l{fill:#e8bb9c;}.m{fill:#dda078;}.n{fill:#2b478b;}.o{fill:#b64c41;}.p{fill:#b0e8ad;}.q{fill:#406060;}.r{fill:#eae081;}.s{fill:#c6bc71;}.t{clip-path:url(#f);}.u{clip-path:url(#g);}.v{fill:#9dd884;}.w{fill:#d9935c;}.x{fill:#cb7d45;}.y{fill:#202935;}.z{opacity:0.17;}.ac,.z{mix-blend-mode:multiply;isolation:isolate;}.aa{clip-path:url(#h);}.ab{fill:#333d4f;}.ac{opacity:0.57;}.ad{clip-path:url(#i);}.ae{fill:#e9f3fe;}.af{fill:#bed4f4;}.ag{fill:#afcdfb;}.ah{fill:#233862;}.ai{clip-path:url(#j);}.aj{clip-path:url(#k);}.ak{clip-path:url(#l);}</style><clipPath id="a"><rect class="a" width="624.5" height="491.656" transform="translate(0 0)"/></clipPath><clipPath id="b"><rect class="b" width="86.072" height="51.17"/></clipPath><clipPath id="e"><rect class="c" width="118.495" height="370.449"/></clipPath><clipPath id="f"><rect class="c" width="149.415" height="370.248"/></clipPath><clipPath id="g"><rect class="c" width="149.415" height="370.249"/></clipPath><clipPath id="h"><rect class="c" width="52.08" height="102.077"/></clipPath><clipPath id="i"><rect class="c" width="23.952" height="81.077"/></clipPath><clipPath id="j"><rect class="c" width="14.711" height="27.22"/></clipPath><clipPath id="k"><rect class="c" width="23.052" height="10.131"/></clipPath><clipPath id="l"><rect class="c" width="19.787" height="6.739"/></clipPath></defs><g transform="translate(256.924 -991.548)"><g transform="translate(-244.5 991.547)"><g class="d" transform="translate(0 0.001)"><path class="a" d="M624.369,308.79c-.191-3.607-.636-7.192-1.022-10.782-.379-3.53-.708-7.06-1.279-10.564-1.778-10.92-5.76-20.886-9.814-31.152a105.231,105.231,0,0,0-9.8-18.992q-1.491-2.278-3.1-4.476c-3.268-4.462-6.5-8.977-9.992-13.278q-2.667-3.287-5.6-6.342c-.345-.408-.688-.816-1.04-1.217-5.4-6.161-12.232-11.279-18.836-15.968q-2.285-1.623-4.713-3.032-1.12-.755-2.259-1.476-2.223-1.405-4.523-2.681a32.612,32.612,0,0,0-13.286-4.949,92.99,92.99,0,0,0-16.105-4.473,279.26,279.26,0,0,0-27.862-3.89c-11.832-1.028-23.72-1.292-35.537-2.5q-1.373-.141-2.745-.3a129.939,129.939,0,0,1-21.324-6.1,139.108,139.108,0,0,1-20.143-11.892c-1.474-8.142-3.047-16.264-4.908-24.33a240.2,240.2,0,0,0-7.51-26.331c-4.134-11.656-8.642-23.475-14.843-34.234a149.343,149.343,0,0,0-22.164-29.62c-5.49-5.62-11.767-10.331-17.981-15.117a87.975,87.975,0,0,0-11.321-7.44A132.934,132.934,0,0,0,302.232,4.212,157.1,157.1,0,0,0,265.159.024,234.054,234.054,0,0,0,241.075,2.16,134.837,134.837,0,0,0,227.755,4.5c-12.579,2.865-24.8,7.58-36.574,12.756a143.922,143.922,0,0,0-24.418,13.731A270.676,270.676,0,0,0,134.6,56.706c-17.246,16.442-32.037,35.606-45.63,55.111-11.918,17.1-22.732,34.945-33.549,52.754C43.754,183.777,32.294,203.2,23.247,223.812c-5.865,13.36-11.555,26.754-15.461,40.836A232.267,232.267,0,0,0,.53,305.964C-.722,320.021.405,333.83,2.218,347.813c1.809,13.958,6.436,26.781,11.809,39.756,5.013,12.105,12.521,22.377,20.484,32.721a113.338,113.338,0,0,0,18.1,18.536c9.51,7.776,19.18,15.161,29.97,21.052a245.835,245.835,0,0,0,33.878,15c20.292,7.369,41.728,11.159,63.116,13.631a362.541,362.541,0,0,0,64.256,1.255q8.266.675,16.559,1.11a595.965,595.965,0,0,0,66.85-.329q21.449-1.311,42.853-3.894c33.162,2.923,66.519,2.167,99.424-3.759,19.552-3.521,37.966-9.775,56.369-17.179a190.449,190.449,0,0,0,41.94-23.209c8.805-6.487,18.71-13,25.77-21.572,4.351-5.281,9.046-10.709,12.331-16.8a132.244,132.244,0,0,0,6.263-14.19,29.259,29.259,0,0,0,1.46-4.8,88.08,88.08,0,0,0,2.128-14.614c.028-.778-.014-1.544-.061-2.32-.127-2.094-.274-4.267-.494-6.433l.342-.836a100.554,100.554,0,0,0,3.477-9.987,97.345,97.345,0,0,0,2.421-10.477,195.8,195.8,0,0,0,2.856-21.021,92.19,92.19,0,0,0,.048-10.664M411.3,360.237c.275-1.354.554-2.736.815-4.135q2.524,2.271,5.128,4.463-3.3,1.26-6.617,2.5c.253-.93.48-1.873.674-2.831" transform="translate(0 -0.001)"/></g></g><g transform="translate(-269.39 1119.523)"><g transform="translate(0 0.001)"><g transform="translate(-33.61)"><path class="e" d="M105.411,82.684h3.335V53.925l1.047-.087V42.408l-.3-.946L255.292,0l60.865,38.761-.585.819a3.5,3.5,0,0,1,3.589,3.388V62.734a3.5,3.5,0,0,1-3.589,3.388H285.064a3.5,3.5,0,0,1-3.589-3.388v-7.9H261.137V458.466H237.21V54.829H138.785L111.347,82.684h5.629a3.5,3.5,0,0,1,3.589,3.388V89.46a3.5,3.5,0,0,1-3.589,3.388H105.411a3.5,3.5,0,0,1-3.589-3.388V86.072a3.5,3.5,0,0,1,3.589-3.388M254.945,2.167,113.422,42.408H281.529a3.546,3.546,0,0,1,3.535-2.823H313.7ZM121.676,54.829l-10.836.9V80.3l25.087-25.468Z" transform="translate(-55.746 -97.971)"/><path class="f" d="M1885.977,326.122h0l-.461-.645,47.907-30.509L2048.186,327.6l-.238.745v9l.824.069v22.637h2.625a2.757,2.757,0,0,1,2.825,2.667v2.666a2.757,2.757,0,0,1-2.825,2.666h-9.1a2.757,2.757,0,0,1-2.825-2.666v-2.666a2.757,2.757,0,0,1,2.825-2.667h4.43l-21.6-21.925h-77.471V624.33h-18.834V338.122h-16.009v6.222a2.757,2.757,0,0,1-2.824,2.667h-24.013a2.757,2.757,0,0,1-2.825-2.667V328.789a2.757,2.757,0,0,1,2.825-2.667m47.72-29.452-46.247,29.452h22.54a2.79,2.79,0,0,1,2.782,2.222h132.32Zm113.427,61.5V338.834l-8.529-.712h-11.217Z" transform="translate(-1461.69 -311.426)"/><rect class="g" width="118.915" height="349.285" transform="translate(281.314 11.369)"/><g class="h" transform="translate(281.313 59.564)"><g class="i"><rect class="b" width="86.071" height="51.17" transform="translate(0.001 -0.001)"/></g></g><g class="h" transform="translate(281.313 153.264)"><g class="i"><rect class="b" width="86.071" height="51.17" transform="translate(0.001 0)"/></g></g><g class="h" transform="translate(281.313 245.754)"><g class="i"><rect class="b" width="86.071" height="51.17" transform="translate(0.001)"/></g></g><path class="b" d="M1737.669,336.263h-16.047V288.945h-132.2V51.035h-32.844V400.517h32.844v-.2h148.243Z" transform="translate(-1189.197 -39.666)"/><path class="f" d="M868.934,439.663v-1.885h-4.371V425.335h-3.618v12.443H851.78V425.335h-3.618v12.443H838.2V425.335h-3.618v12.443h-9.164V425.335H821.8v12.443h-4.794v1.885H821.8v6.058h-4.794v1.885H821.8v6.058h-4.794v1.885H821.8v6.058h-4.794v1.885H821.8v6.058h-4.794v1.885H821.8v6.058h-4.794v1.885H821.8v4.9h-4.794v1.885H821.8v6.058h-4.794v1.885H821.8v6.058h-4.794v1.885H821.8v6.058h-4.794v1.885H821.8v6.058h-4.794v1.885H821.8v6.058h-4.794v1.885H821.8v5.781h-4.794v1.885H821.8V539.6h-4.794v1.885H821.8v6.058h-4.794v1.885H821.8v6.058h-4.794v1.885H821.8v6.058h-4.794v1.885H821.8v6.058h-4.794v1.885H821.8v4.9h-4.794v1.885H821.8v6.058h-4.794v1.885H821.8v6.058h-4.794v1.885H821.8v6.058h-4.794v1.885H821.8v6.058h-4.794v1.885H821.8v6.058h-4.794v1.885H821.8v5.4h-4.794v1.885H821.8v6.058h-4.794V635H821.8v6.058h-4.794v1.885H821.8V649h-4.794v1.885H821.8v6.058h-4.794v1.885H821.8v6.058h-4.794v1.885H821.8v4.9h-4.794v1.885H821.8v6.058h-4.794V681.5H821.8v6.058h-4.794v1.885h51.929v-1.885h-4.371V681.5h4.371v-1.885h-4.371v-6.058h4.371V671.67h-4.371v-4.9h4.371v-1.885h-4.371v-6.058h4.371V656.94h-4.371v-6.058h4.371V649h-4.371V642.94h4.371v-1.885h-4.371V635h4.371v-1.885h-4.371v-6.058h4.371v-1.885h-4.371v-5.4h4.371v-1.885h-4.371v-6.058h4.371v-1.885h-4.371v-6.058h4.371v-1.885h-4.371v-6.058h4.371v-1.885h-4.371v-6.058h4.371v-1.885h-4.371v-6.058h4.371v-1.885h-4.371v-4.9h4.371v-1.885h-4.371v-6.058h4.371v-1.885h-4.371v-6.058h4.371V555.49h-4.371v-6.058h4.371v-1.885h-4.371V541.49h4.371V539.6h-4.371v-6.058h4.371v-1.885h-4.371V525.88h4.371v-1.885h-4.371v-6.058h4.371v-1.885h-4.371v-6.058h4.371v-1.885h-4.371v-6.058h4.371v-1.885h-4.371v-6.058h4.371v-1.885h-4.371v-6.058h4.371v-1.885h-4.371v-4.9h4.371v-1.885h-4.371v-6.058h4.371V469.55h-4.371v-6.058h4.371v-1.885h-4.371v-6.058h4.371v-1.885h-4.371v-6.058h4.371v-1.885h-4.371v-6.058Zm-20.771,6.058H838.2v-6.058h9.964ZM838.2,673.555h9.964v6.058H838.2Zm9.964,14H838.2V681.5h9.964ZM838.2,666.768h9.964v4.9H838.2Zm0-7.943h9.964v6.058H838.2Zm0-7.943h9.964v6.058H838.2Zm0-7.943h9.964V649H838.2Zm0-7.943h9.964v6.058H838.2Zm0-7.943h9.964v6.058H838.2Zm0-7.289h9.964v5.4H838.2Zm0-7.943h9.964v6.058H838.2Zm0-7.943h9.964v6.058H838.2Zm0-7.943h9.964v6.058H838.2Zm0-7.943h9.964v6.058H838.2Zm0-7.943h9.964v6.058H838.2Zm0-6.787h9.964v4.9H838.2Zm0-7.943h9.964v6.058H838.2Zm0-7.943h9.964v6.058H838.2Zm0-7.943h9.964v6.058H838.2Zm0-7.943h9.964v6.058H838.2Zm0-7.943h9.964V539.6H838.2Zm0-7.667h9.964v5.781H838.2Zm0-7.943h9.964v6.058H838.2Zm0-7.943h9.964v6.058H838.2Zm0-7.943h9.964v6.058H838.2Zm0-7.943h9.964v6.058H838.2Zm0-7.943h9.964v6.058H838.2Zm0-6.787h9.964v4.9H838.2Zm0-7.943h9.964v6.058H838.2Zm0-7.943h9.964v6.058H838.2Zm0-7.943h9.964v6.058H838.2Zm0-7.943h9.964v6.058H838.2Zm-12.782-7.943h9.165v6.058h-9.165Zm0,7.943h9.165v6.058h-9.165Zm0,7.943h9.165v6.058h-9.165Zm0,7.943h9.165v6.058h-9.165Zm0,7.943h9.165v6.058h-9.165Zm0,7.943h9.165v4.9h-9.165Zm0,6.787h9.165v6.058h-9.165Zm0,7.943h9.165v6.058h-9.165Zm0,7.943h9.165v6.058h-9.165Zm0,7.943h9.165v6.058h-9.165Zm0,7.943h9.165v6.058h-9.165Zm0,7.943h9.165v5.781h-9.165Zm0,7.667h9.165V539.6h-9.165Zm0,7.943h9.165v6.058h-9.165Zm0,7.943h9.165v6.058h-9.165Zm0,7.943h9.165v6.058h-9.165Zm0,7.943h9.165v6.058h-9.165Zm0,7.943h9.165v4.9h-9.165Zm0,6.787h9.165v6.058h-9.165Zm0,7.943h9.165v6.058h-9.165Zm0,7.943h9.165v6.058h-9.165Zm0,7.943h9.165v6.058h-9.165Zm0,7.943h9.165v6.058h-9.165Zm0,7.943h9.165v5.4h-9.165Zm0,7.289h9.165v6.058h-9.165Zm0,7.943h9.165v6.058h-9.165Zm0,7.943h9.165V649h-9.165Zm0,7.943h9.165v6.058h-9.165Zm0,7.943h9.165v6.058h-9.165Zm0,7.943h9.165v4.9h-9.165Zm0,6.787h9.165v6.058h-9.165Zm0,7.943h9.165v6.058h-9.165Zm35.528,6.058H851.78V681.5h9.165Zm0-7.943H851.78v-6.058h9.165Zm0-7.943H851.78v-4.9h9.165Zm0-6.787H851.78v-6.058h9.165Zm0-7.943H851.78v-6.058h9.165Zm0-7.943H851.78V642.94h9.165Zm0-7.943H851.78V635h9.165Zm0-7.943H851.78v-6.058h9.165Zm0-7.943H851.78v-5.4h9.165Zm0-7.29H851.78v-6.058h9.165Zm0-7.943H851.78v-6.058h9.165Zm0-7.943H851.78v-6.058h9.165Zm0-7.943H851.78v-6.058h9.165Zm0-7.943H851.78v-6.058h9.165Zm0-7.943H851.78v-4.9h9.165Zm0-6.787H851.78v-6.058h9.165Zm0-7.943H851.78v-6.058h9.165Zm0-7.943H851.78v-6.058h9.165Zm0-7.943H851.78V541.49h9.165Zm0-7.943H851.78v-6.058h9.165Zm0-7.943H851.78V525.88h9.165Zm0-7.667H851.78v-6.058h9.165Zm0-7.943H851.78v-6.058h9.165Zm0-7.943H851.78v-6.058h9.165Zm0-7.943H851.78v-6.058h9.165Zm0-7.943H851.78v-6.058h9.165Zm0-7.943H851.78v-4.9h9.165Zm0-6.787H851.78v-6.058h9.165Zm0-7.943H851.78v-6.058h9.165Zm0-7.943H851.78v-6.058h9.165Zm0-7.943H851.78v-6.058h9.165Zm0-7.943H851.78v-6.058h9.165Z" transform="translate(-624.175 -330.579)"/></g></g></g><g transform="translate(-126.63 1110)"><g class="j" transform="translate(0 0)"><path class="k" d="M208.976,1090.808s.332-7.2,2.262-11.055,17.368-1.206,17.368-1.206,3.558,6.438,3.076,12.227Z" transform="translate(-139.69 -720.358)"/><path class="k" d="M84.018,1090.808s.332-7.2,2.262-11.055,17.368-1.206,17.368-1.206,3.558,6.438,3.076,12.227Z" transform="translate(-56.162 -720.358)"/><path class="l" d="M162.962,164.073c-1.928,1.4-19.384,10.508-19.384,10.508l-18.406-13.124s5.59-.814,5.738-.858c1.661-.463,1.585-4.917,1.795-9.661.033-.731.073-1.469.127-2.2l18.023-.655.015.224c.014.228.033.467.051.716l.036.514c.011.177.025.354.039.539.326,4.168,1.021,10.055,2.352,10.743.756.391,5.887.329,9.614,3.253" transform="translate(-83.671 -98.987)"/><path class="m" d="M166.184,150.078c-1.487,2.974-4.8,8.152-9.708,7.982-4.689-.166-7.36-4.429-8.583-7.121.033-.731.073-1.469.127-2.2l18.023-.655.015.224.051.716.036.514c.011.177.025.354.04.539" transform="translate(-98.859 -98.987)"/><path class="n" d="M141.81,21.21s8.694-8.657,18.95.175c0,0-6.1-1.266-18.95-.175" transform="translate(-94.793 -11.641)"/><path class="k" d="M122.406,56.558a74.59,74.59,0,0,1-4.451-12.338c-1.213-4.739-.1-22.725,17.979-21.5A24.368,24.368,0,0,1,146.3,25.772c4.081,2.332,10.112,7.575,5.009,23.58l-1.234,5.37Z" transform="translate(-78.616 -15.146)"/><path class="l" d="M155.046,88.074c-4.668,4.463-10.467,10.41-22.967-.588-2.445-2.152-2.279-5.46-2.422-10.211-.172-5.624-1.525-9.067-.9-12.31.746-3.878,4.063-5.631,10.947-6.23,12.639-1.1,19.027,1.751,18.178,8.022-1.894,14,1.907,16.779-2.839,21.318" transform="translate(-85.959 -39.107)"/><path class="o" d="M177.309,56.216s7.492-.157,9.2,2.347,1.948,5.308,2.81,6.72a5.44,5.44,0,0,1,.72,3L191.7,57.1l-10.14-2.016Z" transform="translate(-118.522 -36.819)"/><path class="p" d="M135,205.982s-3.2,9.429-16.171,11.155c-.351.047-.713.087-1.078.123H64.92s-.1-.029-.282-.087c-2.051-.651-14.673-4.975-16-13.062,0,0,6.636-13.626,11.7-15.316a32.13,32.13,0,0,1,5.671-1.143c2.2-.282,4.508-.47,6.447-.593,2.67-.166,4.632-.21,4.632-.21a15.918,15.918,0,0,0,14.126,8.217c10.012-.119,12.331-8.094,12.331-8.094s2.811.08,6.546.485c2.059.22,4.4.539,6.7,1,3.9.778,7.707,1.95,9.882,3.716,5.79,4.7,8.323,13.811,8.323,13.811" transform="translate(-32.511 -124.899)"/><path class="q" d="M128.063,279.333c-.562-3.123-1.4-7.877-2.055-12.058,0-.056,1.958-23.606,2.681-27.581s-4.194-25.636-4.194-25.636c-1.143-3.315-3.083-4.328-4.57-4.328l2.5-20.852c-2.3-.46-4.642-.778-6.7-1l-1.2,21.851-.018.315c-2.739.152-6.155.337-9.335.477s-6.126.25-7.939.25c-3.687,0-12.146-.423-17.766-.731l-.022-.311-1.357-22.249c-1.939.123-4.252.311-6.447.593l2.388,21.656v0c-1.574,0-3.383,2.793-3.632,4.346l-.244,6.776c-1.189,3.411-3.653,10.988-4.062,16.306-.541,7.031,2.4,31.491,2.416,31.66-.107,2.916-.314,6.642-.712,10.248-2.207,5.981-11.622,33.8-10.663,71.195.894,34.913,1.422,94.569,5.536,123.534a79.065,79.065,0,0,0,2.3,11.441,3.861,3.861,0,0,0,3.169,2.682c4.718.654,15.351,1.859,19.928.2,2.193-.8,3.763-12.976,4.874-28.672,1.064-15.049,1.7-33.336,2.059-47.932,0,0,0,0,0-.007.286-11.637.394-20.925.394-24.363,0-7.78,1.838-30.6,2.446-44.028a.3.3,0,0,1,.6-.007v0c.923,15.939,4.143,40.11,4.194,45.479.119,13.026-.638,96.715,5.055,99.527,4.353,2.149,14.611.525,19.511-.139a4.513,4.513,0,0,0,3.728-3.221c6.123-21.057,6.665-94.226,7.7-134.492.945-36.875-8.192-64.432-10.566-70.931" transform="translate(-38.144 -125.322)"/><path class="l" d="M41.939,333.647c-1.809,1.447-7.717.843-10.008-1.085s-6.875-1.328-7.961-2.052c-.076-.05-21.41-25.332-23.722-35.97-2.334-10.736,12.432-40.28,16.612-48.334,3.093,6.535,13.4,10.063,15.236,10.645.185.058.282.087.282.087h.572c-3.477,9.4-13.873,26.323-17.878,32.7a5.53,5.53,0,0,0-.333,5.268c5.145,11.033,10.178,20.339,12.382,26.787.437.717,1.379,2,2.514,1.824,1.571-.242,6.636-1.328,9.169,2.41s4.943,6.274,3.133,7.721" transform="translate(0 -164.576)"/><path class="r" d="M143.64,9.826a26.656,26.656,0,0,0-3.88-4c-.4-.341-.819-.685-1.271-1.025-4.58-3.485-11.911-6.887-20.748-3.2A19.716,19.716,0,0,0,111.7,5.521q-.587.556-1.112,1.145c-7.662,8.5-7.013,21.833-7.013,21.833l44.214-.472c.144-12.343-4.149-18.2-4.149-18.2" transform="translate(-69.226 -0.002)"/><path class="s" d="M135.4,38.638c-.124-1.859-.97-17.114,4.39-22.331a8.91,8.91,0,0,0-.752-.627c-5.715,6-6.082,21.021-6.06,22.984l-14.134.152C118.422,27.986,112.446,17.2,111.728,16a9.98,9.98,0,0,0-.815.837c1.037,1.824,4.94,12.264,5.313,22.005l-12.623.135s11.776,3.044,20.645,2.934,23.568-3.407,23.568-3.407Z" transform="translate(-69.253 -10.482)"/><path class="k" d="M71.886,173.788C67.363,182.472,54.518,184.1,54.518,184.1c4.161-10.132-4.223-13.326-9.408-23.7s3.98-17.249,3.98-17.249c-5.67,1.086-6.755,8.684-6.755,8.684-.481-5.066,3.741-13.627,17.129-15.317,9.8-1.237,12.168-4.541,12.733-6.223.221,2.182.749,3.889,2.215,5.178,1.035.912,2.026,1.7,2.971,2.4-.022.395-.039.789-.058,1.18-.058,1.335-.094,2.648-.155,3.854a6.53,6.53,0,0,0-1.4,5.706,6.343,6.343,0,0,0,.464,1.418,11.962,11.962,0,0,1,2.323,5.786c.622,5.739-3.274,11.466-6.665,17.976" transform="translate(-28.274 -87.097)"/><path class="k" d="M149.626,439.642l-1.954-11.488a89.579,89.579,0,0,1-26.448,5.491,6.391,6.391,0,0,0-4.709-3.288l-7.016-1.015a6.392,6.392,0,0,0-6.593,3.4,69.57,69.57,0,0,1-12.729-3.1l0,.061-.7,10.088v.025c4.052,1.078,7.939,1.916,11.654,2.554l-.207,1.4a6.4,6.4,0,0,0,5.378,7.259l7.776,1.165a6.4,6.4,0,0,0,7.332-5.926l.136-2.163c14.822-.076,24.671-3.193,28.083-4.466" transform="translate(-59.809 -286.199)"/><path class="l" d="M271.315,295.744c-2.313,10.638-23.646,35.919-23.723,35.97a2.317,2.317,0,0,1-.836.275c-.014,0-.026,0-.04.007-1.762.3-5.2.177-7.085,1.77-2.29,1.928-8.2,2.532-10.012,1.085s.6-3.98,3.137-7.722,7.6-2.652,9.165-2.409c.933.141,1.741-.7,2.236-1.4l.029-.04c.094-.138.181-.268.25-.384,2.156-6.307,7.016-15.338,12.038-26.052a6.977,6.977,0,0,0-.4-6.661c-3.354-5.359-10.164-16.493-14.546-25.426-.509-2.583-1.02-5.011-1.415-6.85,9.625-1.549,13.609-7.4,14.9-9.9,4.549,8.825,18.581,37.251,16.3,47.737" transform="translate(-153.068 -165.78)"/></g></g><g transform="translate(9.428 1110)"><g class="t"><g transform="translate(0 -0.001)"><g class="u"><path class="v" d="M337.033,281.183c-3.754,11.49-24.21,31.349-27.038,33.33,0,0-4.76-7.933-3.808-12.375.777-3.626,8.742-16.553,11.468-22.906.142-.33.269-.644.381-.936a5.722,5.722,0,0,0,.527-2.177c-.137-1.38-4.474-4.737-9.516-8.72-6.552-5.179-14.295-11.407-15.551-15.713-2.221-7.615-9.916-37.769-9.916-37.769s19.118,4.134,24.512,8.894,28.558,44.423,29.509,54.576a9.532,9.532,0,0,1-.568,3.8" transform="translate(-201.13 -151.72)"/><path class="w" d="M391.876,437.119c-3.754,11.49-24.21,31.349-27.038,33.33,0,0-4.76-7.933-3.808-12.375.819-3.814,9.589-17.921,11.848-23.842,3.4-.59,11.378-1.314,19,2.888" transform="translate(-255.973 -307.656)"/><path class="w" d="M225.148,171.854l-.012,2.342s.638,7.323-8.38,8.393-15.808-2.2-15.564-7.85c.812-4.375,1.663-8.037,1.723-11.658a25.5,25.5,0,0,0-.32-4.385l17.474-.349,5.147.841Z" transform="translate(-142.691 -112.306)"/><path class="x" d="M228.652,159.186l-.067,12.667a14.779,14.779,0,0,1-6.3,1.39c-8.031,0-13.222-5.889-15.935-10.163a25.469,25.469,0,0,0-.32-4.385l17.474-.349Z" transform="translate(-146.128 -112.305)"/><path class="y" d="M181.08,1241.72s-.848-6.607-2.812-10.535-14.464-1.428-14.464-1.428-2.5,2.143-3.035,12.142Z" transform="translate(-114.026 -871.649)"/><path class="y" d="M372.856,1221.779c-2.937-1.793-1.266-15.166-1.266-15.166s13.686-10.948,15.568-2.566,13,12.146,19.331,13.173c4.369.708,5.722,3.128,6.141,4.559Z" transform="translate(-263.215 -851.73)"/><path class="q" d="M230.525,684.076a63.191,63.191,0,0,1,1,7.392c1.272,24.816,20.889,81.556,24.4,82.88,5.429,2.049,13.979-2.306,18.452-3.731a3.836,3.836,0,0,0,2.692-4.358c-9.715-44.661-13.285-108.97-14.584-147.044a172.785,172.785,0,0,0-3.948-32.425s-47.846-12.765-48.129,3.383c-.252,14.29,15.848,70.331,20.115,93.9" transform="translate(-149.231 -412.782)"/><g class="z" transform="translate(61.175 169.217)"><g class="aa"><path class="ab" d="M230.525,684.076l31.962-64.862a172.785,172.785,0,0,0-3.948-32.425s-47.846-12.765-48.129,3.383c-.252,14.29,15.848,70.331,20.115,93.9" transform="translate(-210.407 -581.999)"/></g></g><path class="q" d="M185.29,596.077,160,779.393s-11.107,2.678-19.746.536c0,0-7.4-97.5-6.788-121.066s-5.315-63.07,1.354-67.426,50.473,4.641,50.473,4.641" transform="translate(-93.352 -418.631)"/><path class="v" d="M202.095,329.5s-12.924,7.536-31.645,7.323a140.251,140.251,0,0,1-19.035-1.431c-15.015-2.227-22.592-6.419-22.532-7.98.051-1.409.149-6.09.327-8.1,2.386-27.517,1.152-48.919,4.363-65,.038-.194.076-.388.117-.578,4.249-20.441,10.909-32.184,14.215-37a18.243,18.243,0,0,1,2.006-2.589c0,3.814,8.123,7.108,14.745,6.676,5.578-.365,9.2-4.607,9.2-6.9l.006-.006c.457,0,25.162,17.172,25.184,33.13.086,71.514,4.42,82.483,3.049,82.458" transform="translate(-91.41 -151.72)"/><g class="ac" transform="translate(37.473 102.6)"><g class="ad"><path class="v" d="M151.45,433.721c-.013.079-.022.159-.035.235-15.015-2.227-22.592-6.419-22.532-7.98.051-1.409.149-6.089.327-8.1,2.386-27.517,1.152-48.919,4.363-65,7.882,10.534,24.083,38.124,17.877,80.843" transform="translate(-128.883 -352.878)"/></g></g><path class="ae" d="M121.6,448.839l-2.018,6.714-2.005,6.663-87.1-26.2a1.04,1.04,0,0,1-.359-.041,1.145,1.145,0,0,1-.336-.165c-1.1-.777-1.3-3.623-.454-6.831.044-.178.1-.355.149-.536,1.018-3.449,2.872-6,4.293-6.022a1.108,1.108,0,0,1,.34.044,1.15,1.15,0,0,1,.32.156Z" transform="translate(-20.429 -299.6)"/><path class="af" d="M119.58,471.553l-2,6.663-87.1-26.2a1.04,1.04,0,0,1-.358-.042,1.14,1.14,0,0,1-.336-.165c-1.1-.777-1.3-3.624-.454-6.831,3.56,2.672,20.565,14.491,49.588,20.241,30,5.943,39.285,6.314,40.666,6.333" transform="translate(-20.429 -315.601)"/><path class="ag" d="M335.6,513.041c-1.456-.43-3.531,2.246-4.633,5.978s-.815,7.1.642,7.536,3.531-2.246,4.633-5.978.815-7.106-.642-7.536" transform="translate(-234.262 -363.842)"/><path class="ae" d="M14.63,410.279,4.362,408.614a1.186,1.186,0,0,0-.339-.111,1.1,1.1,0,0,0-.34,0c-1.409.209-2.91,2.979-3.468,6.533-.031.187-.057.368-.079.552a14.215,14.215,0,0,0,.038,4.195,3.55,3.55,0,0,0,1.272,2.494c.013.009.026.016.035.022a1.125,1.125,0,0,0,.356.12,1.068,1.068,0,0,0,.362-.006l89.781,14.567,1.114-6.867,1.12-6.92Z" transform="translate(0 -289.72)"/><path class="af" d="M51.948,429.159c-19.2-1.234-29.382-11.388-37.318-18.879L4.362,408.614a1.194,1.194,0,0,0-.339-.111,1.1,1.1,0,0,0-.34,0c-1.409.209-2.91,2.979-3.468,6.533-.031.187-.057.368-.079.552a14.2,14.2,0,0,0,.038,4.195,6.673,6.673,0,0,0,1.272,2.494c.013.009.026.016.035.022a1.122,1.122,0,0,0,.356.12,1.068,1.068,0,0,0,.362-.006l89.781,14.567,1.114-6.867c-1.371.162-10.623,1.009-41.145-.955" transform="translate(0 -289.72)"/><path class="ag" d="M314.781,458.819c-1.5-.236-3.206,2.689-3.81,6.533s.122,7.151,1.623,7.387,3.206-2.689,3.81-6.533-.123-7.151-1.623-7.387" transform="translate(-220.406 -325.408)"/><path class="w" d="M101.711,312.125c-20.825-3.313-34.589-12.038-40.24-16.259-1.929-1.441-2.913-2.357-2.913-2.357-10.671-22.434,8.634-61.767,12.162-68.433,3.808-7.19,27.057-10.35,27.057-10.35a126.545,126.545,0,0,0-5.163,25.159c-1.45,14.237-16.922,41.989-16.287,44.318.159.587,2.028,1.818,4.753,3.373,8.082,4.6,23.7,12.02,24.648,13.762,1.269,2.326-4.017,10.788-4.017,10.788" transform="translate(-39.276 -152.293)"/><path class="w" d="M218.755,504.787s11.635-4.654,14.49-2.75,7.615,4.76,7.615,6.663-6.029,6.981-11.106,8.567-15.019-1.693-15.019-1.693Z" transform="translate(-152.302 -355.745)"/><path class="v" d="M92.614,239.884c-1.45,14.237-16.922,41.989-16.287,44.318.159.587,2.028,1.818,4.753,3.373a4.814,4.814,0,0,1-.524.01c-12.172-.536-17.68,6.2-19.086,8.281-1.929-1.441-2.913-2.357-2.913-2.357-10.671-22.434,8.634-61.767,12.162-68.433,3.808-7.19,27.057-10.35,27.057-10.35a126.545,126.545,0,0,0-5.163,25.159" transform="translate(-39.276 -152.293)"/><path class="w" d="M219.44,92.3s-22.38,4.521-24.981-9.46-7.241-22.812,6.938-26.29,17.955,1.339,19.959,5.795,3.838,28.418-1.916,29.955" transform="translate(-135.897 -39.262)"/><path class="ah" d="M179.834,72.759s-4.327-9.234-7.935-13.334-1.64-24.6,13.941-23.946S207,47.289,207.161,49.421s-12.465.492-15.909,3.281-.164,7.381-4.1,9.02-7.052,1.641-6.4,5.248a7.914,7.914,0,0,1-.922,5.79" transform="translate(-120.824 -25.151)"/><path class="r" d="M177.29.8a24.65,24.65,0,0,0-10.3,5.064c-.247.213-.488.432-.72.654l0,0c-9.24,8.811-5.553,22.836-5.553,22.836a36.932,36.932,0,0,0,2.077,4.918c.846,1.375,13.115-.211,13.75-2.856a15.474,15.474,0,0,1,3.067-5.394s12.933-.889,13.8-.952c2.922-.212,11.26-3.113,11.26-3.113-.1-.819-4.788-26.834-27.38-21.161" transform="translate(-113.471 0.005)"/><path class="s" d="M227.2,33.473a43.928,43.928,0,0,0-8.556-.961s-3.66,3.032-10.937,5.343c-3.42-4.309-13.162-14.694-25.848-17.731l-.111-.028c-.27.339-.422.454-.609.682l0,0a2.665,2.665,0,0,0-.184.244c10.327,1.8,20.143,13.4,23.512,17.74a57.566,57.566,0,0,1-9.987,1.52s22.6.422,32.934-5.018a.966.966,0,0,0-.21-1.794" transform="translate(-128.34 -14.252)"/><g class="ac" transform="translate(107.178 100.291)"><g class="ai"><path class="v" d="M383.325,366.505a6.458,6.458,0,0,1-5.349,5.651c.142-.33.269-.644.381-.936a5.722,5.722,0,0,0,.527-2.177c-.137-1.38-4.474-4.737-9.516-8.72-.416-2.259-1.431-8.964,0-14.285,1.745-6.5,14.437,17.769,13.961,20.466" transform="translate(-368.627 -344.936)"/></g></g><g class="ac" transform="translate(18.752 133.619)"><g class="aj"><path class="v" d="M85.119,459.625s-15.548-1.269-20.625,7.774a2.526,2.526,0,0,0,3.443,2.12s13.153-8.989,19.61-8.291a3.5,3.5,0,0,0-2.427-1.6" transform="translate(-64.494 -459.564)"/></g></g><g class="ac" transform="translate(116.526 125.533)"><g class="ak"><path class="v" d="M400.78,433.731a56.4,56.4,0,0,1,18.22,4.76s2.254-2.214,1.355-3.483-15.194-5.832-19.575-1.277" transform="translate(-400.78 -431.752)"/></g></g></g></g></g></g></g></svg>