<svg xmlns="http://www.w3.org/2000/svg" xmlns:xlink="http://www.w3.org/1999/xlink" width="1366.974" height="769.953" viewBox="0 0 1366.974 769.953"><defs><style>.a{fill:rgba(161,217,156,0.64);}.b{fill:#70ce68;}.c{fill:#67bf60;}.d{clip-path:url(#a);}.e{clip-path:url(#b);}</style><clipPath id="a"><rect class="a" width="118.141" height="149.571"/></clipPath><clipPath id="b"><rect class="a" width="71.471" height="90.485"/></clipPath></defs><g transform="translate(0.974)"><rect class="b" width="1366" height="768"/><g transform="translate(0 59)"><g transform="translate(-22.974 571)"><rect class="c" width="54.334" height="139.916" transform="translate(501.664 0.037)"/><rect class="c" width="54.334" height="139.916" transform="translate(513.868 0.037)"/><rect class="c" width="54.32" height="8.085" transform="translate(513.882 0)"/><rect class="c" width="54.32" height="8.085" transform="translate(513.882 17.536)"/><rect class="c" width="54.32" height="8.085" transform="translate(513.882 35.071)"/><rect class="c" width="54.32" height="8.085" transform="translate(513.882 52.606)"/><rect class="c" width="54.32" height="8.085" transform="translate(513.882 70.142)"/><rect class="c" width="54.32" height="8.085" transform="translate(513.882 87.677)"/><rect class="c" width="54.32" height="8.085" transform="translate(513.882 105.213)"/><rect class="c" width="54.32" height="8.085" transform="translate(513.882 122.748)"/><rect class="c" width="54.334" height="120.118" transform="translate(661.032 19.782)"/><rect class="c" width="54.334" height="98.118" transform="translate(723.135 41.794)"/><rect class="c" width="54.334" height="120.118" transform="translate(469.22 19.782)"/><rect class="c" width="54.334" height="120.118" transform="translate(673.235 19.782)"/><rect class="c" width="54.32" height="6.941" transform="translate(673.249 19.75)"/><rect class="c" width="54.32" height="6.941" transform="translate(673.249 34.804)"/><rect class="c" width="54.32" height="6.941" transform="translate(673.249 49.859)"/><rect class="c" width="54.32" height="6.941" transform="translate(673.249 64.913)"/><rect class="c" width="54.32" height="6.941" transform="translate(673.249 79.967)"/><rect class="c" width="54.32" height="6.941" transform="translate(673.249 95.021)"/><rect class="c" width="54.32" height="6.941" transform="translate(673.249 110.075)"/><rect class="c" width="54.32" height="6.941" transform="translate(673.249 125.13)"/><rect class="c" width="22.752" height="17.569" transform="translate(486.437 115.628)"/><rect class="c" width="135.201" height="38.334" transform="translate(263.945 101.5)"/><rect class="c" width="135.201" height="19.022" transform="translate(366.464 120.812)"/><rect class="c" width="25.19" height="7.153" transform="translate(364.924 106.024)"/><rect class="c" width="25.19" height="7.153" transform="translate(332.589 106.024)"/><rect class="c" width="25.19" height="7.153" transform="translate(300.87 106.024)"/><rect class="c" width="25.19" height="7.153" transform="translate(269.761 106.024)"/><rect class="c" width="12.977" height="38.334" transform="translate(252.373 101.5)"/><rect class="c" width="0.703" height="3.024" transform="translate(460.863 32.581)"/><rect class="c" width="0.703" height="3.024" transform="translate(435.615 32.581)"/><rect class="c" width="135.201" height="32.359" transform="translate(117.906 107.519)"/><rect class="c" width="12.977" height="45.844" transform="translate(91.398 93.966)"/><rect class="c" width="13.931" height="32.292" transform="translate(103.975 107.519)"/><rect class="c" width="74.412" height="45.958" transform="translate(103.975 93.853)"/><rect class="c" width="1.375" height="9.318" transform="translate(108.965 84.648)"/><path class="c" d="M3432.963,5.49V28.971h-13.755V9.3H3358.9V39.6h-54.657V21.007h-58.46V39.6h-10.9V50.414h-46.582v94.315h605.674V96.119h-46.43V40.256h-46.43V70.518h-37.587V81.654h-65.465V75.187h-28.5V49.515h-76.278V5.49Z" transform="translate(-2404.992 -4.775)"/><path class="c" d="M3432.963,5.49V28.573h-13.755V9.238H3358.9V39.023h-54.657V20.744h-58.46V39.023h-10.9v10.63h-46.582V142.37h605.674V94.584h-46.43V39.667h-46.43V69.416h-37.587V80.364h-65.465V74.006h-28.5V28.573h-76.278V5.49Z" transform="translate(-3165.953 -2.417)"/><rect class="c" width="9.853" height="30.364" transform="translate(1066.139 35.605)"/><path class="c" d="M3563.5,35.023h-6.84V65.41h6.831Z" transform="translate(-2674.996 -23.391)"/><rect class="c" width="0.703" height="3.024" transform="translate(1096.321 32.581)"/><rect class="c" width="0.703" height="3.024" transform="translate(1071.073 32.581)"/><rect class="c" width="135.201" height="32.359" transform="translate(753.364 107.519)"/><rect class="c" width="12.977" height="45.844" transform="translate(726.857 93.966)"/><rect class="c" width="13.931" height="32.292" transform="translate(739.433 107.519)"/><rect class="c" width="74.412" height="45.958" transform="translate(739.433 93.853)"/><rect class="c" width="1.375" height="9.318" transform="translate(744.424 84.648)"/><rect class="c" width="92.831" height="33.059" transform="translate(22 106.687)"/><rect class="c" width="92.831" height="10.745" transform="translate(22 102.368)"/><rect class="c" width="4.768" height="3.559" transform="translate(81.742 116.298)"/><rect class="c" width="4.767" height="3.559" transform="translate(72.827 116.298)"/><rect class="c" width="4.767" height="3.559" transform="translate(64.111 116.298)"/><rect class="c" width="4.768" height="3.559" transform="translate(55.847 116.298)"/><rect class="c" width="4.768" height="3.559" transform="translate(47.424 116.298)"/><rect class="c" width="4.768" height="3.559" transform="translate(38.905 116.298)"/><rect class="c" width="4.768" height="3.559" transform="translate(29.99 116.298)"/><rect class="c" width="4.768" height="3.559" transform="translate(81.742 122.577)"/><rect class="c" width="4.767" height="3.559" transform="translate(72.827 122.577)"/><rect class="c" width="4.767" height="3.559" transform="translate(64.111 122.577)"/><rect class="c" width="4.768" height="3.559" transform="translate(55.847 122.577)"/><rect class="c" width="4.768" height="3.559" transform="translate(47.424 122.577)"/><rect class="c" width="4.768" height="3.559" transform="translate(38.905 122.577)"/><rect class="c" width="4.768" height="3.559" transform="translate(29.99 122.577)"/><rect class="c" width="4.768" height="3.559" transform="translate(81.742 128.76)"/><rect class="c" width="4.767" height="3.559" transform="translate(72.827 128.76)"/><rect class="c" width="4.767" height="3.559" transform="translate(64.111 128.76)"/><rect class="c" width="4.768" height="3.559" transform="translate(55.847 128.76)"/><rect class="c" width="4.768" height="3.559" transform="translate(47.424 128.76)"/><rect class="c" width="4.768" height="3.559" transform="translate(38.905 128.76)"/><rect class="c" width="4.768" height="3.559" transform="translate(29.99 128.76)"/><rect class="c" width="4.006" height="3.67" transform="translate(81.742 105.387)"/><rect class="c" width="4.006" height="3.67" transform="translate(41.968 105.387)"/><rect class="c" width="92.831" height="33.059" transform="translate(568.202 106.442)"/><rect class="c" width="92.831" height="10.745" transform="translate(568.202 102.123)"/><rect class="c" width="4.767" height="3.559" transform="translate(649.944 116.052)"/><rect class="c" width="4.768" height="3.559" transform="translate(641.029 116.052)"/><rect class="c" width="4.767" height="3.559" transform="translate(632.313 116.052)"/><rect class="c" width="4.767" height="3.559" transform="translate(624.049 116.052)"/><rect class="c" width="4.768" height="3.559" transform="translate(615.626 116.052)"/><rect class="c" width="4.767" height="3.559" transform="translate(607.107 116.052)"/><rect class="c" width="4.767" height="3.559" transform="translate(598.191 116.052)"/><rect class="c" width="4.767" height="3.559" transform="translate(589.476 116.052)"/><rect class="c" width="4.767" height="3.559" transform="translate(581.212 116.052)"/><rect class="c" width="4.767" height="3.559" transform="translate(572.789 116.052)"/><rect class="c" width="4.767" height="3.559" transform="translate(649.944 122.332)"/><rect class="c" width="4.768" height="3.559" transform="translate(641.029 122.332)"/><rect class="c" width="4.767" height="3.559" transform="translate(632.313 122.332)"/><rect class="c" width="4.767" height="3.559" transform="translate(624.049 122.332)"/><rect class="c" width="4.768" height="3.559" transform="translate(615.626 122.332)"/><rect class="c" width="4.767" height="3.559" transform="translate(607.107 122.332)"/><rect class="c" width="4.767" height="3.559" transform="translate(598.191 122.332)"/><rect class="c" width="4.767" height="3.559" transform="translate(589.476 122.332)"/><rect class="c" width="4.767" height="3.559" transform="translate(581.212 122.332)"/><rect class="c" width="4.767" height="3.559" transform="translate(572.789 122.332)"/><rect class="c" width="4.767" height="3.559" transform="translate(649.944 128.515)"/><rect class="c" width="4.768" height="3.559" transform="translate(641.029 128.515)"/><rect class="c" width="4.767" height="3.559" transform="translate(632.313 128.515)"/><rect class="c" width="4.767" height="3.559" transform="translate(624.049 128.515)"/><rect class="c" width="4.768" height="3.559" transform="translate(615.626 128.515)"/><rect class="c" width="4.767" height="3.559" transform="translate(607.107 128.515)"/><rect class="c" width="4.767" height="3.559" transform="translate(598.191 128.515)"/><rect class="c" width="4.767" height="3.559" transform="translate(589.476 128.515)"/><rect class="c" width="4.767" height="3.559" transform="translate(581.212 128.515)"/><rect class="c" width="4.767" height="3.559" transform="translate(572.789 128.515)"/><rect class="c" width="4.006" height="3.67" transform="translate(649.944 105.142)"/><rect class="c" width="4.006" height="3.67" transform="translate(610.17 105.142)"/><rect class="c" width="4.006" height="3.67" transform="translate(578.53 105.142)"/></g><path class="c" d="M0,0H1073.835V56.219H0Z" transform="translate(32.034 652.781)"/></g><g transform="translate(14 618.585)"><g class="d"><path class="a" d="M114.436,64.248h0a21.432,21.432,0,0,0-3.331-1.312c-.06-.019-.122-.034-.182-.052q-.46-.134-.928-.248c-.1-.025-.206-.049-.31-.072-.274-.061-.549-.119-.826-.171l-.374-.067c-.264-.044-.528-.082-.795-.117-.132-.016-.264-.035-.4-.05-.276-.031-.555-.053-.834-.073-.121-.009-.24-.022-.363-.029-.4-.022-.8-.034-1.2-.034a21.463,21.463,0,0,0-12.057,3.683,21.677,21.677,0,0,0-4.584,4.164q-.329.4-.64.815-.621.832-1.162,1.721c-.18.3-.353.6-.519.9-.217.4-.418.813-.61,1.229q-.309.667-.574,1.359a21.375,21.375,0,0,0-.739,2.3,21.61,21.61,0,0,0-.679,5.388c0,.341.01.679.026,1.015,0,.107.013.214.019.321.014.231.032.461.053.69.011.122.023.244.037.365q.036.329.083.654c.017.116.032.231.05.347.042.266.09.53.142.794.016.086.033.173.051.259.059.28.123.558.193.834.033.132.07.263.106.393.049.178.1.356.151.533.043.145.089.29.136.434.051.159.105.317.16.474s.1.3.158.446.118.3.177.45q.17.424.357.838c.055.122.109.247.166.368.08.167.164.333.248.5.056.111.112.221.17.331q.132.251.272.5c.056.1.113.2.172.3.1.171.2.341.3.51.043.071.09.14.135.211.26.409.531.809.817,1.2l.005.007a21.564,21.564,0,1,0,26.916-32.109" transform="translate(-8.318 -6.191)"/><path class="a" d="M42.371,56.38h0a29.254,29.254,0,0,0-4.538-1.788c-.082-.025-.167-.047-.25-.071-.417-.121-.837-.234-1.261-.337-.141-.035-.283-.067-.425-.1-.371-.085-.745-.161-1.122-.232q-.255-.047-.51-.09c-.358-.061-.72-.113-1.083-.159-.181-.023-.36-.05-.542-.068-.376-.042-.755-.073-1.136-.1-.164-.012-.327-.029-.492-.037-.543-.031-1.087-.049-1.638-.049A29.374,29.374,0,0,0,0,82.723c0,.464.014.924.036,1.383.006.147.017.292.026.437.019.315.042.627.072.939.015.167.032.332.05.5.032.3.071.6.113.89.022.158.042.318.068.474.057.363.122.721.192,1.079.024.118.047.235.071.352q.119.574.263,1.139c.045.18.1.357.144.537.065.242.133.484.206.724.059.2.122.4.184.593.07.216.144.43.219.644s.142.407.218.609.158.406.239.609c.157.392.324.781.5,1.166.071.16.14.32.215.479.111.231.225.458.341.687.076.148.15.3.227.443.122.23.246.459.374.686.076.133.151.266.23.4.136.235.274.469.417.7.059.095.121.186.18.281A29.372,29.372,0,1,0,42.371,56.38" transform="translate(0 -5.325)"/><path class="a" d="M80.937,1.586c-.105-.032-.212-.059-.317-.09-.533-.154-1.07-.3-1.612-.431-.18-.044-.361-.084-.543-.125q-.712-.162-1.433-.3C76.816.6,76.6.564,76.382.528,75.923.45,75.462.384,75,.324c-.23-.031-.457-.062-.689-.087-.481-.054-.966-.094-1.452-.128-.21-.015-.417-.036-.627-.048C71.537.023,70.839,0,70.137,0A37.323,37.323,0,0,0,50.689,5.431q-.774.469-1.521.975a37.518,37.518,0,0,0-16.536,31.1c0,.592.017,1.18.045,1.764.008.188.023.374.034.562.024.4.053.8.091,1.2q.03.32.065.636.063.573.144,1.139c.029.2.055.4.086.6q.111.694.247,1.377c.03.151.059.3.09.455q.153.73.335,1.45c.058.23.122.456.184.684.085.311.171.619.264.926.076.254.155.505.236.756.089.276.183.551.278.823s.182.52.278.778.2.515.3.771c.2.506.415,1,.638,1.5.092.2.179.406.275.607.14.3.287.586.435.878.1.189.191.377.289.564q.234.443.479.877c.1.171.194.338.292.508.176.3.351.6.535.895.074.119.151.236.226.353A37.5,37.5,0,1,0,80.937,1.586" transform="translate(-3.257)"/><path class="a" d="M100,84.835,71.919,100.02,70.3,53.685l-1.934,55.523L34.3,82.755l33.9,31.3-1.423,40.871h7.055L72.071,104.4Z" transform="translate(-3.424 -5.359)"/></g></g><g transform="translate(1024 677.671)"><g class="e"><path class="a" d="M102.148,63.37h0a12.966,12.966,0,0,0-2.015-.794l-.11-.032q-.279-.081-.561-.15l-.187-.044c-.166-.037-.332-.072-.5-.1l-.226-.04c-.16-.027-.32-.05-.481-.071-.08-.01-.16-.021-.24-.03-.167-.019-.335-.032-.5-.044-.073-.005-.145-.013-.219-.017-.241-.013-.483-.021-.727-.021a12.984,12.984,0,0,0-7.294,2.228,13.114,13.114,0,0,0-2.773,2.519q-.2.242-.387.493-.376.5-.7,1.041c-.109.179-.213.362-.314.546-.131.243-.253.492-.369.743q-.187.4-.347.822a12.927,12.927,0,0,0-.447,1.393,13.073,13.073,0,0,0-.411,3.26c0,.206.006.411.016.614,0,.065.008.13.011.194.009.14.019.279.032.417.007.074.014.148.022.221q.022.2.05.4c.01.07.019.14.03.21.026.161.054.321.086.48.01.052.02.1.031.157.035.169.075.338.117.5.02.08.042.159.064.238.029.108.059.216.091.322.026.088.054.175.082.262s.064.192.1.287.063.18.1.27.071.182.107.272q.1.257.216.507c.033.074.066.149.1.223.048.1.1.2.15.3.034.067.068.134.1.2q.08.152.164.3c.034.061.069.121.1.181.06.1.121.206.184.308.026.043.054.085.082.127.157.247.321.49.494.725l0,0A13.045,13.045,0,1,0,102.148,63.37" transform="translate(-37.95 -28.247)"/><path class="a" d="M25.633,55.183h0A17.7,17.7,0,0,0,22.887,54.1c-.05-.015-.1-.028-.151-.043-.252-.073-.506-.142-.763-.2-.085-.021-.171-.04-.257-.06-.224-.051-.451-.1-.679-.14l-.309-.054c-.217-.037-.436-.068-.655-.1-.109-.014-.218-.03-.328-.041-.228-.026-.457-.044-.687-.06-.1-.007-.2-.017-.3-.022-.328-.019-.658-.029-.991-.029A17.77,17.77,0,0,0,0,71.119c0,.28.008.559.022.836,0,.089.01.176.016.265.011.191.026.38.044.568.009.1.019.2.03.3.02.18.043.36.068.539.013.1.026.192.041.287.034.219.074.436.116.653.015.071.028.142.043.213q.072.347.159.689c.027.109.058.216.087.325.039.146.081.293.125.438.035.12.074.24.111.359s.087.26.132.389.086.246.132.368.1.246.144.368c.095.237.2.473.3.705.043.1.085.194.13.29.067.14.136.277.206.416.046.089.091.179.137.268.074.139.149.278.227.415.046.081.091.161.139.241.082.142.166.284.252.423.036.057.073.113.109.17A17.769,17.769,0,1,0,25.633,55.183" transform="translate(0 -24.296)"/><path class="a" d="M61.855.96,61.663.905c-.322-.093-.648-.181-.975-.261-.109-.027-.218-.051-.328-.076q-.43-.1-.867-.179C59.361.365,59.23.341,59.1.319,58.821.272,58.542.233,58.261.2c-.139-.019-.277-.038-.417-.053-.291-.033-.584-.057-.878-.077-.127-.009-.252-.022-.38-.029C56.168.014,55.746,0,55.321,0A22.579,22.579,0,0,0,43.555,3.285q-.468.283-.92.59a22.7,22.7,0,0,0-10,18.815c0,.358.01.714.027,1.067,0,.114.014.227.021.34.015.242.032.484.055.724q.018.194.039.384.038.346.087.689c.017.122.033.244.052.365q.067.42.149.833c.018.091.035.184.054.275q.092.442.2.877c.035.139.074.276.111.414.051.188.1.375.16.56.046.154.094.306.143.457.054.167.111.333.168.5s.11.315.168.471.121.312.184.467c.123.306.251.607.386.906.056.123.108.246.166.367.084.179.174.355.263.531.058.114.115.228.175.341q.141.268.29.53c.058.1.117.2.176.307.106.182.212.363.323.541.045.072.091.143.137.213A22.689,22.689,0,1,0,61.855.96" transform="translate(-14.861)"/><path class="a" d="M74.048,72.53,57.059,81.716l-.977-28.031-1.17,33.589-20.608-16L54.81,90.208l-.861,24.725h4.268L57.151,84.365Z" transform="translate(-15.623 -24.449)"/></g></g></g></svg>